G04 #@! TF.GenerationSoftware,KiCad,Pcbnew,5.1.9*
G04 #@! TF.CreationDate,2021-01-16T18:22:49+01:00*
G04 #@! TF.ProjectId,firework-ignition-system,66697265-776f-4726-9b2d-69676e697469,1*
G04 #@! TF.SameCoordinates,Original*
G04 #@! TF.FileFunction,Legend,Top*
G04 #@! TF.FilePolarity,Positive*
%FSLAX46Y46*%
G04 Gerber Fmt 4.6, Leading zero omitted, Abs format (unit mm)*
G04 Created by KiCad (PCBNEW 5.1.9) date 2021-01-16 18:22:49*
%MOMM*%
%LPD*%
G01*
G04 APERTURE LIST*
%ADD10C,0.304800*%
%ADD11C,0.120000*%
%ADD12C,0.010000*%
%ADD13C,0.150000*%
%ADD14R,2.600000X2.600000*%
%ADD15R,1.200000X1.900000*%
%ADD16O,1.200000X1.900000*%
%ADD17R,1.500000X1.900000*%
%ADD18C,1.450000*%
%ADD19R,0.400000X1.350000*%
%ADD20R,0.650000X1.060000*%
%ADD21R,5.800000X6.400000*%
%ADD22R,1.200000X2.200000*%
%ADD23C,6.000000*%
%ADD24C,1.800000*%
%ADD25R,1.800000X1.800000*%
%ADD26C,3.200000*%
%ADD27R,0.800000X0.900000*%
%ADD28R,2.000000X0.900000*%
%ADD29R,0.900000X2.000000*%
%ADD30R,5.000000X5.000000*%
%ADD31R,1.500000X2.000000*%
%ADD32R,3.800000X2.000000*%
G04 APERTURE END LIST*
D10*
X19739428Y17526000D02*
X18215428Y17526000D01*
X19739428Y18396857D01*
X18215428Y18396857D01*
X19739428Y19122571D02*
X18723428Y19122571D01*
X18215428Y19122571D02*
X18288000Y19050000D01*
X18360571Y19122571D01*
X18288000Y19195142D01*
X18215428Y19122571D01*
X18360571Y19122571D01*
X19666857Y20501428D02*
X19739428Y20356285D01*
X19739428Y20066000D01*
X19666857Y19920857D01*
X19594285Y19848285D01*
X19449142Y19775714D01*
X19013714Y19775714D01*
X18868571Y19848285D01*
X18796000Y19920857D01*
X18723428Y20066000D01*
X18723428Y20356285D01*
X18796000Y20501428D01*
X19739428Y21372285D02*
X19666857Y21227142D01*
X19594285Y21154571D01*
X19449142Y21082000D01*
X19013714Y21082000D01*
X18868571Y21154571D01*
X18796000Y21227142D01*
X18723428Y21372285D01*
X18723428Y21590000D01*
X18796000Y21735142D01*
X18868571Y21807714D01*
X19013714Y21880285D01*
X19449142Y21880285D01*
X19594285Y21807714D01*
X19666857Y21735142D01*
X19739428Y21590000D01*
X19739428Y21372285D01*
X19739428Y22751142D02*
X19666857Y22606000D01*
X19521714Y22533428D01*
X18215428Y22533428D01*
X19739428Y23984857D02*
X18941142Y23984857D01*
X18796000Y23912285D01*
X18723428Y23767142D01*
X18723428Y23476857D01*
X18796000Y23331714D01*
X19666857Y23984857D02*
X19739428Y23839714D01*
X19739428Y23476857D01*
X19666857Y23331714D01*
X19521714Y23259142D01*
X19376571Y23259142D01*
X19231428Y23331714D01*
X19158857Y23476857D01*
X19158857Y23839714D01*
X19086285Y23984857D01*
X19666857Y24638000D02*
X19739428Y24783142D01*
X19739428Y25073428D01*
X19666857Y25218571D01*
X19521714Y25291142D01*
X19449142Y25291142D01*
X19304000Y25218571D01*
X19231428Y25073428D01*
X19231428Y24855714D01*
X19158857Y24710571D01*
X19013714Y24638000D01*
X18941142Y24638000D01*
X18796000Y24710571D01*
X18723428Y24855714D01*
X18723428Y25073428D01*
X18796000Y25218571D01*
X18941142Y27613428D02*
X18941142Y27105428D01*
X19739428Y27105428D02*
X18215428Y27105428D01*
X18215428Y27831142D01*
X19739428Y29064857D02*
X18941142Y29064857D01*
X18796000Y28992285D01*
X18723428Y28847142D01*
X18723428Y28556857D01*
X18796000Y28411714D01*
X19666857Y29064857D02*
X19739428Y28919714D01*
X19739428Y28556857D01*
X19666857Y28411714D01*
X19521714Y28339142D01*
X19376571Y28339142D01*
X19231428Y28411714D01*
X19158857Y28556857D01*
X19158857Y28919714D01*
X19086285Y29064857D01*
X19739428Y29790571D02*
X18723428Y29790571D01*
X19013714Y29790571D02*
X18868571Y29863142D01*
X18796000Y29935714D01*
X18723428Y30080857D01*
X18723428Y30226000D01*
X19739428Y31387142D02*
X18941142Y31387142D01*
X18796000Y31314571D01*
X18723428Y31169428D01*
X18723428Y30879142D01*
X18796000Y30734000D01*
X19666857Y31387142D02*
X19739428Y31242000D01*
X19739428Y30879142D01*
X19666857Y30734000D01*
X19521714Y30661428D01*
X19376571Y30661428D01*
X19231428Y30734000D01*
X19158857Y30879142D01*
X19158857Y31242000D01*
X19086285Y31387142D01*
X19739428Y32112857D02*
X18215428Y32112857D01*
X18796000Y32112857D02*
X18723428Y32258000D01*
X18723428Y32548285D01*
X18796000Y32693428D01*
X18868571Y32766000D01*
X19013714Y32838571D01*
X19449142Y32838571D01*
X19594285Y32766000D01*
X19666857Y32693428D01*
X19739428Y32548285D01*
X19739428Y32258000D01*
X19666857Y32112857D01*
X19666857Y34072285D02*
X19739428Y33927142D01*
X19739428Y33636857D01*
X19666857Y33491714D01*
X19521714Y33419142D01*
X18941142Y33419142D01*
X18796000Y33491714D01*
X18723428Y33636857D01*
X18723428Y33927142D01*
X18796000Y34072285D01*
X18941142Y34144857D01*
X19086285Y34144857D01*
X19231428Y33419142D01*
X18723428Y35451142D02*
X19957142Y35451142D01*
X20102285Y35378571D01*
X20174857Y35306000D01*
X20247428Y35160857D01*
X20247428Y34943142D01*
X20174857Y34798000D01*
X19666857Y35451142D02*
X19739428Y35306000D01*
X19739428Y35015714D01*
X19666857Y34870571D01*
X19594285Y34798000D01*
X19449142Y34725428D01*
X19013714Y34725428D01*
X18868571Y34798000D01*
X18796000Y34870571D01*
X18723428Y35015714D01*
X18723428Y35306000D01*
X18796000Y35451142D01*
X19739428Y36394571D02*
X19666857Y36249428D01*
X19594285Y36176857D01*
X19449142Y36104285D01*
X19013714Y36104285D01*
X18868571Y36176857D01*
X18796000Y36249428D01*
X18723428Y36394571D01*
X18723428Y36612285D01*
X18796000Y36757428D01*
X18868571Y36830000D01*
X19013714Y36902571D01*
X19449142Y36902571D01*
X19594285Y36830000D01*
X19666857Y36757428D01*
X19739428Y36612285D01*
X19739428Y36394571D01*
X19739428Y37773428D02*
X19666857Y37628285D01*
X19521714Y37555714D01*
X18215428Y37555714D01*
X19739428Y38353999D02*
X18723428Y38353999D01*
X18215428Y38353999D02*
X18288000Y38281428D01*
X18360571Y38353999D01*
X18288000Y38426571D01*
X18215428Y38353999D01*
X18360571Y38353999D01*
X109018977Y27845657D02*
X108510977Y27845657D01*
X108510977Y27047371D02*
X108510977Y28571371D01*
X109236691Y28571371D01*
X109817262Y27047371D02*
X109817262Y28063371D01*
X109817262Y28571371D02*
X109744691Y28498800D01*
X109817262Y28426228D01*
X109889834Y28498800D01*
X109817262Y28571371D01*
X109817262Y28426228D01*
X110542977Y27047371D02*
X110542977Y28063371D01*
X110542977Y27773085D02*
X110615548Y27918228D01*
X110688120Y27990800D01*
X110833262Y28063371D01*
X110978405Y28063371D01*
X112066977Y27119942D02*
X111921834Y27047371D01*
X111631548Y27047371D01*
X111486405Y27119942D01*
X111413834Y27265085D01*
X111413834Y27845657D01*
X111486405Y27990800D01*
X111631548Y28063371D01*
X111921834Y28063371D01*
X112066977Y27990800D01*
X112139548Y27845657D01*
X112139548Y27700514D01*
X111413834Y27555371D01*
X112647548Y28063371D02*
X112937834Y27047371D01*
X113228120Y27773085D01*
X113518405Y27047371D01*
X113808691Y28063371D01*
X114606977Y27047371D02*
X114461834Y27119942D01*
X114389262Y27192514D01*
X114316691Y27337657D01*
X114316691Y27773085D01*
X114389262Y27918228D01*
X114461834Y27990800D01*
X114606977Y28063371D01*
X114824691Y28063371D01*
X114969834Y27990800D01*
X115042405Y27918228D01*
X115114977Y27773085D01*
X115114977Y27337657D01*
X115042405Y27192514D01*
X114969834Y27119942D01*
X114824691Y27047371D01*
X114606977Y27047371D01*
X115768120Y27047371D02*
X115768120Y28063371D01*
X115768120Y27773085D02*
X115840691Y27918228D01*
X115913262Y27990800D01*
X116058405Y28063371D01*
X116203548Y28063371D01*
X116711548Y27047371D02*
X116711548Y28571371D01*
X116856691Y27627942D02*
X117292120Y27047371D01*
X117292120Y28063371D02*
X116711548Y27482800D01*
X117872691Y27119942D02*
X118017834Y27047371D01*
X118308120Y27047371D01*
X118453262Y27119942D01*
X118525834Y27265085D01*
X118525834Y27337657D01*
X118453262Y27482800D01*
X118308120Y27555371D01*
X118090405Y27555371D01*
X117945262Y27627942D01*
X117872691Y27773085D01*
X117872691Y27845657D01*
X117945262Y27990800D01*
X118090405Y28063371D01*
X118308120Y28063371D01*
X118453262Y27990800D01*
X108510977Y24456571D02*
X108510977Y25980571D01*
X109889834Y25472571D02*
X109889834Y24238857D01*
X109817262Y24093714D01*
X109744691Y24021142D01*
X109599548Y23948571D01*
X109381834Y23948571D01*
X109236691Y24021142D01*
X109889834Y24529142D02*
X109744691Y24456571D01*
X109454405Y24456571D01*
X109309262Y24529142D01*
X109236691Y24601714D01*
X109164120Y24746857D01*
X109164120Y25182285D01*
X109236691Y25327428D01*
X109309262Y25400000D01*
X109454405Y25472571D01*
X109744691Y25472571D01*
X109889834Y25400000D01*
X110615548Y25472571D02*
X110615548Y24456571D01*
X110615548Y25327428D02*
X110688120Y25400000D01*
X110833262Y25472571D01*
X111050977Y25472571D01*
X111196120Y25400000D01*
X111268691Y25254857D01*
X111268691Y24456571D01*
X111994405Y24456571D02*
X111994405Y25472571D01*
X111994405Y25980571D02*
X111921834Y25908000D01*
X111994405Y25835428D01*
X112066977Y25908000D01*
X111994405Y25980571D01*
X111994405Y25835428D01*
X112502405Y25472571D02*
X113082977Y25472571D01*
X112720120Y25980571D02*
X112720120Y24674285D01*
X112792691Y24529142D01*
X112937834Y24456571D01*
X113082977Y24456571D01*
X113590977Y24456571D02*
X113590977Y25472571D01*
X113590977Y25980571D02*
X113518405Y25908000D01*
X113590977Y25835428D01*
X113663548Y25908000D01*
X113590977Y25980571D01*
X113590977Y25835428D01*
X114534405Y24456571D02*
X114389262Y24529142D01*
X114316691Y24601714D01*
X114244120Y24746857D01*
X114244120Y25182285D01*
X114316691Y25327428D01*
X114389262Y25400000D01*
X114534405Y25472571D01*
X114752120Y25472571D01*
X114897262Y25400000D01*
X114969834Y25327428D01*
X115042405Y25182285D01*
X115042405Y24746857D01*
X114969834Y24601714D01*
X114897262Y24529142D01*
X114752120Y24456571D01*
X114534405Y24456571D01*
X115695548Y25472571D02*
X115695548Y24456571D01*
X115695548Y25327428D02*
X115768120Y25400000D01*
X115913262Y25472571D01*
X116130977Y25472571D01*
X116276120Y25400000D01*
X116348691Y25254857D01*
X116348691Y24456571D01*
X108438405Y21938342D02*
X108656120Y21865771D01*
X109018977Y21865771D01*
X109164120Y21938342D01*
X109236691Y22010914D01*
X109309262Y22156057D01*
X109309262Y22301200D01*
X109236691Y22446342D01*
X109164120Y22518914D01*
X109018977Y22591485D01*
X108728691Y22664057D01*
X108583548Y22736628D01*
X108510977Y22809200D01*
X108438405Y22954342D01*
X108438405Y23099485D01*
X108510977Y23244628D01*
X108583548Y23317200D01*
X108728691Y23389771D01*
X109091548Y23389771D01*
X109309262Y23317200D01*
X109817262Y22881771D02*
X110180120Y21865771D01*
X110542977Y22881771D02*
X110180120Y21865771D01*
X110034977Y21502914D01*
X109962405Y21430342D01*
X109817262Y21357771D01*
X111050977Y21938342D02*
X111196120Y21865771D01*
X111486405Y21865771D01*
X111631548Y21938342D01*
X111704120Y22083485D01*
X111704120Y22156057D01*
X111631548Y22301200D01*
X111486405Y22373771D01*
X111268691Y22373771D01*
X111123548Y22446342D01*
X111050977Y22591485D01*
X111050977Y22664057D01*
X111123548Y22809200D01*
X111268691Y22881771D01*
X111486405Y22881771D01*
X111631548Y22809200D01*
X112139548Y22881771D02*
X112720120Y22881771D01*
X112357262Y23389771D02*
X112357262Y22083485D01*
X112429834Y21938342D01*
X112574977Y21865771D01*
X112720120Y21865771D01*
X113808691Y21938342D02*
X113663548Y21865771D01*
X113373262Y21865771D01*
X113228120Y21938342D01*
X113155548Y22083485D01*
X113155548Y22664057D01*
X113228120Y22809200D01*
X113373262Y22881771D01*
X113663548Y22881771D01*
X113808691Y22809200D01*
X113881262Y22664057D01*
X113881262Y22518914D01*
X113155548Y22373771D01*
X114534405Y21865771D02*
X114534405Y22881771D01*
X114534405Y22736628D02*
X114606977Y22809200D01*
X114752120Y22881771D01*
X114969834Y22881771D01*
X115114977Y22809200D01*
X115187548Y22664057D01*
X115187548Y21865771D01*
X115187548Y22664057D02*
X115260120Y22809200D01*
X115405262Y22881771D01*
X115622977Y22881771D01*
X115768120Y22809200D01*
X115840691Y22664057D01*
X115840691Y21865771D01*
D11*
X47701252Y46588000D02*
X46278748Y46588000D01*
X47701252Y48408000D02*
X46278748Y48408000D01*
X51612748Y48408000D02*
X53035252Y48408000D01*
X51612748Y46588000D02*
X53035252Y46588000D01*
X85746000Y50241252D02*
X85746000Y48818748D01*
X83926000Y50241252D02*
X83926000Y48818748D01*
X69674000Y43069000D02*
X69674000Y42594000D01*
X69674000Y42594000D02*
X69199000Y42594000D01*
X65454000Y46339000D02*
X65454000Y46814000D01*
X65454000Y46814000D02*
X65929000Y46814000D01*
X65454000Y43069000D02*
X65454000Y42594000D01*
X65454000Y42594000D02*
X65929000Y42594000D01*
X69674000Y46339000D02*
X69674000Y46814000D01*
X71718000Y56911500D02*
X71268000Y56911500D01*
X71718000Y58761500D02*
X71718000Y56911500D01*
X63918000Y61311500D02*
X63918000Y61061500D01*
X71718000Y61311500D02*
X71718000Y61061500D01*
X63918000Y58761500D02*
X63918000Y56911500D01*
X63918000Y56911500D02*
X64368000Y56911500D01*
X69518000Y56361500D02*
X69068000Y56361500D01*
X69518000Y56361500D02*
X69518000Y56811500D01*
D12*
G36*
X113423878Y19206224D02*
G01*
X113529612Y19205645D01*
X113606132Y19204078D01*
X113658372Y19201028D01*
X113691263Y19196004D01*
X113709737Y19188511D01*
X113718727Y19178056D01*
X113723163Y19164147D01*
X113723594Y19162346D01*
X113730333Y19129855D01*
X113742808Y19065748D01*
X113759719Y18976849D01*
X113779771Y18869981D01*
X113801664Y18751967D01*
X113802429Y18747822D01*
X113824359Y18632169D01*
X113844877Y18529986D01*
X113862659Y18447402D01*
X113876381Y18390544D01*
X113884718Y18365542D01*
X113885116Y18365099D01*
X113909677Y18352890D01*
X113960315Y18332544D01*
X114026095Y18308455D01*
X114026461Y18308326D01*
X114109317Y18277182D01*
X114207000Y18237509D01*
X114299077Y18197619D01*
X114303434Y18195647D01*
X114453407Y18127580D01*
X114785498Y18354361D01*
X114887374Y18423496D01*
X114979657Y18485303D01*
X115057003Y18536267D01*
X115114064Y18572873D01*
X115145495Y18591606D01*
X115148479Y18592996D01*
X115171321Y18586810D01*
X115213982Y18556965D01*
X115278128Y18502053D01*
X115365421Y18420666D01*
X115454535Y18334078D01*
X115540441Y18248753D01*
X115617327Y18170892D01*
X115680564Y18105303D01*
X115725523Y18056795D01*
X115747576Y18030175D01*
X115748396Y18028805D01*
X115750834Y18010537D01*
X115741650Y17980705D01*
X115718574Y17935279D01*
X115679337Y17870230D01*
X115621670Y17781530D01*
X115544795Y17667343D01*
X115476570Y17566838D01*
X115415582Y17476697D01*
X115365356Y17402151D01*
X115329416Y17348435D01*
X115311287Y17320782D01*
X115310146Y17318905D01*
X115312359Y17292410D01*
X115329138Y17240914D01*
X115357142Y17174149D01*
X115367122Y17152828D01*
X115410672Y17057841D01*
X115457134Y16950063D01*
X115494877Y16856808D01*
X115522073Y16787594D01*
X115543675Y16734994D01*
X115556158Y16707503D01*
X115557709Y16705384D01*
X115580668Y16701876D01*
X115634786Y16692262D01*
X115712868Y16677911D01*
X115807719Y16660193D01*
X115912143Y16640475D01*
X116018944Y16620126D01*
X116120926Y16600514D01*
X116210894Y16583009D01*
X116281653Y16568978D01*
X116326006Y16559791D01*
X116336885Y16557193D01*
X116348122Y16550782D01*
X116356605Y16536303D01*
X116362714Y16508867D01*
X116366832Y16463589D01*
X116369341Y16395580D01*
X116370621Y16299953D01*
X116371054Y16171820D01*
X116371077Y16119299D01*
X116371077Y15692155D01*
X116268500Y15671909D01*
X116211431Y15660930D01*
X116126269Y15644905D01*
X116023372Y15625767D01*
X115913096Y15605449D01*
X115882615Y15599868D01*
X115780855Y15580083D01*
X115692205Y15560627D01*
X115624108Y15543303D01*
X115584004Y15529912D01*
X115577323Y15525921D01*
X115560919Y15497658D01*
X115537399Y15442891D01*
X115511316Y15372412D01*
X115506142Y15357231D01*
X115471956Y15263104D01*
X115429523Y15156899D01*
X115387997Y15061527D01*
X115387792Y15061084D01*
X115318640Y14911475D01*
X115773512Y14242383D01*
X115481500Y13949884D01*
X115393180Y13862830D01*
X115312625Y13786091D01*
X115244360Y13723763D01*
X115192908Y13679944D01*
X115162794Y13658730D01*
X115158474Y13657384D01*
X115133111Y13667984D01*
X115081358Y13697453D01*
X115008868Y13742295D01*
X114921294Y13799016D01*
X114826612Y13862538D01*
X114730516Y13927332D01*
X114644837Y13983713D01*
X114575016Y14028212D01*
X114526494Y14057361D01*
X114504782Y14067692D01*
X114478293Y14058950D01*
X114428062Y14035913D01*
X114364451Y14003369D01*
X114357708Y13999751D01*
X114272046Y13956790D01*
X114213306Y13935721D01*
X114176772Y13935497D01*
X114157731Y13955072D01*
X114157620Y13955346D01*
X114148102Y13978528D01*
X114125403Y14033559D01*
X114091282Y14116178D01*
X114047500Y14222128D01*
X113995816Y14347148D01*
X113937992Y14486980D01*
X113881991Y14622363D01*
X113820447Y14771766D01*
X113763939Y14910168D01*
X113714161Y15033327D01*
X113672806Y15136998D01*
X113641568Y15216941D01*
X113622141Y15268912D01*
X113616154Y15288308D01*
X113631168Y15310557D01*
X113670439Y15346018D01*
X113722807Y15385113D01*
X113871941Y15508755D01*
X113988511Y15650478D01*
X114071118Y15807296D01*
X114118366Y15976225D01*
X114128857Y16154278D01*
X114121231Y16236461D01*
X114079682Y16406969D01*
X114008123Y16557541D01*
X113910995Y16686691D01*
X113792734Y16792936D01*
X113657780Y16874790D01*
X113510571Y16930768D01*
X113355544Y16959385D01*
X113197139Y16959156D01*
X113039794Y16928595D01*
X112887946Y16866218D01*
X112746035Y16770540D01*
X112686803Y16716428D01*
X112573203Y16577480D01*
X112494106Y16425639D01*
X112448986Y16265333D01*
X112437316Y16100988D01*
X112458569Y15937029D01*
X112512220Y15777882D01*
X112597740Y15627975D01*
X112714605Y15491733D01*
X112845193Y15385113D01*
X112899588Y15344358D01*
X112938014Y15309282D01*
X112951846Y15288274D01*
X112944603Y15265365D01*
X112924005Y15210635D01*
X112891746Y15128328D01*
X112849521Y15022685D01*
X112799023Y14897950D01*
X112741948Y14758364D01*
X112685854Y14622330D01*
X112623967Y14472799D01*
X112566644Y14334233D01*
X112515644Y14210893D01*
X112472727Y14107036D01*
X112439653Y14026920D01*
X112418181Y13974805D01*
X112410225Y13955346D01*
X112391429Y13935577D01*
X112355074Y13935635D01*
X112296479Y13956559D01*
X112210968Y13999387D01*
X112210292Y13999751D01*
X112145907Y14032988D01*
X112093861Y14057198D01*
X112064512Y14067596D01*
X112063217Y14067692D01*
X112041124Y14057145D01*
X111992348Y14027816D01*
X111922331Y13983173D01*
X111836514Y13926686D01*
X111741388Y13862538D01*
X111644540Y13797589D01*
X111557253Y13741104D01*
X111485181Y13696579D01*
X111433977Y13667510D01*
X111409526Y13657384D01*
X111387010Y13670693D01*
X111341742Y13707888D01*
X111278244Y13764872D01*
X111201039Y13837551D01*
X111114651Y13921829D01*
X111086399Y13949984D01*
X110794287Y14242584D01*
X111016631Y14568896D01*
X111084202Y14669103D01*
X111143507Y14759037D01*
X111191217Y14833490D01*
X111224007Y14887249D01*
X111238548Y14915106D01*
X111238974Y14917088D01*
X111231308Y14943345D01*
X111210689Y14996163D01*
X111180685Y15066690D01*
X111159625Y15113907D01*
X111120248Y15204306D01*
X111083165Y15295634D01*
X111054415Y15372800D01*
X111046605Y15396308D01*
X111024417Y15459084D01*
X111002727Y15507589D01*
X110990813Y15525921D01*
X110964523Y15537141D01*
X110907142Y15553046D01*
X110826118Y15571833D01*
X110728895Y15591701D01*
X110685385Y15599868D01*
X110574896Y15620171D01*
X110468916Y15639830D01*
X110377801Y15656912D01*
X110311908Y15669482D01*
X110299500Y15671909D01*
X110196923Y15692155D01*
X110196923Y16119299D01*
X110197153Y16259754D01*
X110198099Y16366021D01*
X110200141Y16442987D01*
X110203662Y16495540D01*
X110209043Y16528567D01*
X110216666Y16546955D01*
X110226912Y16555592D01*
X110231115Y16557193D01*
X110256470Y16562873D01*
X110312484Y16574205D01*
X110391964Y16589821D01*
X110487712Y16608353D01*
X110592533Y16628431D01*
X110699232Y16648688D01*
X110800613Y16667754D01*
X110889479Y16684261D01*
X110958637Y16696841D01*
X111000889Y16704125D01*
X111010290Y16705384D01*
X111018807Y16722237D01*
X111037660Y16767130D01*
X111063324Y16831570D01*
X111073123Y16856808D01*
X111112648Y16954314D01*
X111159192Y17062041D01*
X111200877Y17152828D01*
X111231550Y17222247D01*
X111251956Y17279290D01*
X111258768Y17314223D01*
X111257682Y17318905D01*
X111243285Y17341009D01*
X111210412Y17390169D01*
X111162590Y17461152D01*
X111103348Y17548722D01*
X111036215Y17647643D01*
X111022941Y17667170D01*
X110945046Y17782860D01*
X110887787Y17870956D01*
X110848881Y17935514D01*
X110826044Y17980589D01*
X110816994Y18010237D01*
X110819448Y18028515D01*
X110819511Y18028631D01*
X110838827Y18052639D01*
X110881551Y18099053D01*
X110943051Y18163063D01*
X111018698Y18239855D01*
X111103861Y18324618D01*
X111113465Y18334078D01*
X111220790Y18438011D01*
X111303615Y18514325D01*
X111363605Y18564429D01*
X111402423Y18589730D01*
X111419520Y18592996D01*
X111444473Y18578750D01*
X111496255Y18545844D01*
X111569520Y18497792D01*
X111658920Y18438110D01*
X111759111Y18370312D01*
X111782501Y18354361D01*
X112114593Y18127580D01*
X112264565Y18195647D01*
X112355770Y18235315D01*
X112453669Y18275209D01*
X112537831Y18307017D01*
X112541538Y18308326D01*
X112607369Y18332424D01*
X112658116Y18352800D01*
X112682842Y18365064D01*
X112682884Y18365099D01*
X112690729Y18387266D01*
X112704066Y18441783D01*
X112721570Y18522520D01*
X112741917Y18623350D01*
X112763782Y18738144D01*
X112765571Y18747822D01*
X112787504Y18866096D01*
X112807640Y18973458D01*
X112824680Y19063083D01*
X112837328Y19128149D01*
X112844284Y19161832D01*
X112844406Y19162346D01*
X112848639Y19176675D01*
X112856871Y19187493D01*
X112874033Y19195294D01*
X112905058Y19200571D01*
X112954878Y19203818D01*
X113028424Y19205528D01*
X113130629Y19206193D01*
X113266425Y19206307D01*
X113284000Y19206308D01*
X113423878Y19206224D01*
G37*
X113423878Y19206224D02*
X113529612Y19205645D01*
X113606132Y19204078D01*
X113658372Y19201028D01*
X113691263Y19196004D01*
X113709737Y19188511D01*
X113718727Y19178056D01*
X113723163Y19164147D01*
X113723594Y19162346D01*
X113730333Y19129855D01*
X113742808Y19065748D01*
X113759719Y18976849D01*
X113779771Y18869981D01*
X113801664Y18751967D01*
X113802429Y18747822D01*
X113824359Y18632169D01*
X113844877Y18529986D01*
X113862659Y18447402D01*
X113876381Y18390544D01*
X113884718Y18365542D01*
X113885116Y18365099D01*
X113909677Y18352890D01*
X113960315Y18332544D01*
X114026095Y18308455D01*
X114026461Y18308326D01*
X114109317Y18277182D01*
X114207000Y18237509D01*
X114299077Y18197619D01*
X114303434Y18195647D01*
X114453407Y18127580D01*
X114785498Y18354361D01*
X114887374Y18423496D01*
X114979657Y18485303D01*
X115057003Y18536267D01*
X115114064Y18572873D01*
X115145495Y18591606D01*
X115148479Y18592996D01*
X115171321Y18586810D01*
X115213982Y18556965D01*
X115278128Y18502053D01*
X115365421Y18420666D01*
X115454535Y18334078D01*
X115540441Y18248753D01*
X115617327Y18170892D01*
X115680564Y18105303D01*
X115725523Y18056795D01*
X115747576Y18030175D01*
X115748396Y18028805D01*
X115750834Y18010537D01*
X115741650Y17980705D01*
X115718574Y17935279D01*
X115679337Y17870230D01*
X115621670Y17781530D01*
X115544795Y17667343D01*
X115476570Y17566838D01*
X115415582Y17476697D01*
X115365356Y17402151D01*
X115329416Y17348435D01*
X115311287Y17320782D01*
X115310146Y17318905D01*
X115312359Y17292410D01*
X115329138Y17240914D01*
X115357142Y17174149D01*
X115367122Y17152828D01*
X115410672Y17057841D01*
X115457134Y16950063D01*
X115494877Y16856808D01*
X115522073Y16787594D01*
X115543675Y16734994D01*
X115556158Y16707503D01*
X115557709Y16705384D01*
X115580668Y16701876D01*
X115634786Y16692262D01*
X115712868Y16677911D01*
X115807719Y16660193D01*
X115912143Y16640475D01*
X116018944Y16620126D01*
X116120926Y16600514D01*
X116210894Y16583009D01*
X116281653Y16568978D01*
X116326006Y16559791D01*
X116336885Y16557193D01*
X116348122Y16550782D01*
X116356605Y16536303D01*
X116362714Y16508867D01*
X116366832Y16463589D01*
X116369341Y16395580D01*
X116370621Y16299953D01*
X116371054Y16171820D01*
X116371077Y16119299D01*
X116371077Y15692155D01*
X116268500Y15671909D01*
X116211431Y15660930D01*
X116126269Y15644905D01*
X116023372Y15625767D01*
X115913096Y15605449D01*
X115882615Y15599868D01*
X115780855Y15580083D01*
X115692205Y15560627D01*
X115624108Y15543303D01*
X115584004Y15529912D01*
X115577323Y15525921D01*
X115560919Y15497658D01*
X115537399Y15442891D01*
X115511316Y15372412D01*
X115506142Y15357231D01*
X115471956Y15263104D01*
X115429523Y15156899D01*
X115387997Y15061527D01*
X115387792Y15061084D01*
X115318640Y14911475D01*
X115773512Y14242383D01*
X115481500Y13949884D01*
X115393180Y13862830D01*
X115312625Y13786091D01*
X115244360Y13723763D01*
X115192908Y13679944D01*
X115162794Y13658730D01*
X115158474Y13657384D01*
X115133111Y13667984D01*
X115081358Y13697453D01*
X115008868Y13742295D01*
X114921294Y13799016D01*
X114826612Y13862538D01*
X114730516Y13927332D01*
X114644837Y13983713D01*
X114575016Y14028212D01*
X114526494Y14057361D01*
X114504782Y14067692D01*
X114478293Y14058950D01*
X114428062Y14035913D01*
X114364451Y14003369D01*
X114357708Y13999751D01*
X114272046Y13956790D01*
X114213306Y13935721D01*
X114176772Y13935497D01*
X114157731Y13955072D01*
X114157620Y13955346D01*
X114148102Y13978528D01*
X114125403Y14033559D01*
X114091282Y14116178D01*
X114047500Y14222128D01*
X113995816Y14347148D01*
X113937992Y14486980D01*
X113881991Y14622363D01*
X113820447Y14771766D01*
X113763939Y14910168D01*
X113714161Y15033327D01*
X113672806Y15136998D01*
X113641568Y15216941D01*
X113622141Y15268912D01*
X113616154Y15288308D01*
X113631168Y15310557D01*
X113670439Y15346018D01*
X113722807Y15385113D01*
X113871941Y15508755D01*
X113988511Y15650478D01*
X114071118Y15807296D01*
X114118366Y15976225D01*
X114128857Y16154278D01*
X114121231Y16236461D01*
X114079682Y16406969D01*
X114008123Y16557541D01*
X113910995Y16686691D01*
X113792734Y16792936D01*
X113657780Y16874790D01*
X113510571Y16930768D01*
X113355544Y16959385D01*
X113197139Y16959156D01*
X113039794Y16928595D01*
X112887946Y16866218D01*
X112746035Y16770540D01*
X112686803Y16716428D01*
X112573203Y16577480D01*
X112494106Y16425639D01*
X112448986Y16265333D01*
X112437316Y16100988D01*
X112458569Y15937029D01*
X112512220Y15777882D01*
X112597740Y15627975D01*
X112714605Y15491733D01*
X112845193Y15385113D01*
X112899588Y15344358D01*
X112938014Y15309282D01*
X112951846Y15288274D01*
X112944603Y15265365D01*
X112924005Y15210635D01*
X112891746Y15128328D01*
X112849521Y15022685D01*
X112799023Y14897950D01*
X112741948Y14758364D01*
X112685854Y14622330D01*
X112623967Y14472799D01*
X112566644Y14334233D01*
X112515644Y14210893D01*
X112472727Y14107036D01*
X112439653Y14026920D01*
X112418181Y13974805D01*
X112410225Y13955346D01*
X112391429Y13935577D01*
X112355074Y13935635D01*
X112296479Y13956559D01*
X112210968Y13999387D01*
X112210292Y13999751D01*
X112145907Y14032988D01*
X112093861Y14057198D01*
X112064512Y14067596D01*
X112063217Y14067692D01*
X112041124Y14057145D01*
X111992348Y14027816D01*
X111922331Y13983173D01*
X111836514Y13926686D01*
X111741388Y13862538D01*
X111644540Y13797589D01*
X111557253Y13741104D01*
X111485181Y13696579D01*
X111433977Y13667510D01*
X111409526Y13657384D01*
X111387010Y13670693D01*
X111341742Y13707888D01*
X111278244Y13764872D01*
X111201039Y13837551D01*
X111114651Y13921829D01*
X111086399Y13949984D01*
X110794287Y14242584D01*
X111016631Y14568896D01*
X111084202Y14669103D01*
X111143507Y14759037D01*
X111191217Y14833490D01*
X111224007Y14887249D01*
X111238548Y14915106D01*
X111238974Y14917088D01*
X111231308Y14943345D01*
X111210689Y14996163D01*
X111180685Y15066690D01*
X111159625Y15113907D01*
X111120248Y15204306D01*
X111083165Y15295634D01*
X111054415Y15372800D01*
X111046605Y15396308D01*
X111024417Y15459084D01*
X111002727Y15507589D01*
X110990813Y15525921D01*
X110964523Y15537141D01*
X110907142Y15553046D01*
X110826118Y15571833D01*
X110728895Y15591701D01*
X110685385Y15599868D01*
X110574896Y15620171D01*
X110468916Y15639830D01*
X110377801Y15656912D01*
X110311908Y15669482D01*
X110299500Y15671909D01*
X110196923Y15692155D01*
X110196923Y16119299D01*
X110197153Y16259754D01*
X110198099Y16366021D01*
X110200141Y16442987D01*
X110203662Y16495540D01*
X110209043Y16528567D01*
X110216666Y16546955D01*
X110226912Y16555592D01*
X110231115Y16557193D01*
X110256470Y16562873D01*
X110312484Y16574205D01*
X110391964Y16589821D01*
X110487712Y16608353D01*
X110592533Y16628431D01*
X110699232Y16648688D01*
X110800613Y16667754D01*
X110889479Y16684261D01*
X110958637Y16696841D01*
X111000889Y16704125D01*
X111010290Y16705384D01*
X111018807Y16722237D01*
X111037660Y16767130D01*
X111063324Y16831570D01*
X111073123Y16856808D01*
X111112648Y16954314D01*
X111159192Y17062041D01*
X111200877Y17152828D01*
X111231550Y17222247D01*
X111251956Y17279290D01*
X111258768Y17314223D01*
X111257682Y17318905D01*
X111243285Y17341009D01*
X111210412Y17390169D01*
X111162590Y17461152D01*
X111103348Y17548722D01*
X111036215Y17647643D01*
X111022941Y17667170D01*
X110945046Y17782860D01*
X110887787Y17870956D01*
X110848881Y17935514D01*
X110826044Y17980589D01*
X110816994Y18010237D01*
X110819448Y18028515D01*
X110819511Y18028631D01*
X110838827Y18052639D01*
X110881551Y18099053D01*
X110943051Y18163063D01*
X111018698Y18239855D01*
X111103861Y18324618D01*
X111113465Y18334078D01*
X111220790Y18438011D01*
X111303615Y18514325D01*
X111363605Y18564429D01*
X111402423Y18589730D01*
X111419520Y18592996D01*
X111444473Y18578750D01*
X111496255Y18545844D01*
X111569520Y18497792D01*
X111658920Y18438110D01*
X111759111Y18370312D01*
X111782501Y18354361D01*
X112114593Y18127580D01*
X112264565Y18195647D01*
X112355770Y18235315D01*
X112453669Y18275209D01*
X112537831Y18307017D01*
X112541538Y18308326D01*
X112607369Y18332424D01*
X112658116Y18352800D01*
X112682842Y18365064D01*
X112682884Y18365099D01*
X112690729Y18387266D01*
X112704066Y18441783D01*
X112721570Y18522520D01*
X112741917Y18623350D01*
X112763782Y18738144D01*
X112765571Y18747822D01*
X112787504Y18866096D01*
X112807640Y18973458D01*
X112824680Y19063083D01*
X112837328Y19128149D01*
X112844284Y19161832D01*
X112844406Y19162346D01*
X112848639Y19176675D01*
X112856871Y19187493D01*
X112874033Y19195294D01*
X112905058Y19200571D01*
X112954878Y19203818D01*
X113028424Y19205528D01*
X113130629Y19206193D01*
X113266425Y19206307D01*
X113284000Y19206308D01*
X113423878Y19206224D01*
G36*
X117529224Y12846162D02*
G01*
X117606528Y12795639D01*
X117643814Y12750410D01*
X117673353Y12668337D01*
X117675699Y12603393D01*
X117670385Y12516555D01*
X117470115Y12428897D01*
X117372739Y12384113D01*
X117309113Y12348087D01*
X117276029Y12316883D01*
X117270280Y12286564D01*
X117288658Y12253195D01*
X117308923Y12231077D01*
X117367889Y12195607D01*
X117432024Y12193121D01*
X117490926Y12220765D01*
X117534197Y12275680D01*
X117541936Y12295072D01*
X117579006Y12355636D01*
X117621654Y12381448D01*
X117680154Y12403529D01*
X117680154Y12319816D01*
X117674982Y12262850D01*
X117654723Y12214811D01*
X117612262Y12159654D01*
X117605951Y12152486D01*
X117558720Y12103415D01*
X117518121Y12077080D01*
X117467328Y12064965D01*
X117425220Y12060997D01*
X117349902Y12060009D01*
X117296286Y12072534D01*
X117262838Y12091131D01*
X117210268Y12132025D01*
X117173879Y12176252D01*
X117150850Y12231874D01*
X117138359Y12306953D01*
X117133587Y12409551D01*
X117133206Y12461624D01*
X117134501Y12524052D01*
X117252471Y12524052D01*
X117253839Y12490562D01*
X117257249Y12485077D01*
X117279753Y12492528D01*
X117328182Y12512247D01*
X117392908Y12540282D01*
X117406443Y12546308D01*
X117488244Y12587904D01*
X117533312Y12624462D01*
X117543217Y12658704D01*
X117519526Y12693352D01*
X117499960Y12708661D01*
X117429360Y12739279D01*
X117363280Y12734220D01*
X117307959Y12696849D01*
X117269636Y12630527D01*
X117257349Y12577884D01*
X117252471Y12524052D01*
X117134501Y12524052D01*
X117135730Y12583280D01*
X117145032Y12673290D01*
X117163460Y12738833D01*
X117193360Y12787088D01*
X117237080Y12825233D01*
X117256141Y12837560D01*
X117342726Y12869664D01*
X117437522Y12871684D01*
X117529224Y12846162D01*
G37*
X117529224Y12846162D02*
X117606528Y12795639D01*
X117643814Y12750410D01*
X117673353Y12668337D01*
X117675699Y12603393D01*
X117670385Y12516555D01*
X117470115Y12428897D01*
X117372739Y12384113D01*
X117309113Y12348087D01*
X117276029Y12316883D01*
X117270280Y12286564D01*
X117288658Y12253195D01*
X117308923Y12231077D01*
X117367889Y12195607D01*
X117432024Y12193121D01*
X117490926Y12220765D01*
X117534197Y12275680D01*
X117541936Y12295072D01*
X117579006Y12355636D01*
X117621654Y12381448D01*
X117680154Y12403529D01*
X117680154Y12319816D01*
X117674982Y12262850D01*
X117654723Y12214811D01*
X117612262Y12159654D01*
X117605951Y12152486D01*
X117558720Y12103415D01*
X117518121Y12077080D01*
X117467328Y12064965D01*
X117425220Y12060997D01*
X117349902Y12060009D01*
X117296286Y12072534D01*
X117262838Y12091131D01*
X117210268Y12132025D01*
X117173879Y12176252D01*
X117150850Y12231874D01*
X117138359Y12306953D01*
X117133587Y12409551D01*
X117133206Y12461624D01*
X117134501Y12524052D01*
X117252471Y12524052D01*
X117253839Y12490562D01*
X117257249Y12485077D01*
X117279753Y12492528D01*
X117328182Y12512247D01*
X117392908Y12540282D01*
X117406443Y12546308D01*
X117488244Y12587904D01*
X117533312Y12624462D01*
X117543217Y12658704D01*
X117519526Y12693352D01*
X117499960Y12708661D01*
X117429360Y12739279D01*
X117363280Y12734220D01*
X117307959Y12696849D01*
X117269636Y12630527D01*
X117257349Y12577884D01*
X117252471Y12524052D01*
X117134501Y12524052D01*
X117135730Y12583280D01*
X117145032Y12673290D01*
X117163460Y12738833D01*
X117193360Y12787088D01*
X117237080Y12825233D01*
X117256141Y12837560D01*
X117342726Y12869664D01*
X117437522Y12871684D01*
X117529224Y12846162D01*
G36*
X116854807Y12857218D02*
G01*
X116878161Y12847012D01*
X116933902Y12802866D01*
X116981569Y12739033D01*
X117011048Y12670913D01*
X117015846Y12637330D01*
X116999760Y12590444D01*
X116964475Y12565635D01*
X116926644Y12550613D01*
X116909321Y12547845D01*
X116900886Y12567934D01*
X116884230Y12611649D01*
X116876923Y12631402D01*
X116835948Y12699729D01*
X116776622Y12733809D01*
X116700552Y12732761D01*
X116694918Y12731419D01*
X116654305Y12712164D01*
X116624448Y12674625D01*
X116604055Y12614191D01*
X116591836Y12526249D01*
X116586500Y12406187D01*
X116586000Y12342302D01*
X116585752Y12241597D01*
X116584126Y12172946D01*
X116579801Y12129327D01*
X116571454Y12103718D01*
X116557765Y12089097D01*
X116537411Y12078442D01*
X116536234Y12077905D01*
X116497038Y12061333D01*
X116477619Y12055231D01*
X116474635Y12073681D01*
X116472081Y12124677D01*
X116470140Y12201692D01*
X116468997Y12298195D01*
X116468769Y12368816D01*
X116469932Y12505475D01*
X116474479Y12609149D01*
X116483999Y12685892D01*
X116500081Y12741754D01*
X116524313Y12782788D01*
X116558286Y12815046D01*
X116591833Y12837560D01*
X116672499Y12867524D01*
X116766381Y12874282D01*
X116854807Y12857218D01*
G37*
X116854807Y12857218D02*
X116878161Y12847012D01*
X116933902Y12802866D01*
X116981569Y12739033D01*
X117011048Y12670913D01*
X117015846Y12637330D01*
X116999760Y12590444D01*
X116964475Y12565635D01*
X116926644Y12550613D01*
X116909321Y12547845D01*
X116900886Y12567934D01*
X116884230Y12611649D01*
X116876923Y12631402D01*
X116835948Y12699729D01*
X116776622Y12733809D01*
X116700552Y12732761D01*
X116694918Y12731419D01*
X116654305Y12712164D01*
X116624448Y12674625D01*
X116604055Y12614191D01*
X116591836Y12526249D01*
X116586500Y12406187D01*
X116586000Y12342302D01*
X116585752Y12241597D01*
X116584126Y12172946D01*
X116579801Y12129327D01*
X116571454Y12103718D01*
X116557765Y12089097D01*
X116537411Y12078442D01*
X116536234Y12077905D01*
X116497038Y12061333D01*
X116477619Y12055231D01*
X116474635Y12073681D01*
X116472081Y12124677D01*
X116470140Y12201692D01*
X116468997Y12298195D01*
X116468769Y12368816D01*
X116469932Y12505475D01*
X116474479Y12609149D01*
X116483999Y12685892D01*
X116500081Y12741754D01*
X116524313Y12782788D01*
X116558286Y12815046D01*
X116591833Y12837560D01*
X116672499Y12867524D01*
X116766381Y12874282D01*
X116854807Y12857218D01*
G36*
X116171333Y12860472D02*
G01*
X116227590Y12834883D01*
X116271747Y12803876D01*
X116304101Y12769205D01*
X116326438Y12724480D01*
X116340546Y12663308D01*
X116348211Y12579299D01*
X116351220Y12466060D01*
X116351538Y12391491D01*
X116351538Y12100580D01*
X116301773Y12077905D01*
X116262576Y12061333D01*
X116243157Y12055231D01*
X116239442Y12073390D01*
X116236495Y12122352D01*
X116234691Y12193847D01*
X116234308Y12250615D01*
X116232661Y12332629D01*
X116228222Y12397691D01*
X116221740Y12437533D01*
X116216590Y12446000D01*
X116181977Y12437354D01*
X116127640Y12415177D01*
X116064722Y12385114D01*
X116004368Y12352808D01*
X115957721Y12323902D01*
X115935926Y12304039D01*
X115935839Y12303825D01*
X115937714Y12267065D01*
X115954525Y12231974D01*
X115984039Y12203472D01*
X116027116Y12193939D01*
X116063932Y12195050D01*
X116116074Y12195867D01*
X116143444Y12183651D01*
X116159882Y12151376D01*
X116161955Y12145290D01*
X116169081Y12099261D01*
X116150024Y12071313D01*
X116100353Y12057993D01*
X116046697Y12055530D01*
X115950142Y12073790D01*
X115900159Y12099869D01*
X115838429Y12161132D01*
X115805690Y12236330D01*
X115802753Y12315789D01*
X115830424Y12389833D01*
X115872047Y12436231D01*
X115913604Y12462207D01*
X115978922Y12495093D01*
X116055038Y12528443D01*
X116067726Y12533539D01*
X116151333Y12570435D01*
X116199530Y12602954D01*
X116215030Y12635282D01*
X116200550Y12671606D01*
X116175692Y12700000D01*
X116116939Y12734961D01*
X116052293Y12737583D01*
X115993008Y12710642D01*
X115950339Y12656912D01*
X115944739Y12643050D01*
X115912133Y12592064D01*
X115864530Y12554213D01*
X115804461Y12523150D01*
X115804461Y12611232D01*
X115807997Y12665049D01*
X115823156Y12707466D01*
X115856768Y12752721D01*
X115889035Y12787580D01*
X115939209Y12836938D01*
X115978193Y12863453D01*
X116020064Y12874089D01*
X116067460Y12875846D01*
X116171333Y12860472D01*
G37*
X116171333Y12860472D02*
X116227590Y12834883D01*
X116271747Y12803876D01*
X116304101Y12769205D01*
X116326438Y12724480D01*
X116340546Y12663308D01*
X116348211Y12579299D01*
X116351220Y12466060D01*
X116351538Y12391491D01*
X116351538Y12100580D01*
X116301773Y12077905D01*
X116262576Y12061333D01*
X116243157Y12055231D01*
X116239442Y12073390D01*
X116236495Y12122352D01*
X116234691Y12193847D01*
X116234308Y12250615D01*
X116232661Y12332629D01*
X116228222Y12397691D01*
X116221740Y12437533D01*
X116216590Y12446000D01*
X116181977Y12437354D01*
X116127640Y12415177D01*
X116064722Y12385114D01*
X116004368Y12352808D01*
X115957721Y12323902D01*
X115935926Y12304039D01*
X115935839Y12303825D01*
X115937714Y12267065D01*
X115954525Y12231974D01*
X115984039Y12203472D01*
X116027116Y12193939D01*
X116063932Y12195050D01*
X116116074Y12195867D01*
X116143444Y12183651D01*
X116159882Y12151376D01*
X116161955Y12145290D01*
X116169081Y12099261D01*
X116150024Y12071313D01*
X116100353Y12057993D01*
X116046697Y12055530D01*
X115950142Y12073790D01*
X115900159Y12099869D01*
X115838429Y12161132D01*
X115805690Y12236330D01*
X115802753Y12315789D01*
X115830424Y12389833D01*
X115872047Y12436231D01*
X115913604Y12462207D01*
X115978922Y12495093D01*
X116055038Y12528443D01*
X116067726Y12533539D01*
X116151333Y12570435D01*
X116199530Y12602954D01*
X116215030Y12635282D01*
X116200550Y12671606D01*
X116175692Y12700000D01*
X116116939Y12734961D01*
X116052293Y12737583D01*
X115993008Y12710642D01*
X115950339Y12656912D01*
X115944739Y12643050D01*
X115912133Y12592064D01*
X115864530Y12554213D01*
X115804461Y12523150D01*
X115804461Y12611232D01*
X115807997Y12665049D01*
X115823156Y12707466D01*
X115856768Y12752721D01*
X115889035Y12787580D01*
X115939209Y12836938D01*
X115978193Y12863453D01*
X116020064Y12874089D01*
X116067460Y12875846D01*
X116171333Y12860472D01*
G36*
X115679929Y12857338D02*
G01*
X115682911Y12805932D01*
X115685247Y12727808D01*
X115686749Y12629143D01*
X115687231Y12525657D01*
X115687231Y12175467D01*
X115625401Y12113637D01*
X115582793Y12075538D01*
X115545390Y12060105D01*
X115494270Y12061082D01*
X115473978Y12063567D01*
X115410554Y12070800D01*
X115358095Y12074945D01*
X115345308Y12075328D01*
X115302199Y12072824D01*
X115240544Y12066538D01*
X115216638Y12063567D01*
X115157922Y12058972D01*
X115118464Y12068954D01*
X115079338Y12099772D01*
X115065215Y12113637D01*
X115003385Y12175467D01*
X115003385Y12830497D01*
X115053150Y12853171D01*
X115096002Y12869966D01*
X115121073Y12875846D01*
X115127501Y12857264D01*
X115133509Y12805345D01*
X115138697Y12725828D01*
X115142664Y12624454D01*
X115144577Y12538808D01*
X115149923Y12201769D01*
X115196560Y12195175D01*
X115238976Y12199786D01*
X115259760Y12214713D01*
X115265570Y12242623D01*
X115270530Y12302075D01*
X115274246Y12385534D01*
X115276324Y12485468D01*
X115276624Y12536896D01*
X115276923Y12832946D01*
X115338454Y12854396D01*
X115382004Y12868980D01*
X115405694Y12875781D01*
X115406377Y12875846D01*
X115408754Y12857358D01*
X115411366Y12806094D01*
X115413995Y12728351D01*
X115416421Y12630426D01*
X115418115Y12538808D01*
X115423461Y12201769D01*
X115540692Y12201769D01*
X115546072Y12509254D01*
X115551451Y12816739D01*
X115608601Y12846293D01*
X115650797Y12866587D01*
X115675770Y12875796D01*
X115676491Y12875846D01*
X115679929Y12857338D01*
G37*
X115679929Y12857338D02*
X115682911Y12805932D01*
X115685247Y12727808D01*
X115686749Y12629143D01*
X115687231Y12525657D01*
X115687231Y12175467D01*
X115625401Y12113637D01*
X115582793Y12075538D01*
X115545390Y12060105D01*
X115494270Y12061082D01*
X115473978Y12063567D01*
X115410554Y12070800D01*
X115358095Y12074945D01*
X115345308Y12075328D01*
X115302199Y12072824D01*
X115240544Y12066538D01*
X115216638Y12063567D01*
X115157922Y12058972D01*
X115118464Y12068954D01*
X115079338Y12099772D01*
X115065215Y12113637D01*
X115003385Y12175467D01*
X115003385Y12830497D01*
X115053150Y12853171D01*
X115096002Y12869966D01*
X115121073Y12875846D01*
X115127501Y12857264D01*
X115133509Y12805345D01*
X115138697Y12725828D01*
X115142664Y12624454D01*
X115144577Y12538808D01*
X115149923Y12201769D01*
X115196560Y12195175D01*
X115238976Y12199786D01*
X115259760Y12214713D01*
X115265570Y12242623D01*
X115270530Y12302075D01*
X115274246Y12385534D01*
X115276324Y12485468D01*
X115276624Y12536896D01*
X115276923Y12832946D01*
X115338454Y12854396D01*
X115382004Y12868980D01*
X115405694Y12875781D01*
X115406377Y12875846D01*
X115408754Y12857358D01*
X115411366Y12806094D01*
X115413995Y12728351D01*
X115416421Y12630426D01*
X115418115Y12538808D01*
X115423461Y12201769D01*
X115540692Y12201769D01*
X115546072Y12509254D01*
X115551451Y12816739D01*
X115608601Y12846293D01*
X115650797Y12866587D01*
X115675770Y12875796D01*
X115676491Y12875846D01*
X115679929Y12857338D01*
G36*
X114886081Y12713711D02*
G01*
X114885833Y12567680D01*
X114884872Y12455345D01*
X114882794Y12371322D01*
X114879193Y12310231D01*
X114873665Y12266691D01*
X114865804Y12235321D01*
X114855207Y12210738D01*
X114847182Y12196706D01*
X114780728Y12120612D01*
X114696470Y12072916D01*
X114603249Y12055801D01*
X114509900Y12071454D01*
X114454312Y12099582D01*
X114395957Y12148240D01*
X114356186Y12207667D01*
X114332190Y12285493D01*
X114321161Y12389348D01*
X114319599Y12465538D01*
X114319809Y12471014D01*
X114456308Y12471014D01*
X114457141Y12383645D01*
X114460961Y12325808D01*
X114469746Y12287971D01*
X114485474Y12260602D01*
X114504266Y12239958D01*
X114567375Y12200110D01*
X114635137Y12196705D01*
X114699179Y12229975D01*
X114704164Y12234483D01*
X114725439Y12257933D01*
X114738779Y12285834D01*
X114746001Y12327359D01*
X114748923Y12391684D01*
X114749385Y12462800D01*
X114748383Y12552142D01*
X114744238Y12611742D01*
X114735236Y12650911D01*
X114719667Y12678960D01*
X114706902Y12693856D01*
X114647600Y12731425D01*
X114579301Y12735943D01*
X114514110Y12707247D01*
X114501528Y12696594D01*
X114480111Y12672937D01*
X114466744Y12644749D01*
X114459566Y12602755D01*
X114456719Y12537681D01*
X114456308Y12471014D01*
X114319809Y12471014D01*
X114324322Y12588235D01*
X114340362Y12680423D01*
X114370528Y12749731D01*
X114417629Y12803789D01*
X114454312Y12831495D01*
X114520990Y12861428D01*
X114598272Y12875322D01*
X114670110Y12871603D01*
X114710308Y12856600D01*
X114726082Y12852330D01*
X114736550Y12868250D01*
X114743856Y12910911D01*
X114749385Y12975894D01*
X114755437Y13048268D01*
X114763844Y13091813D01*
X114779141Y13116713D01*
X114805864Y13133155D01*
X114822654Y13140436D01*
X114886154Y13167037D01*
X114886081Y12713711D01*
G37*
X114886081Y12713711D02*
X114885833Y12567680D01*
X114884872Y12455345D01*
X114882794Y12371322D01*
X114879193Y12310231D01*
X114873665Y12266691D01*
X114865804Y12235321D01*
X114855207Y12210738D01*
X114847182Y12196706D01*
X114780728Y12120612D01*
X114696470Y12072916D01*
X114603249Y12055801D01*
X114509900Y12071454D01*
X114454312Y12099582D01*
X114395957Y12148240D01*
X114356186Y12207667D01*
X114332190Y12285493D01*
X114321161Y12389348D01*
X114319599Y12465538D01*
X114319809Y12471014D01*
X114456308Y12471014D01*
X114457141Y12383645D01*
X114460961Y12325808D01*
X114469746Y12287971D01*
X114485474Y12260602D01*
X114504266Y12239958D01*
X114567375Y12200110D01*
X114635137Y12196705D01*
X114699179Y12229975D01*
X114704164Y12234483D01*
X114725439Y12257933D01*
X114738779Y12285834D01*
X114746001Y12327359D01*
X114748923Y12391684D01*
X114749385Y12462800D01*
X114748383Y12552142D01*
X114744238Y12611742D01*
X114735236Y12650911D01*
X114719667Y12678960D01*
X114706902Y12693856D01*
X114647600Y12731425D01*
X114579301Y12735943D01*
X114514110Y12707247D01*
X114501528Y12696594D01*
X114480111Y12672937D01*
X114466744Y12644749D01*
X114459566Y12602755D01*
X114456719Y12537681D01*
X114456308Y12471014D01*
X114319809Y12471014D01*
X114324322Y12588235D01*
X114340362Y12680423D01*
X114370528Y12749731D01*
X114417629Y12803789D01*
X114454312Y12831495D01*
X114520990Y12861428D01*
X114598272Y12875322D01*
X114670110Y12871603D01*
X114710308Y12856600D01*
X114726082Y12852330D01*
X114736550Y12868250D01*
X114743856Y12910911D01*
X114749385Y12975894D01*
X114755437Y13048268D01*
X114763844Y13091813D01*
X114779141Y13116713D01*
X114805864Y13133155D01*
X114822654Y13140436D01*
X114886154Y13167037D01*
X114886081Y12713711D01*
G36*
X113997362Y12869330D02*
G01*
X114086117Y12836579D01*
X114158022Y12778650D01*
X114186144Y12737872D01*
X114216802Y12663046D01*
X114216165Y12608942D01*
X114183987Y12572554D01*
X114172081Y12566367D01*
X114120675Y12547075D01*
X114094422Y12552018D01*
X114085530Y12584413D01*
X114085077Y12602308D01*
X114068797Y12668141D01*
X114026365Y12714193D01*
X113967388Y12736436D01*
X113901475Y12730839D01*
X113847895Y12701771D01*
X113829798Y12685190D01*
X113816971Y12665075D01*
X113808306Y12634668D01*
X113802696Y12587212D01*
X113799035Y12515950D01*
X113796215Y12414125D01*
X113795484Y12381885D01*
X113792820Y12271590D01*
X113789792Y12193964D01*
X113785250Y12142604D01*
X113778046Y12111110D01*
X113767033Y12093080D01*
X113751060Y12082112D01*
X113740834Y12077267D01*
X113697406Y12060699D01*
X113671842Y12055231D01*
X113663395Y12073493D01*
X113658239Y12128704D01*
X113656346Y12221501D01*
X113657689Y12352522D01*
X113658107Y12372731D01*
X113661058Y12492267D01*
X113664548Y12579551D01*
X113669514Y12641409D01*
X113676893Y12684664D01*
X113687624Y12716140D01*
X113702645Y12742661D01*
X113710502Y12754025D01*
X113755553Y12804308D01*
X113805940Y12843419D01*
X113812108Y12846833D01*
X113902458Y12873788D01*
X113997362Y12869330D01*
G37*
X113997362Y12869330D02*
X114086117Y12836579D01*
X114158022Y12778650D01*
X114186144Y12737872D01*
X114216802Y12663046D01*
X114216165Y12608942D01*
X114183987Y12572554D01*
X114172081Y12566367D01*
X114120675Y12547075D01*
X114094422Y12552018D01*
X114085530Y12584413D01*
X114085077Y12602308D01*
X114068797Y12668141D01*
X114026365Y12714193D01*
X113967388Y12736436D01*
X113901475Y12730839D01*
X113847895Y12701771D01*
X113829798Y12685190D01*
X113816971Y12665075D01*
X113808306Y12634668D01*
X113802696Y12587212D01*
X113799035Y12515950D01*
X113796215Y12414125D01*
X113795484Y12381885D01*
X113792820Y12271590D01*
X113789792Y12193964D01*
X113785250Y12142604D01*
X113778046Y12111110D01*
X113767033Y12093080D01*
X113751060Y12082112D01*
X113740834Y12077267D01*
X113697406Y12060699D01*
X113671842Y12055231D01*
X113663395Y12073493D01*
X113658239Y12128704D01*
X113656346Y12221501D01*
X113657689Y12352522D01*
X113658107Y12372731D01*
X113661058Y12492267D01*
X113664548Y12579551D01*
X113669514Y12641409D01*
X113676893Y12684664D01*
X113687624Y12716140D01*
X113702645Y12742661D01*
X113710502Y12754025D01*
X113755553Y12804308D01*
X113805940Y12843419D01*
X113812108Y12846833D01*
X113902458Y12873788D01*
X113997362Y12869330D01*
G36*
X113337501Y12867697D02*
G01*
X113414060Y12839267D01*
X113414936Y12838721D01*
X113462285Y12803873D01*
X113497241Y12763148D01*
X113521825Y12710075D01*
X113538062Y12638186D01*
X113547975Y12541008D01*
X113553586Y12412072D01*
X113554077Y12393702D01*
X113561141Y12116713D01*
X113501695Y12085972D01*
X113458681Y12065198D01*
X113432710Y12055354D01*
X113431509Y12055231D01*
X113427014Y12073394D01*
X113423444Y12122388D01*
X113421248Y12193969D01*
X113420769Y12251932D01*
X113420758Y12345830D01*
X113416466Y12404797D01*
X113401503Y12432921D01*
X113369482Y12434294D01*
X113314014Y12413002D01*
X113230269Y12373864D01*
X113168689Y12341357D01*
X113137017Y12313155D01*
X113127706Y12282418D01*
X113127692Y12280896D01*
X113143057Y12227946D01*
X113188547Y12199340D01*
X113258166Y12195197D01*
X113308313Y12195916D01*
X113334754Y12181473D01*
X113351243Y12146782D01*
X113360733Y12102584D01*
X113347057Y12077507D01*
X113341907Y12073918D01*
X113293425Y12059504D01*
X113225531Y12057463D01*
X113155612Y12067017D01*
X113106068Y12084478D01*
X113037570Y12142636D01*
X112998634Y12223592D01*
X112990923Y12286840D01*
X112996807Y12343889D01*
X113018101Y12390458D01*
X113060265Y12431819D01*
X113128759Y12473245D01*
X113229044Y12520007D01*
X113235154Y12522650D01*
X113325490Y12564383D01*
X113381235Y12598609D01*
X113405129Y12629365D01*
X113399913Y12660689D01*
X113368328Y12696617D01*
X113358883Y12704884D01*
X113295617Y12736942D01*
X113230064Y12735593D01*
X113172972Y12704162D01*
X113135093Y12645976D01*
X113131574Y12634554D01*
X113097300Y12579163D01*
X113053809Y12552482D01*
X112990923Y12526040D01*
X112990923Y12594452D01*
X113010052Y12693890D01*
X113066831Y12785098D01*
X113096378Y12815611D01*
X113163542Y12854772D01*
X113248956Y12872500D01*
X113337501Y12867697D01*
G37*
X113337501Y12867697D02*
X113414060Y12839267D01*
X113414936Y12838721D01*
X113462285Y12803873D01*
X113497241Y12763148D01*
X113521825Y12710075D01*
X113538062Y12638186D01*
X113547975Y12541008D01*
X113553586Y12412072D01*
X113554077Y12393702D01*
X113561141Y12116713D01*
X113501695Y12085972D01*
X113458681Y12065198D01*
X113432710Y12055354D01*
X113431509Y12055231D01*
X113427014Y12073394D01*
X113423444Y12122388D01*
X113421248Y12193969D01*
X113420769Y12251932D01*
X113420758Y12345830D01*
X113416466Y12404797D01*
X113401503Y12432921D01*
X113369482Y12434294D01*
X113314014Y12413002D01*
X113230269Y12373864D01*
X113168689Y12341357D01*
X113137017Y12313155D01*
X113127706Y12282418D01*
X113127692Y12280896D01*
X113143057Y12227946D01*
X113188547Y12199340D01*
X113258166Y12195197D01*
X113308313Y12195916D01*
X113334754Y12181473D01*
X113351243Y12146782D01*
X113360733Y12102584D01*
X113347057Y12077507D01*
X113341907Y12073918D01*
X113293425Y12059504D01*
X113225531Y12057463D01*
X113155612Y12067017D01*
X113106068Y12084478D01*
X113037570Y12142636D01*
X112998634Y12223592D01*
X112990923Y12286840D01*
X112996807Y12343889D01*
X113018101Y12390458D01*
X113060265Y12431819D01*
X113128759Y12473245D01*
X113229044Y12520007D01*
X113235154Y12522650D01*
X113325490Y12564383D01*
X113381235Y12598609D01*
X113405129Y12629365D01*
X113399913Y12660689D01*
X113368328Y12696617D01*
X113358883Y12704884D01*
X113295617Y12736942D01*
X113230064Y12735593D01*
X113172972Y12704162D01*
X113135093Y12645976D01*
X113131574Y12634554D01*
X113097300Y12579163D01*
X113053809Y12552482D01*
X112990923Y12526040D01*
X112990923Y12594452D01*
X113010052Y12693890D01*
X113066831Y12785098D01*
X113096378Y12815611D01*
X113163542Y12854772D01*
X113248956Y12872500D01*
X113337501Y12867697D01*
G36*
X112443846Y13001880D02*
G01*
X112449572Y12922020D01*
X112456149Y12874961D01*
X112465262Y12854434D01*
X112478598Y12854171D01*
X112482923Y12856622D01*
X112540444Y12874364D01*
X112615268Y12873328D01*
X112691339Y12855090D01*
X112738918Y12831495D01*
X112787702Y12793802D01*
X112823364Y12751145D01*
X112847845Y12696943D01*
X112863087Y12624616D01*
X112871030Y12527581D01*
X112873616Y12399258D01*
X112873662Y12374642D01*
X112873692Y12098130D01*
X112812161Y12076680D01*
X112768459Y12062088D01*
X112744482Y12055294D01*
X112743777Y12055231D01*
X112741415Y12073655D01*
X112739406Y12124474D01*
X112737901Y12201007D01*
X112737053Y12296570D01*
X112736923Y12354671D01*
X112736651Y12469229D01*
X112735252Y12551333D01*
X112731849Y12607607D01*
X112725567Y12644674D01*
X112715529Y12669156D01*
X112700861Y12687675D01*
X112691702Y12696594D01*
X112628789Y12732534D01*
X112560136Y12735225D01*
X112497848Y12704830D01*
X112486329Y12693856D01*
X112469433Y12673221D01*
X112457714Y12648744D01*
X112450233Y12613353D01*
X112446054Y12559974D01*
X112444237Y12481534D01*
X112443846Y12373383D01*
X112443846Y12098130D01*
X112382315Y12076680D01*
X112338613Y12062088D01*
X112314636Y12055294D01*
X112313930Y12055231D01*
X112312126Y12073931D01*
X112310500Y12126678D01*
X112309117Y12208443D01*
X112308042Y12314195D01*
X112307340Y12438906D01*
X112307077Y12577545D01*
X112307077Y13112194D01*
X112434077Y13165764D01*
X112443846Y13001880D01*
G37*
X112443846Y13001880D02*
X112449572Y12922020D01*
X112456149Y12874961D01*
X112465262Y12854434D01*
X112478598Y12854171D01*
X112482923Y12856622D01*
X112540444Y12874364D01*
X112615268Y12873328D01*
X112691339Y12855090D01*
X112738918Y12831495D01*
X112787702Y12793802D01*
X112823364Y12751145D01*
X112847845Y12696943D01*
X112863087Y12624616D01*
X112871030Y12527581D01*
X112873616Y12399258D01*
X112873662Y12374642D01*
X112873692Y12098130D01*
X112812161Y12076680D01*
X112768459Y12062088D01*
X112744482Y12055294D01*
X112743777Y12055231D01*
X112741415Y12073655D01*
X112739406Y12124474D01*
X112737901Y12201007D01*
X112737053Y12296570D01*
X112736923Y12354671D01*
X112736651Y12469229D01*
X112735252Y12551333D01*
X112731849Y12607607D01*
X112725567Y12644674D01*
X112715529Y12669156D01*
X112700861Y12687675D01*
X112691702Y12696594D01*
X112628789Y12732534D01*
X112560136Y12735225D01*
X112497848Y12704830D01*
X112486329Y12693856D01*
X112469433Y12673221D01*
X112457714Y12648744D01*
X112450233Y12613353D01*
X112446054Y12559974D01*
X112444237Y12481534D01*
X112443846Y12373383D01*
X112443846Y12098130D01*
X112382315Y12076680D01*
X112338613Y12062088D01*
X112314636Y12055294D01*
X112313930Y12055231D01*
X112312126Y12073931D01*
X112310500Y12126678D01*
X112309117Y12208443D01*
X112308042Y12314195D01*
X112307340Y12438906D01*
X112307077Y12577545D01*
X112307077Y13112194D01*
X112434077Y13165764D01*
X112443846Y13001880D01*
G36*
X110818254Y12894255D02*
G01*
X110895286Y12842433D01*
X110954816Y12767588D01*
X110990378Y12672346D01*
X110997571Y12602244D01*
X110996754Y12572991D01*
X110989914Y12550593D01*
X110971112Y12530526D01*
X110934408Y12508267D01*
X110873862Y12479291D01*
X110783534Y12439073D01*
X110783077Y12438871D01*
X110699933Y12400790D01*
X110631753Y12366975D01*
X110585505Y12341067D01*
X110568158Y12326705D01*
X110568154Y12326589D01*
X110583443Y12295315D01*
X110619196Y12260843D01*
X110660242Y12236010D01*
X110681037Y12231077D01*
X110737770Y12248138D01*
X110786627Y12290867D01*
X110810465Y12337845D01*
X110833397Y12372478D01*
X110878318Y12411919D01*
X110931123Y12445991D01*
X110977710Y12464520D01*
X110987452Y12465538D01*
X110998418Y12448785D01*
X110999079Y12405961D01*
X110991020Y12348219D01*
X110975827Y12286711D01*
X110955086Y12232591D01*
X110954038Y12230490D01*
X110891621Y12143340D01*
X110810726Y12084061D01*
X110718856Y12054966D01*
X110623513Y12058366D01*
X110532198Y12096572D01*
X110528138Y12099259D01*
X110456306Y12164358D01*
X110409073Y12249295D01*
X110382934Y12360979D01*
X110379426Y12392357D01*
X110373213Y12540464D01*
X110380661Y12609532D01*
X110568154Y12609532D01*
X110570590Y12566448D01*
X110583914Y12553874D01*
X110617132Y12563281D01*
X110669494Y12585517D01*
X110728024Y12613390D01*
X110729479Y12614128D01*
X110779089Y12640223D01*
X110799000Y12657637D01*
X110794090Y12675893D01*
X110773416Y12699880D01*
X110720819Y12734594D01*
X110664177Y12737144D01*
X110613369Y12711881D01*
X110578276Y12663153D01*
X110568154Y12609532D01*
X110380661Y12609532D01*
X110385992Y12658964D01*
X110418778Y12752945D01*
X110464421Y12818785D01*
X110546802Y12885319D01*
X110637546Y12918324D01*
X110730185Y12920427D01*
X110818254Y12894255D01*
G37*
X110818254Y12894255D02*
X110895286Y12842433D01*
X110954816Y12767588D01*
X110990378Y12672346D01*
X110997571Y12602244D01*
X110996754Y12572991D01*
X110989914Y12550593D01*
X110971112Y12530526D01*
X110934408Y12508267D01*
X110873862Y12479291D01*
X110783534Y12439073D01*
X110783077Y12438871D01*
X110699933Y12400790D01*
X110631753Y12366975D01*
X110585505Y12341067D01*
X110568158Y12326705D01*
X110568154Y12326589D01*
X110583443Y12295315D01*
X110619196Y12260843D01*
X110660242Y12236010D01*
X110681037Y12231077D01*
X110737770Y12248138D01*
X110786627Y12290867D01*
X110810465Y12337845D01*
X110833397Y12372478D01*
X110878318Y12411919D01*
X110931123Y12445991D01*
X110977710Y12464520D01*
X110987452Y12465538D01*
X110998418Y12448785D01*
X110999079Y12405961D01*
X110991020Y12348219D01*
X110975827Y12286711D01*
X110955086Y12232591D01*
X110954038Y12230490D01*
X110891621Y12143340D01*
X110810726Y12084061D01*
X110718856Y12054966D01*
X110623513Y12058366D01*
X110532198Y12096572D01*
X110528138Y12099259D01*
X110456306Y12164358D01*
X110409073Y12249295D01*
X110382934Y12360979D01*
X110379426Y12392357D01*
X110373213Y12540464D01*
X110380661Y12609532D01*
X110568154Y12609532D01*
X110570590Y12566448D01*
X110583914Y12553874D01*
X110617132Y12563281D01*
X110669494Y12585517D01*
X110728024Y12613390D01*
X110729479Y12614128D01*
X110779089Y12640223D01*
X110799000Y12657637D01*
X110794090Y12675893D01*
X110773416Y12699880D01*
X110720819Y12734594D01*
X110664177Y12737144D01*
X110613369Y12711881D01*
X110578276Y12663153D01*
X110568154Y12609532D01*
X110380661Y12609532D01*
X110385992Y12658964D01*
X110418778Y12752945D01*
X110464421Y12818785D01*
X110546802Y12885319D01*
X110637546Y12918324D01*
X110730185Y12920427D01*
X110818254Y12894255D01*
G36*
X109300886Y12906744D02*
G01*
X109392464Y12858591D01*
X109460049Y12781095D01*
X109484057Y12731273D01*
X109502738Y12656467D01*
X109512301Y12561948D01*
X109513208Y12458790D01*
X109505921Y12358065D01*
X109490903Y12270847D01*
X109468615Y12208209D01*
X109461765Y12197421D01*
X109380632Y12116895D01*
X109284266Y12068664D01*
X109179701Y12054550D01*
X109073968Y12076371D01*
X109044543Y12089453D01*
X108987241Y12129769D01*
X108936950Y12183225D01*
X108932197Y12190005D01*
X108912878Y12222679D01*
X108900108Y12257606D01*
X108892564Y12303586D01*
X108888924Y12369416D01*
X108887865Y12463895D01*
X108887846Y12485077D01*
X108887894Y12491818D01*
X109083231Y12491818D01*
X109084368Y12402651D01*
X109088841Y12343480D01*
X109098246Y12305259D01*
X109114176Y12278947D01*
X109122308Y12270154D01*
X109169058Y12236739D01*
X109214447Y12238263D01*
X109260340Y12267248D01*
X109287712Y12298191D01*
X109303923Y12343357D01*
X109313026Y12414580D01*
X109313651Y12422886D01*
X109315204Y12551963D01*
X109298965Y12647828D01*
X109265152Y12709893D01*
X109213984Y12737568D01*
X109195720Y12739077D01*
X109147760Y12731487D01*
X109114953Y12705192D01*
X109094895Y12654905D01*
X109085178Y12575336D01*
X109083231Y12491818D01*
X108887894Y12491818D01*
X108888574Y12585751D01*
X108891629Y12656094D01*
X108898322Y12704837D01*
X108909960Y12740712D01*
X108927853Y12772452D01*
X108931808Y12778352D01*
X108998267Y12857896D01*
X109070685Y12904071D01*
X109158849Y12922401D01*
X109188787Y12923297D01*
X109300886Y12906744D01*
G37*
X109300886Y12906744D02*
X109392464Y12858591D01*
X109460049Y12781095D01*
X109484057Y12731273D01*
X109502738Y12656467D01*
X109512301Y12561948D01*
X109513208Y12458790D01*
X109505921Y12358065D01*
X109490903Y12270847D01*
X109468615Y12208209D01*
X109461765Y12197421D01*
X109380632Y12116895D01*
X109284266Y12068664D01*
X109179701Y12054550D01*
X109073968Y12076371D01*
X109044543Y12089453D01*
X108987241Y12129769D01*
X108936950Y12183225D01*
X108932197Y12190005D01*
X108912878Y12222679D01*
X108900108Y12257606D01*
X108892564Y12303586D01*
X108888924Y12369416D01*
X108887865Y12463895D01*
X108887846Y12485077D01*
X108887894Y12491818D01*
X109083231Y12491818D01*
X109084368Y12402651D01*
X109088841Y12343480D01*
X109098246Y12305259D01*
X109114176Y12278947D01*
X109122308Y12270154D01*
X109169058Y12236739D01*
X109214447Y12238263D01*
X109260340Y12267248D01*
X109287712Y12298191D01*
X109303923Y12343357D01*
X109313026Y12414580D01*
X109313651Y12422886D01*
X109315204Y12551963D01*
X109298965Y12647828D01*
X109265152Y12709893D01*
X109213984Y12737568D01*
X109195720Y12739077D01*
X109147760Y12731487D01*
X109114953Y12705192D01*
X109094895Y12654905D01*
X109085178Y12575336D01*
X109083231Y12491818D01*
X108887894Y12491818D01*
X108888574Y12585751D01*
X108891629Y12656094D01*
X108898322Y12704837D01*
X108909960Y12740712D01*
X108927853Y12772452D01*
X108931808Y12778352D01*
X108998267Y12857896D01*
X109070685Y12904071D01*
X109158849Y12922401D01*
X109188787Y12923297D01*
X109300886Y12906744D01*
G36*
X111555664Y12898911D02*
G01*
X111618367Y12862642D01*
X111661961Y12826642D01*
X111693845Y12788925D01*
X111715810Y12742801D01*
X111729649Y12681579D01*
X111737153Y12598569D01*
X111740117Y12487081D01*
X111740461Y12406938D01*
X111740461Y12111935D01*
X111574385Y12037485D01*
X111564615Y12360598D01*
X111560579Y12481271D01*
X111556344Y12568859D01*
X111551097Y12629350D01*
X111544025Y12668732D01*
X111534311Y12692993D01*
X111521144Y12708120D01*
X111516919Y12711394D01*
X111452909Y12736966D01*
X111388208Y12726847D01*
X111349692Y12700000D01*
X111334025Y12680976D01*
X111323180Y12656012D01*
X111316288Y12618166D01*
X111312479Y12560498D01*
X111310883Y12476065D01*
X111310615Y12388072D01*
X111310563Y12277677D01*
X111308672Y12199537D01*
X111302345Y12146835D01*
X111288983Y12112758D01*
X111265985Y12090489D01*
X111230754Y12073213D01*
X111183697Y12055262D01*
X111132303Y12035722D01*
X111138421Y12382515D01*
X111140884Y12507532D01*
X111143767Y12599918D01*
X111147898Y12666119D01*
X111154107Y12712580D01*
X111163226Y12745744D01*
X111176083Y12772056D01*
X111191584Y12795271D01*
X111266371Y12869431D01*
X111357628Y12912316D01*
X111456883Y12922588D01*
X111555664Y12898911D01*
G37*
X111555664Y12898911D02*
X111618367Y12862642D01*
X111661961Y12826642D01*
X111693845Y12788925D01*
X111715810Y12742801D01*
X111729649Y12681579D01*
X111737153Y12598569D01*
X111740117Y12487081D01*
X111740461Y12406938D01*
X111740461Y12111935D01*
X111574385Y12037485D01*
X111564615Y12360598D01*
X111560579Y12481271D01*
X111556344Y12568859D01*
X111551097Y12629350D01*
X111544025Y12668732D01*
X111534311Y12692993D01*
X111521144Y12708120D01*
X111516919Y12711394D01*
X111452909Y12736966D01*
X111388208Y12726847D01*
X111349692Y12700000D01*
X111334025Y12680976D01*
X111323180Y12656012D01*
X111316288Y12618166D01*
X111312479Y12560498D01*
X111310883Y12476065D01*
X111310615Y12388072D01*
X111310563Y12277677D01*
X111308672Y12199537D01*
X111302345Y12146835D01*
X111288983Y12112758D01*
X111265985Y12090489D01*
X111230754Y12073213D01*
X111183697Y12055262D01*
X111132303Y12035722D01*
X111138421Y12382515D01*
X111140884Y12507532D01*
X111143767Y12599918D01*
X111147898Y12666119D01*
X111154107Y12712580D01*
X111163226Y12745744D01*
X111176083Y12772056D01*
X111191584Y12795271D01*
X111266371Y12869431D01*
X111357628Y12912316D01*
X111456883Y12922588D01*
X111555664Y12898911D01*
G36*
X110052886Y12909495D02*
G01*
X110127539Y12872273D01*
X110193431Y12803739D01*
X110211577Y12778352D01*
X110231345Y12745134D01*
X110244172Y12709055D01*
X110251510Y12660902D01*
X110254813Y12591464D01*
X110255538Y12499794D01*
X110252263Y12374170D01*
X110240877Y12279846D01*
X110219041Y12209477D01*
X110184419Y12155714D01*
X110134670Y12111212D01*
X110131014Y12108577D01*
X110081985Y12081623D01*
X110022945Y12068288D01*
X109947859Y12065000D01*
X109825795Y12065000D01*
X109825744Y11946503D01*
X109824608Y11880508D01*
X109817686Y11841798D01*
X109799598Y11818581D01*
X109764962Y11799067D01*
X109756645Y11795080D01*
X109717720Y11776397D01*
X109687583Y11764597D01*
X109665174Y11763578D01*
X109649433Y11777239D01*
X109639302Y11809478D01*
X109633723Y11864196D01*
X109631635Y11945289D01*
X109631981Y12056656D01*
X109633700Y12202198D01*
X109634237Y12245731D01*
X109636172Y12395795D01*
X109637904Y12493958D01*
X109825692Y12493958D01*
X109826748Y12410636D01*
X109831438Y12356120D01*
X109842051Y12320163D01*
X109860872Y12292518D01*
X109873650Y12279035D01*
X109925890Y12239583D01*
X109972142Y12236372D01*
X110019867Y12268951D01*
X110021077Y12270154D01*
X110040494Y12295332D01*
X110052307Y12329553D01*
X110058265Y12382252D01*
X110060120Y12462869D01*
X110060154Y12480729D01*
X110055670Y12591825D01*
X110041074Y12668839D01*
X110014650Y12715853D01*
X109974683Y12736950D01*
X109951584Y12739077D01*
X109896762Y12729100D01*
X109859158Y12696248D01*
X109836523Y12636143D01*
X109826606Y12544402D01*
X109825692Y12493958D01*
X109637904Y12493958D01*
X109638222Y12511940D01*
X109640873Y12599321D01*
X109644606Y12663095D01*
X109649907Y12708418D01*
X109657258Y12740445D01*
X109667143Y12764332D01*
X109680046Y12785236D01*
X109685579Y12793102D01*
X109758969Y12867405D01*
X109851760Y12909533D01*
X109959096Y12921278D01*
X110052886Y12909495D01*
G37*
X110052886Y12909495D02*
X110127539Y12872273D01*
X110193431Y12803739D01*
X110211577Y12778352D01*
X110231345Y12745134D01*
X110244172Y12709055D01*
X110251510Y12660902D01*
X110254813Y12591464D01*
X110255538Y12499794D01*
X110252263Y12374170D01*
X110240877Y12279846D01*
X110219041Y12209477D01*
X110184419Y12155714D01*
X110134670Y12111212D01*
X110131014Y12108577D01*
X110081985Y12081623D01*
X110022945Y12068288D01*
X109947859Y12065000D01*
X109825795Y12065000D01*
X109825744Y11946503D01*
X109824608Y11880508D01*
X109817686Y11841798D01*
X109799598Y11818581D01*
X109764962Y11799067D01*
X109756645Y11795080D01*
X109717720Y11776397D01*
X109687583Y11764597D01*
X109665174Y11763578D01*
X109649433Y11777239D01*
X109639302Y11809478D01*
X109633723Y11864196D01*
X109631635Y11945289D01*
X109631981Y12056656D01*
X109633700Y12202198D01*
X109634237Y12245731D01*
X109636172Y12395795D01*
X109637904Y12493958D01*
X109825692Y12493958D01*
X109826748Y12410636D01*
X109831438Y12356120D01*
X109842051Y12320163D01*
X109860872Y12292518D01*
X109873650Y12279035D01*
X109925890Y12239583D01*
X109972142Y12236372D01*
X110019867Y12268951D01*
X110021077Y12270154D01*
X110040494Y12295332D01*
X110052307Y12329553D01*
X110058265Y12382252D01*
X110060120Y12462869D01*
X110060154Y12480729D01*
X110055670Y12591825D01*
X110041074Y12668839D01*
X110014650Y12715853D01*
X109974683Y12736950D01*
X109951584Y12739077D01*
X109896762Y12729100D01*
X109859158Y12696248D01*
X109836523Y12636143D01*
X109826606Y12544402D01*
X109825692Y12493958D01*
X109637904Y12493958D01*
X109638222Y12511940D01*
X109640873Y12599321D01*
X109644606Y12663095D01*
X109649907Y12708418D01*
X109657258Y12740445D01*
X109667143Y12764332D01*
X109680046Y12785236D01*
X109685579Y12793102D01*
X109758969Y12867405D01*
X109851760Y12909533D01*
X109959096Y12921278D01*
X110052886Y12909495D01*
D11*
X52302000Y26279600D02*
X52302000Y24479600D01*
X55522000Y24479600D02*
X55522000Y26929600D01*
X71542000Y26300000D02*
X71542000Y24500000D01*
X74762000Y24500000D02*
X74762000Y26950000D01*
X33888400Y26279600D02*
X33888400Y24479600D01*
X37108400Y24479600D02*
X37108400Y26929600D01*
X90592000Y26300000D02*
X90592000Y24500000D01*
X93812000Y24500000D02*
X93812000Y26950000D01*
X63021064Y14563600D02*
X61566936Y14563600D01*
X63021064Y16383600D02*
X61566936Y16383600D01*
X82261064Y14584000D02*
X80806936Y14584000D01*
X82261064Y16404000D02*
X80806936Y16404000D01*
X44607464Y14563600D02*
X43153336Y14563600D01*
X44607464Y16383600D02*
X43153336Y16383600D01*
X101311064Y14584000D02*
X99856936Y14584000D01*
X101311064Y16404000D02*
X99856936Y16404000D01*
X57362000Y18475600D02*
X57362000Y19975600D01*
X57362000Y19975600D02*
X57092000Y19975600D01*
X57092000Y19975600D02*
X57092000Y22805600D01*
X50462000Y18475600D02*
X50462000Y19975600D01*
X50462000Y19975600D02*
X50732000Y19975600D01*
X50732000Y19975600D02*
X50732000Y21075600D01*
X76602000Y18496000D02*
X76602000Y19996000D01*
X76602000Y19996000D02*
X76332000Y19996000D01*
X76332000Y19996000D02*
X76332000Y22826000D01*
X69702000Y18496000D02*
X69702000Y19996000D01*
X69702000Y19996000D02*
X69972000Y19996000D01*
X69972000Y19996000D02*
X69972000Y21096000D01*
X38948400Y18475600D02*
X38948400Y19975600D01*
X38948400Y19975600D02*
X38678400Y19975600D01*
X38678400Y19975600D02*
X38678400Y22805600D01*
X32048400Y18475600D02*
X32048400Y19975600D01*
X32048400Y19975600D02*
X32318400Y19975600D01*
X32318400Y19975600D02*
X32318400Y21075600D01*
X95652000Y18496000D02*
X95652000Y19996000D01*
X95652000Y19996000D02*
X95382000Y19996000D01*
X95382000Y19996000D02*
X95382000Y22826000D01*
X88752000Y18496000D02*
X88752000Y19996000D01*
X88752000Y19996000D02*
X89022000Y19996000D01*
X89022000Y19996000D02*
X89022000Y21096000D01*
X49662000Y3001600D02*
X52512000Y401600D01*
X52512000Y8701600D02*
X49662000Y6151600D01*
X65362000Y401600D02*
X65362000Y8701600D01*
X52512000Y401600D02*
X65362000Y401600D01*
X49662000Y6151600D02*
X49662000Y3001600D01*
X65362000Y8701600D02*
X52512000Y8701600D01*
X68902000Y3022000D02*
X71752000Y422000D01*
X71752000Y8722000D02*
X68902000Y6172000D01*
X84602000Y422000D02*
X84602000Y8722000D01*
X71752000Y422000D02*
X84602000Y422000D01*
X68902000Y6172000D02*
X68902000Y3022000D01*
X84602000Y8722000D02*
X71752000Y8722000D01*
X31248400Y3001600D02*
X34098400Y401600D01*
X34098400Y8701600D02*
X31248400Y6151600D01*
X46948400Y401600D02*
X46948400Y8701600D01*
X34098400Y401600D02*
X46948400Y401600D01*
X31248400Y6151600D02*
X31248400Y3001600D01*
X46948400Y8701600D02*
X34098400Y8701600D01*
X87952000Y3022000D02*
X90802000Y422000D01*
X90802000Y8722000D02*
X87952000Y6172000D01*
X103652000Y422000D02*
X103652000Y8722000D01*
X90802000Y422000D02*
X103652000Y422000D01*
X87952000Y6172000D02*
X87952000Y3022000D01*
X103652000Y8722000D02*
X90802000Y8722000D01*
X60830000Y21283600D02*
X60830000Y21127600D01*
X60830000Y18967600D02*
X60830000Y18811600D01*
X63431130Y18967763D02*
G75*
G02*
X61349039Y18967600I-1041130J1079837D01*
G01*
X63431130Y21127437D02*
G75*
G03*
X61349039Y21127600I-1041130J-1079837D01*
G01*
X64062335Y18968992D02*
G75*
G02*
X60830000Y18812084I-1672335J1078608D01*
G01*
X64062335Y21126208D02*
G75*
G03*
X60830000Y21283116I-1672335J-1078608D01*
G01*
X80070000Y21304000D02*
X80070000Y21148000D01*
X80070000Y18988000D02*
X80070000Y18832000D01*
X82671130Y18988163D02*
G75*
G02*
X80589039Y18988000I-1041130J1079837D01*
G01*
X82671130Y21147837D02*
G75*
G03*
X80589039Y21148000I-1041130J-1079837D01*
G01*
X83302335Y18989392D02*
G75*
G02*
X80070000Y18832484I-1672335J1078608D01*
G01*
X83302335Y21146608D02*
G75*
G03*
X80070000Y21303516I-1672335J-1078608D01*
G01*
X42416400Y21283600D02*
X42416400Y21127600D01*
X42416400Y18967600D02*
X42416400Y18811600D01*
X45017530Y18967763D02*
G75*
G02*
X42935439Y18967600I-1041130J1079837D01*
G01*
X45017530Y21127437D02*
G75*
G03*
X42935439Y21127600I-1041130J-1079837D01*
G01*
X45648735Y18968992D02*
G75*
G02*
X42416400Y18812084I-1672335J1078608D01*
G01*
X45648735Y21126208D02*
G75*
G03*
X42416400Y21283116I-1672335J-1078608D01*
G01*
X99120000Y21304000D02*
X99120000Y21148000D01*
X99120000Y18988000D02*
X99120000Y18832000D01*
X101721130Y18988163D02*
G75*
G02*
X99639039Y18988000I-1041130J1079837D01*
G01*
X101721130Y21147837D02*
G75*
G03*
X99639039Y21148000I-1041130J-1079837D01*
G01*
X102352335Y18989392D02*
G75*
G02*
X99120000Y18832484I-1672335J1078608D01*
G01*
X102352335Y21146608D02*
G75*
G03*
X99120000Y21303516I-1672335J-1078608D01*
G01*
X54978748Y29845600D02*
X56401252Y29845600D01*
X54978748Y28025600D02*
X56401252Y28025600D01*
X74218748Y29866000D02*
X75641252Y29866000D01*
X74218748Y28046000D02*
X75641252Y28046000D01*
X36565148Y29845600D02*
X37987652Y29845600D01*
X36565148Y28025600D02*
X37987652Y28025600D01*
X93268748Y29866000D02*
X94691252Y29866000D01*
X93268748Y28046000D02*
X94691252Y28046000D01*
X61121936Y45868000D02*
X62576064Y45868000D01*
X61121936Y44048000D02*
X62576064Y44048000D01*
X63153936Y37740000D02*
X64608064Y37740000D01*
X63153936Y35920000D02*
X64608064Y35920000D01*
X57328000Y38108000D02*
X61213000Y38108000D01*
X61213000Y38108000D02*
X61213000Y40378000D01*
X61213000Y40378000D02*
X57328000Y40378000D01*
X57328000Y35695000D02*
X61213000Y35695000D01*
X61213000Y35695000D02*
X61213000Y37965000D01*
X61213000Y37965000D02*
X57328000Y37965000D01*
X73440936Y46401400D02*
X74895064Y46401400D01*
X73440936Y44581400D02*
X74895064Y44581400D01*
X79848064Y42651000D02*
X78393936Y42651000D01*
X79848064Y44471000D02*
X78393936Y44471000D01*
X63153936Y40153000D02*
X64608064Y40153000D01*
X63153936Y38333000D02*
X64608064Y38333000D01*
X81209000Y47242000D02*
X80279000Y47242000D01*
X78049000Y47242000D02*
X78979000Y47242000D01*
X78049000Y47242000D02*
X78049000Y45082000D01*
X81209000Y47242000D02*
X81209000Y45782000D01*
X72080000Y41785000D02*
X73010000Y41785000D01*
X75240000Y41785000D02*
X74310000Y41785000D01*
X75240000Y41785000D02*
X75240000Y43945000D01*
X72080000Y41785000D02*
X72080000Y43245000D01*
X88035000Y34969000D02*
X88035000Y34189000D01*
X88035000Y34189000D02*
X89035000Y34189000D01*
X106275000Y34969000D02*
X106275000Y34189000D01*
X106275000Y34189000D02*
X105275000Y34189000D01*
X88035000Y59934000D02*
X106275000Y59934000D01*
X106275000Y59934000D02*
X106275000Y53514000D01*
X88035000Y59934000D02*
X88035000Y53514000D01*
X88035000Y53514000D02*
X87655000Y53514000D01*
X51924000Y56647000D02*
X50664000Y56647000D01*
X45104000Y56647000D02*
X46364000Y56647000D01*
X51924000Y52887000D02*
X51924000Y56647000D01*
X45104000Y50637000D02*
X45104000Y56647000D01*
X34772000Y59114000D02*
X32172000Y56264000D01*
X40472000Y56264000D02*
X37922000Y59114000D01*
X32172000Y43414000D02*
X40472000Y43414000D01*
X32172000Y56264000D02*
X32172000Y43414000D01*
X37922000Y59114000D02*
X34772000Y59114000D01*
X40472000Y43414000D02*
X40472000Y56264000D01*
D13*
X46823333Y45290857D02*
X46775714Y45243238D01*
X46632857Y45195619D01*
X46537619Y45195619D01*
X46394761Y45243238D01*
X46299523Y45338476D01*
X46251904Y45433714D01*
X46204285Y45624190D01*
X46204285Y45767047D01*
X46251904Y45957523D01*
X46299523Y46052761D01*
X46394761Y46148000D01*
X46537619Y46195619D01*
X46632857Y46195619D01*
X46775714Y46148000D01*
X46823333Y46100380D01*
X47156666Y46195619D02*
X47823333Y46195619D01*
X47394761Y45195619D01*
X52157333Y45235857D02*
X52109714Y45188238D01*
X51966857Y45140619D01*
X51871619Y45140619D01*
X51728761Y45188238D01*
X51633523Y45283476D01*
X51585904Y45378714D01*
X51538285Y45569190D01*
X51538285Y45712047D01*
X51585904Y45902523D01*
X51633523Y45997761D01*
X51728761Y46093000D01*
X51871619Y46140619D01*
X51966857Y46140619D01*
X52109714Y46093000D01*
X52157333Y46045380D01*
X53014476Y46140619D02*
X52824000Y46140619D01*
X52728761Y46093000D01*
X52681142Y46045380D01*
X52585904Y45902523D01*
X52538285Y45712047D01*
X52538285Y45331095D01*
X52585904Y45235857D01*
X52633523Y45188238D01*
X52728761Y45140619D01*
X52919238Y45140619D01*
X53014476Y45188238D01*
X53062095Y45235857D01*
X53109714Y45331095D01*
X53109714Y45569190D01*
X53062095Y45664428D01*
X53014476Y45712047D01*
X52919238Y45759666D01*
X52728761Y45759666D01*
X52633523Y45712047D01*
X52585904Y45664428D01*
X52538285Y45569190D01*
X87043142Y49363333D02*
X87090761Y49315714D01*
X87138380Y49172857D01*
X87138380Y49077619D01*
X87090761Y48934761D01*
X86995523Y48839523D01*
X86900285Y48791904D01*
X86709809Y48744285D01*
X86566952Y48744285D01*
X86376476Y48791904D01*
X86281238Y48839523D01*
X86186000Y48934761D01*
X86138380Y49077619D01*
X86138380Y49172857D01*
X86186000Y49315714D01*
X86233619Y49363333D01*
X87138380Y50315714D02*
X87138380Y49744285D01*
X87138380Y50030000D02*
X86138380Y50030000D01*
X86281238Y49934761D01*
X86376476Y49839523D01*
X86424095Y49744285D01*
X70318380Y45974095D02*
X71127904Y45974095D01*
X71223142Y46021714D01*
X71270761Y46069333D01*
X71318380Y46164571D01*
X71318380Y46355047D01*
X71270761Y46450285D01*
X71223142Y46497904D01*
X71127904Y46545523D01*
X70318380Y46545523D01*
X70413619Y46974095D02*
X70366000Y47021714D01*
X70318380Y47116952D01*
X70318380Y47355047D01*
X70366000Y47450285D01*
X70413619Y47497904D01*
X70508857Y47545523D01*
X70604095Y47545523D01*
X70746952Y47497904D01*
X71318380Y46926476D01*
X71318380Y47545523D01*
X67484666Y56109119D02*
X67484666Y55394833D01*
X67437047Y55251976D01*
X67341809Y55156738D01*
X67198952Y55109119D01*
X67103714Y55109119D01*
X68389428Y56109119D02*
X68198952Y56109119D01*
X68103714Y56061500D01*
X68056095Y56013880D01*
X67960857Y55871023D01*
X67913238Y55680547D01*
X67913238Y55299595D01*
X67960857Y55204357D01*
X68008476Y55156738D01*
X68103714Y55109119D01*
X68294190Y55109119D01*
X68389428Y55156738D01*
X68437047Y55204357D01*
X68484666Y55299595D01*
X68484666Y55537690D01*
X68437047Y55632928D01*
X68389428Y55680547D01*
X68294190Y55728166D01*
X68103714Y55728166D01*
X68008476Y55680547D01*
X67960857Y55632928D01*
X67913238Y55537690D01*
X56264380Y24617695D02*
X57073904Y24617695D01*
X57169142Y24665314D01*
X57216761Y24712933D01*
X57264380Y24808171D01*
X57264380Y24998647D01*
X57216761Y25093885D01*
X57169142Y25141504D01*
X57073904Y25189123D01*
X56264380Y25189123D01*
X56264380Y26093885D02*
X56264380Y25903409D01*
X56312000Y25808171D01*
X56359619Y25760552D01*
X56502476Y25665314D01*
X56692952Y25617695D01*
X57073904Y25617695D01*
X57169142Y25665314D01*
X57216761Y25712933D01*
X57264380Y25808171D01*
X57264380Y25998647D01*
X57216761Y26093885D01*
X57169142Y26141504D01*
X57073904Y26189123D01*
X56835809Y26189123D01*
X56740571Y26141504D01*
X56692952Y26093885D01*
X56645333Y25998647D01*
X56645333Y25808171D01*
X56692952Y25712933D01*
X56740571Y25665314D01*
X56835809Y25617695D01*
X75504380Y24638095D02*
X76313904Y24638095D01*
X76409142Y24685714D01*
X76456761Y24733333D01*
X76504380Y24828571D01*
X76504380Y25019047D01*
X76456761Y25114285D01*
X76409142Y25161904D01*
X76313904Y25209523D01*
X75504380Y25209523D01*
X75504380Y26161904D02*
X75504380Y25685714D01*
X75980571Y25638095D01*
X75932952Y25685714D01*
X75885333Y25780952D01*
X75885333Y26019047D01*
X75932952Y26114285D01*
X75980571Y26161904D01*
X76075809Y26209523D01*
X76313904Y26209523D01*
X76409142Y26161904D01*
X76456761Y26114285D01*
X76504380Y26019047D01*
X76504380Y25780952D01*
X76456761Y25685714D01*
X76409142Y25638095D01*
X37850780Y24617695D02*
X38660304Y24617695D01*
X38755542Y24665314D01*
X38803161Y24712933D01*
X38850780Y24808171D01*
X38850780Y24998647D01*
X38803161Y25093885D01*
X38755542Y25141504D01*
X38660304Y25189123D01*
X37850780Y25189123D01*
X38184114Y26093885D02*
X38850780Y26093885D01*
X37803161Y25855790D02*
X38517447Y25617695D01*
X38517447Y26236742D01*
X94554380Y24638095D02*
X95363904Y24638095D01*
X95459142Y24685714D01*
X95506761Y24733333D01*
X95554380Y24828571D01*
X95554380Y25019047D01*
X95506761Y25114285D01*
X95459142Y25161904D01*
X95363904Y25209523D01*
X94554380Y25209523D01*
X94554380Y25590476D02*
X94554380Y26209523D01*
X94935333Y25876190D01*
X94935333Y26019047D01*
X94982952Y26114285D01*
X95030571Y26161904D01*
X95125809Y26209523D01*
X95363904Y26209523D01*
X95459142Y26161904D01*
X95506761Y26114285D01*
X95554380Y26019047D01*
X95554380Y25733333D01*
X95506761Y25638095D01*
X95459142Y25590476D01*
X62127333Y13201219D02*
X61794000Y13677409D01*
X61555904Y13201219D02*
X61555904Y14201219D01*
X61936857Y14201219D01*
X62032095Y14153600D01*
X62079714Y14105980D01*
X62127333Y14010742D01*
X62127333Y13867885D01*
X62079714Y13772647D01*
X62032095Y13725028D01*
X61936857Y13677409D01*
X61555904Y13677409D01*
X62603523Y13201219D02*
X62794000Y13201219D01*
X62889238Y13248838D01*
X62936857Y13296457D01*
X63032095Y13439314D01*
X63079714Y13629790D01*
X63079714Y14010742D01*
X63032095Y14105980D01*
X62984476Y14153600D01*
X62889238Y14201219D01*
X62698761Y14201219D01*
X62603523Y14153600D01*
X62555904Y14105980D01*
X62508285Y14010742D01*
X62508285Y13772647D01*
X62555904Y13677409D01*
X62603523Y13629790D01*
X62698761Y13582171D01*
X62889238Y13582171D01*
X62984476Y13629790D01*
X63032095Y13677409D01*
X63079714Y13772647D01*
X81367333Y13221619D02*
X81034000Y13697809D01*
X80795904Y13221619D02*
X80795904Y14221619D01*
X81176857Y14221619D01*
X81272095Y14174000D01*
X81319714Y14126380D01*
X81367333Y14031142D01*
X81367333Y13888285D01*
X81319714Y13793047D01*
X81272095Y13745428D01*
X81176857Y13697809D01*
X80795904Y13697809D01*
X81938761Y13793047D02*
X81843523Y13840666D01*
X81795904Y13888285D01*
X81748285Y13983523D01*
X81748285Y14031142D01*
X81795904Y14126380D01*
X81843523Y14174000D01*
X81938761Y14221619D01*
X82129238Y14221619D01*
X82224476Y14174000D01*
X82272095Y14126380D01*
X82319714Y14031142D01*
X82319714Y13983523D01*
X82272095Y13888285D01*
X82224476Y13840666D01*
X82129238Y13793047D01*
X81938761Y13793047D01*
X81843523Y13745428D01*
X81795904Y13697809D01*
X81748285Y13602571D01*
X81748285Y13412095D01*
X81795904Y13316857D01*
X81843523Y13269238D01*
X81938761Y13221619D01*
X82129238Y13221619D01*
X82224476Y13269238D01*
X82272095Y13316857D01*
X82319714Y13412095D01*
X82319714Y13602571D01*
X82272095Y13697809D01*
X82224476Y13745428D01*
X82129238Y13793047D01*
X43713733Y13201219D02*
X43380400Y13677409D01*
X43142304Y13201219D02*
X43142304Y14201219D01*
X43523257Y14201219D01*
X43618495Y14153600D01*
X43666114Y14105980D01*
X43713733Y14010742D01*
X43713733Y13867885D01*
X43666114Y13772647D01*
X43618495Y13725028D01*
X43523257Y13677409D01*
X43142304Y13677409D01*
X44047066Y14201219D02*
X44713733Y14201219D01*
X44285161Y13201219D01*
X100417333Y13221619D02*
X100084000Y13697809D01*
X99845904Y13221619D02*
X99845904Y14221619D01*
X100226857Y14221619D01*
X100322095Y14174000D01*
X100369714Y14126380D01*
X100417333Y14031142D01*
X100417333Y13888285D01*
X100369714Y13793047D01*
X100322095Y13745428D01*
X100226857Y13697809D01*
X99845904Y13697809D01*
X101274476Y14221619D02*
X101084000Y14221619D01*
X100988761Y14174000D01*
X100941142Y14126380D01*
X100845904Y13983523D01*
X100798285Y13793047D01*
X100798285Y13412095D01*
X100845904Y13316857D01*
X100893523Y13269238D01*
X100988761Y13221619D01*
X101179238Y13221619D01*
X101274476Y13269238D01*
X101322095Y13316857D01*
X101369714Y13412095D01*
X101369714Y13650190D01*
X101322095Y13745428D01*
X101274476Y13793047D01*
X101179238Y13840666D01*
X100988761Y13840666D01*
X100893523Y13793047D01*
X100845904Y13745428D01*
X100798285Y13650190D01*
X58959619Y17410361D02*
X58912000Y17315123D01*
X58816761Y17219885D01*
X58673904Y17077028D01*
X58626285Y16981790D01*
X58626285Y16886552D01*
X58864380Y16934171D02*
X58816761Y16838933D01*
X58721523Y16743695D01*
X58531047Y16696076D01*
X58197714Y16696076D01*
X58007238Y16743695D01*
X57912000Y16838933D01*
X57864380Y16934171D01*
X57864380Y17124647D01*
X57912000Y17219885D01*
X58007238Y17315123D01*
X58197714Y17362742D01*
X58531047Y17362742D01*
X58721523Y17315123D01*
X58816761Y17219885D01*
X58864380Y17124647D01*
X58864380Y16934171D01*
X57864380Y18219885D02*
X57864380Y18029409D01*
X57912000Y17934171D01*
X57959619Y17886552D01*
X58102476Y17791314D01*
X58292952Y17743695D01*
X58673904Y17743695D01*
X58769142Y17791314D01*
X58816761Y17838933D01*
X58864380Y17934171D01*
X58864380Y18124647D01*
X58816761Y18219885D01*
X58769142Y18267504D01*
X58673904Y18315123D01*
X58435809Y18315123D01*
X58340571Y18267504D01*
X58292952Y18219885D01*
X58245333Y18124647D01*
X58245333Y17934171D01*
X58292952Y17838933D01*
X58340571Y17791314D01*
X58435809Y17743695D01*
X78199619Y17430761D02*
X78152000Y17335523D01*
X78056761Y17240285D01*
X77913904Y17097428D01*
X77866285Y17002190D01*
X77866285Y16906952D01*
X78104380Y16954571D02*
X78056761Y16859333D01*
X77961523Y16764095D01*
X77771047Y16716476D01*
X77437714Y16716476D01*
X77247238Y16764095D01*
X77152000Y16859333D01*
X77104380Y16954571D01*
X77104380Y17145047D01*
X77152000Y17240285D01*
X77247238Y17335523D01*
X77437714Y17383142D01*
X77771047Y17383142D01*
X77961523Y17335523D01*
X78056761Y17240285D01*
X78104380Y17145047D01*
X78104380Y16954571D01*
X77104380Y18287904D02*
X77104380Y17811714D01*
X77580571Y17764095D01*
X77532952Y17811714D01*
X77485333Y17906952D01*
X77485333Y18145047D01*
X77532952Y18240285D01*
X77580571Y18287904D01*
X77675809Y18335523D01*
X77913904Y18335523D01*
X78009142Y18287904D01*
X78056761Y18240285D01*
X78104380Y18145047D01*
X78104380Y17906952D01*
X78056761Y17811714D01*
X78009142Y17764095D01*
X40546019Y17410361D02*
X40498400Y17315123D01*
X40403161Y17219885D01*
X40260304Y17077028D01*
X40212685Y16981790D01*
X40212685Y16886552D01*
X40450780Y16934171D02*
X40403161Y16838933D01*
X40307923Y16743695D01*
X40117447Y16696076D01*
X39784114Y16696076D01*
X39593638Y16743695D01*
X39498400Y16838933D01*
X39450780Y16934171D01*
X39450780Y17124647D01*
X39498400Y17219885D01*
X39593638Y17315123D01*
X39784114Y17362742D01*
X40117447Y17362742D01*
X40307923Y17315123D01*
X40403161Y17219885D01*
X40450780Y17124647D01*
X40450780Y16934171D01*
X39784114Y18219885D02*
X40450780Y18219885D01*
X39403161Y17981790D02*
X40117447Y17743695D01*
X40117447Y18362742D01*
X97249619Y17430761D02*
X97202000Y17335523D01*
X97106761Y17240285D01*
X96963904Y17097428D01*
X96916285Y17002190D01*
X96916285Y16906952D01*
X97154380Y16954571D02*
X97106761Y16859333D01*
X97011523Y16764095D01*
X96821047Y16716476D01*
X96487714Y16716476D01*
X96297238Y16764095D01*
X96202000Y16859333D01*
X96154380Y16954571D01*
X96154380Y17145047D01*
X96202000Y17240285D01*
X96297238Y17335523D01*
X96487714Y17383142D01*
X96821047Y17383142D01*
X97011523Y17335523D01*
X97106761Y17240285D01*
X97154380Y17145047D01*
X97154380Y16954571D01*
X96154380Y17716476D02*
X96154380Y18335523D01*
X96535333Y18002190D01*
X96535333Y18145047D01*
X96582952Y18240285D01*
X96630571Y18287904D01*
X96725809Y18335523D01*
X96963904Y18335523D01*
X97059142Y18287904D01*
X97106761Y18240285D01*
X97154380Y18145047D01*
X97154380Y17859333D01*
X97106761Y17764095D01*
X97059142Y17716476D01*
X57178666Y10399219D02*
X57178666Y9684933D01*
X57131047Y9542076D01*
X57035809Y9446838D01*
X56892952Y9399219D01*
X56797714Y9399219D01*
X58131047Y10399219D02*
X57654857Y10399219D01*
X57607238Y9923028D01*
X57654857Y9970647D01*
X57750095Y10018266D01*
X57988190Y10018266D01*
X58083428Y9970647D01*
X58131047Y9923028D01*
X58178666Y9827790D01*
X58178666Y9589695D01*
X58131047Y9494457D01*
X58083428Y9446838D01*
X57988190Y9399219D01*
X57750095Y9399219D01*
X57654857Y9446838D01*
X57607238Y9494457D01*
X76418666Y10419619D02*
X76418666Y9705333D01*
X76371047Y9562476D01*
X76275809Y9467238D01*
X76132952Y9419619D01*
X76037714Y9419619D01*
X77323428Y10086285D02*
X77323428Y9419619D01*
X77085333Y10467238D02*
X76847238Y9752952D01*
X77466285Y9752952D01*
X38765066Y10399219D02*
X38765066Y9684933D01*
X38717447Y9542076D01*
X38622209Y9446838D01*
X38479352Y9399219D01*
X38384114Y9399219D01*
X39193638Y10303980D02*
X39241257Y10351600D01*
X39336495Y10399219D01*
X39574590Y10399219D01*
X39669828Y10351600D01*
X39717447Y10303980D01*
X39765066Y10208742D01*
X39765066Y10113504D01*
X39717447Y9970647D01*
X39146019Y9399219D01*
X39765066Y9399219D01*
X95468666Y10419619D02*
X95468666Y9705333D01*
X95421047Y9562476D01*
X95325809Y9467238D01*
X95182952Y9419619D01*
X95087714Y9419619D01*
X96468666Y9419619D02*
X95897238Y9419619D01*
X96182952Y9419619D02*
X96182952Y10419619D01*
X96087714Y10276761D01*
X95992476Y10181523D01*
X95897238Y10133904D01*
X61651904Y22555219D02*
X61651904Y23555219D01*
X61890000Y23555219D01*
X62032857Y23507600D01*
X62128095Y23412361D01*
X62175714Y23317123D01*
X62223333Y23126647D01*
X62223333Y22983790D01*
X62175714Y22793314D01*
X62128095Y22698076D01*
X62032857Y22602838D01*
X61890000Y22555219D01*
X61651904Y22555219D01*
X63080476Y23555219D02*
X62890000Y23555219D01*
X62794761Y23507600D01*
X62747142Y23459980D01*
X62651904Y23317123D01*
X62604285Y23126647D01*
X62604285Y22745695D01*
X62651904Y22650457D01*
X62699523Y22602838D01*
X62794761Y22555219D01*
X62985238Y22555219D01*
X63080476Y22602838D01*
X63128095Y22650457D01*
X63175714Y22745695D01*
X63175714Y22983790D01*
X63128095Y23079028D01*
X63080476Y23126647D01*
X62985238Y23174266D01*
X62794761Y23174266D01*
X62699523Y23126647D01*
X62651904Y23079028D01*
X62604285Y22983790D01*
X80891904Y22575619D02*
X80891904Y23575619D01*
X81130000Y23575619D01*
X81272857Y23528000D01*
X81368095Y23432761D01*
X81415714Y23337523D01*
X81463333Y23147047D01*
X81463333Y23004190D01*
X81415714Y22813714D01*
X81368095Y22718476D01*
X81272857Y22623238D01*
X81130000Y22575619D01*
X80891904Y22575619D01*
X82368095Y23575619D02*
X81891904Y23575619D01*
X81844285Y23099428D01*
X81891904Y23147047D01*
X81987142Y23194666D01*
X82225238Y23194666D01*
X82320476Y23147047D01*
X82368095Y23099428D01*
X82415714Y23004190D01*
X82415714Y22766095D01*
X82368095Y22670857D01*
X82320476Y22623238D01*
X82225238Y22575619D01*
X81987142Y22575619D01*
X81891904Y22623238D01*
X81844285Y22670857D01*
X43238304Y22555219D02*
X43238304Y23555219D01*
X43476400Y23555219D01*
X43619257Y23507600D01*
X43714495Y23412361D01*
X43762114Y23317123D01*
X43809733Y23126647D01*
X43809733Y22983790D01*
X43762114Y22793314D01*
X43714495Y22698076D01*
X43619257Y22602838D01*
X43476400Y22555219D01*
X43238304Y22555219D01*
X44666876Y23221885D02*
X44666876Y22555219D01*
X44428780Y23602838D02*
X44190685Y22888552D01*
X44809733Y22888552D01*
X99941904Y22575619D02*
X99941904Y23575619D01*
X100180000Y23575619D01*
X100322857Y23528000D01*
X100418095Y23432761D01*
X100465714Y23337523D01*
X100513333Y23147047D01*
X100513333Y23004190D01*
X100465714Y22813714D01*
X100418095Y22718476D01*
X100322857Y22623238D01*
X100180000Y22575619D01*
X99941904Y22575619D01*
X100846666Y23575619D02*
X101465714Y23575619D01*
X101132380Y23194666D01*
X101275238Y23194666D01*
X101370476Y23147047D01*
X101418095Y23099428D01*
X101465714Y23004190D01*
X101465714Y22766095D01*
X101418095Y22670857D01*
X101370476Y22623238D01*
X101275238Y22575619D01*
X100989523Y22575619D01*
X100894285Y22623238D01*
X100846666Y22670857D01*
X55523333Y30428457D02*
X55475714Y30380838D01*
X55332857Y30333219D01*
X55237619Y30333219D01*
X55094761Y30380838D01*
X54999523Y30476076D01*
X54951904Y30571314D01*
X54904285Y30761790D01*
X54904285Y30904647D01*
X54951904Y31095123D01*
X54999523Y31190361D01*
X55094761Y31285600D01*
X55237619Y31333219D01*
X55332857Y31333219D01*
X55475714Y31285600D01*
X55523333Y31237980D01*
X56428095Y31333219D02*
X55951904Y31333219D01*
X55904285Y30857028D01*
X55951904Y30904647D01*
X56047142Y30952266D01*
X56285238Y30952266D01*
X56380476Y30904647D01*
X56428095Y30857028D01*
X56475714Y30761790D01*
X56475714Y30523695D01*
X56428095Y30428457D01*
X56380476Y30380838D01*
X56285238Y30333219D01*
X56047142Y30333219D01*
X55951904Y30380838D01*
X55904285Y30428457D01*
X74763333Y30448857D02*
X74715714Y30401238D01*
X74572857Y30353619D01*
X74477619Y30353619D01*
X74334761Y30401238D01*
X74239523Y30496476D01*
X74191904Y30591714D01*
X74144285Y30782190D01*
X74144285Y30925047D01*
X74191904Y31115523D01*
X74239523Y31210761D01*
X74334761Y31306000D01*
X74477619Y31353619D01*
X74572857Y31353619D01*
X74715714Y31306000D01*
X74763333Y31258380D01*
X75620476Y31020285D02*
X75620476Y30353619D01*
X75382380Y31401238D02*
X75144285Y30686952D01*
X75763333Y30686952D01*
X37109733Y30428457D02*
X37062114Y30380838D01*
X36919257Y30333219D01*
X36824019Y30333219D01*
X36681161Y30380838D01*
X36585923Y30476076D01*
X36538304Y30571314D01*
X36490685Y30761790D01*
X36490685Y30904647D01*
X36538304Y31095123D01*
X36585923Y31190361D01*
X36681161Y31285600D01*
X36824019Y31333219D01*
X36919257Y31333219D01*
X37062114Y31285600D01*
X37109733Y31237980D01*
X37443066Y31333219D02*
X38062114Y31333219D01*
X37728780Y30952266D01*
X37871638Y30952266D01*
X37966876Y30904647D01*
X38014495Y30857028D01*
X38062114Y30761790D01*
X38062114Y30523695D01*
X38014495Y30428457D01*
X37966876Y30380838D01*
X37871638Y30333219D01*
X37585923Y30333219D01*
X37490685Y30380838D01*
X37443066Y30428457D01*
X93813333Y30448857D02*
X93765714Y30401238D01*
X93622857Y30353619D01*
X93527619Y30353619D01*
X93384761Y30401238D01*
X93289523Y30496476D01*
X93241904Y30591714D01*
X93194285Y30782190D01*
X93194285Y30925047D01*
X93241904Y31115523D01*
X93289523Y31210761D01*
X93384761Y31306000D01*
X93527619Y31353619D01*
X93622857Y31353619D01*
X93765714Y31306000D01*
X93813333Y31258380D01*
X94194285Y31258380D02*
X94241904Y31306000D01*
X94337142Y31353619D01*
X94575238Y31353619D01*
X94670476Y31306000D01*
X94718095Y31258380D01*
X94765714Y31163142D01*
X94765714Y31067904D01*
X94718095Y30925047D01*
X94146666Y30353619D01*
X94765714Y30353619D01*
X18542095Y52751619D02*
X18542095Y53751619D01*
X18542095Y53275428D02*
X19113523Y53275428D01*
X19113523Y52751619D02*
X19113523Y53751619D01*
X20018285Y53418285D02*
X20018285Y52751619D01*
X19780190Y53799238D02*
X19542095Y53084952D01*
X20161142Y53084952D01*
X61682333Y46325619D02*
X61349000Y46801809D01*
X61110904Y46325619D02*
X61110904Y47325619D01*
X61491857Y47325619D01*
X61587095Y47278000D01*
X61634714Y47230380D01*
X61682333Y47135142D01*
X61682333Y46992285D01*
X61634714Y46897047D01*
X61587095Y46849428D01*
X61491857Y46801809D01*
X61110904Y46801809D01*
X62634714Y46325619D02*
X62063285Y46325619D01*
X62349000Y46325619D02*
X62349000Y47325619D01*
X62253761Y47182761D01*
X62158523Y47087523D01*
X62063285Y47039904D01*
X63714333Y34472619D02*
X63381000Y34948809D01*
X63142904Y34472619D02*
X63142904Y35472619D01*
X63523857Y35472619D01*
X63619095Y35425000D01*
X63666714Y35377380D01*
X63714333Y35282142D01*
X63714333Y35139285D01*
X63666714Y35044047D01*
X63619095Y34996428D01*
X63523857Y34948809D01*
X63142904Y34948809D01*
X64619095Y35472619D02*
X64142904Y35472619D01*
X64095285Y34996428D01*
X64142904Y35044047D01*
X64238142Y35091666D01*
X64476238Y35091666D01*
X64571476Y35044047D01*
X64619095Y34996428D01*
X64666714Y34901190D01*
X64666714Y34663095D01*
X64619095Y34567857D01*
X64571476Y34520238D01*
X64476238Y34472619D01*
X64238142Y34472619D01*
X64142904Y34520238D01*
X64095285Y34567857D01*
X58189904Y40695619D02*
X58189904Y41695619D01*
X58428000Y41695619D01*
X58570857Y41648000D01*
X58666095Y41552761D01*
X58713714Y41457523D01*
X58761333Y41267047D01*
X58761333Y41124190D01*
X58713714Y40933714D01*
X58666095Y40838476D01*
X58570857Y40743238D01*
X58428000Y40695619D01*
X58189904Y40695619D01*
X59713714Y40695619D02*
X59142285Y40695619D01*
X59428000Y40695619D02*
X59428000Y41695619D01*
X59332761Y41552761D01*
X59237523Y41457523D01*
X59142285Y41409904D01*
X58189904Y34472619D02*
X58189904Y35472619D01*
X58428000Y35472619D01*
X58570857Y35425000D01*
X58666095Y35329761D01*
X58713714Y35234523D01*
X58761333Y35044047D01*
X58761333Y34901190D01*
X58713714Y34710714D01*
X58666095Y34615476D01*
X58570857Y34520238D01*
X58428000Y34472619D01*
X58189904Y34472619D01*
X59142285Y35377380D02*
X59189904Y35425000D01*
X59285142Y35472619D01*
X59523238Y35472619D01*
X59618476Y35425000D01*
X59666095Y35377380D01*
X59713714Y35282142D01*
X59713714Y35186904D01*
X59666095Y35044047D01*
X59094666Y34472619D01*
X59713714Y34472619D01*
X74001333Y46859019D02*
X73668000Y47335209D01*
X73429904Y46859019D02*
X73429904Y47859019D01*
X73810857Y47859019D01*
X73906095Y47811400D01*
X73953714Y47763780D01*
X74001333Y47668542D01*
X74001333Y47525685D01*
X73953714Y47430447D01*
X73906095Y47382828D01*
X73810857Y47335209D01*
X73429904Y47335209D01*
X74382285Y47763780D02*
X74429904Y47811400D01*
X74525142Y47859019D01*
X74763238Y47859019D01*
X74858476Y47811400D01*
X74906095Y47763780D01*
X74953714Y47668542D01*
X74953714Y47573304D01*
X74906095Y47430447D01*
X74334666Y46859019D01*
X74953714Y46859019D01*
X78954333Y41288619D02*
X78621000Y41764809D01*
X78382904Y41288619D02*
X78382904Y42288619D01*
X78763857Y42288619D01*
X78859095Y42241000D01*
X78906714Y42193380D01*
X78954333Y42098142D01*
X78954333Y41955285D01*
X78906714Y41860047D01*
X78859095Y41812428D01*
X78763857Y41764809D01*
X78382904Y41764809D01*
X79287666Y42288619D02*
X79906714Y42288619D01*
X79573380Y41907666D01*
X79716238Y41907666D01*
X79811476Y41860047D01*
X79859095Y41812428D01*
X79906714Y41717190D01*
X79906714Y41479095D01*
X79859095Y41383857D01*
X79811476Y41336238D01*
X79716238Y41288619D01*
X79430523Y41288619D01*
X79335285Y41336238D01*
X79287666Y41383857D01*
X63714333Y40610619D02*
X63381000Y41086809D01*
X63142904Y40610619D02*
X63142904Y41610619D01*
X63523857Y41610619D01*
X63619095Y41563000D01*
X63666714Y41515380D01*
X63714333Y41420142D01*
X63714333Y41277285D01*
X63666714Y41182047D01*
X63619095Y41134428D01*
X63523857Y41086809D01*
X63142904Y41086809D01*
X64571476Y41277285D02*
X64571476Y40610619D01*
X64333380Y41658238D02*
X64095285Y40943952D01*
X64714333Y40943952D01*
X77676619Y46386761D02*
X77629000Y46291523D01*
X77533761Y46196285D01*
X77390904Y46053428D01*
X77343285Y45958190D01*
X77343285Y45862952D01*
X77581380Y45910571D02*
X77533761Y45815333D01*
X77438523Y45720095D01*
X77248047Y45672476D01*
X76914714Y45672476D01*
X76724238Y45720095D01*
X76629000Y45815333D01*
X76581380Y45910571D01*
X76581380Y46101047D01*
X76629000Y46196285D01*
X76724238Y46291523D01*
X76914714Y46339142D01*
X77248047Y46339142D01*
X77438523Y46291523D01*
X77533761Y46196285D01*
X77581380Y46101047D01*
X77581380Y45910571D01*
X77581380Y47291523D02*
X77581380Y46720095D01*
X77581380Y47005809D02*
X76581380Y47005809D01*
X76724238Y46910571D01*
X76819476Y46815333D01*
X76867095Y46720095D01*
X76707619Y42449761D02*
X76660000Y42354523D01*
X76564761Y42259285D01*
X76421904Y42116428D01*
X76374285Y42021190D01*
X76374285Y41925952D01*
X76612380Y41973571D02*
X76564761Y41878333D01*
X76469523Y41783095D01*
X76279047Y41735476D01*
X75945714Y41735476D01*
X75755238Y41783095D01*
X75660000Y41878333D01*
X75612380Y41973571D01*
X75612380Y42164047D01*
X75660000Y42259285D01*
X75755238Y42354523D01*
X75945714Y42402142D01*
X76279047Y42402142D01*
X76469523Y42354523D01*
X76564761Y42259285D01*
X76612380Y42164047D01*
X76612380Y41973571D01*
X75707619Y42783095D02*
X75660000Y42830714D01*
X75612380Y42925952D01*
X75612380Y43164047D01*
X75660000Y43259285D01*
X75707619Y43306904D01*
X75802857Y43354523D01*
X75898095Y43354523D01*
X76040952Y43306904D01*
X76612380Y42735476D01*
X76612380Y43354523D01*
X85997380Y34877095D02*
X86806904Y34877095D01*
X86902142Y34924714D01*
X86949761Y34972333D01*
X86997380Y35067571D01*
X86997380Y35258047D01*
X86949761Y35353285D01*
X86902142Y35400904D01*
X86806904Y35448523D01*
X85997380Y35448523D01*
X86997380Y36448523D02*
X86997380Y35877095D01*
X86997380Y36162809D02*
X85997380Y36162809D01*
X86140238Y36067571D01*
X86235476Y35972333D01*
X86283095Y35877095D01*
X117094095Y53005619D02*
X117094095Y54005619D01*
X117094095Y53529428D02*
X117665523Y53529428D01*
X117665523Y53005619D02*
X117665523Y54005619D01*
X118046476Y54005619D02*
X118665523Y54005619D01*
X118332190Y53624666D01*
X118475047Y53624666D01*
X118570285Y53577047D01*
X118617904Y53529428D01*
X118665523Y53434190D01*
X118665523Y53196095D01*
X118617904Y53100857D01*
X118570285Y53053238D01*
X118475047Y53005619D01*
X118189333Y53005619D01*
X118094095Y53053238D01*
X118046476Y53100857D01*
X117094095Y-62380D02*
X117094095Y937619D01*
X117094095Y461428D02*
X117665523Y461428D01*
X117665523Y-62380D02*
X117665523Y937619D01*
X118094095Y842380D02*
X118141714Y890000D01*
X118236952Y937619D01*
X118475047Y937619D01*
X118570285Y890000D01*
X118617904Y842380D01*
X118665523Y747142D01*
X118665523Y651904D01*
X118617904Y509047D01*
X118046476Y-62380D01*
X118665523Y-62380D01*
X18542095Y-198380D02*
X18542095Y801619D01*
X18542095Y325428D02*
X19113523Y325428D01*
X19113523Y-198380D02*
X19113523Y801619D01*
X20113523Y-198380D02*
X19542095Y-198380D01*
X19827809Y-198380D02*
X19827809Y801619D01*
X19732571Y658761D01*
X19637333Y563523D01*
X19542095Y515904D01*
X43466380Y53975095D02*
X44275904Y53975095D01*
X44371142Y54022714D01*
X44418761Y54070333D01*
X44466380Y54165571D01*
X44466380Y54356047D01*
X44418761Y54451285D01*
X44371142Y54498904D01*
X44275904Y54546523D01*
X43466380Y54546523D01*
X43466380Y54927476D02*
X43466380Y55594142D01*
X44466380Y55165571D01*
X41074380Y50930666D02*
X41788666Y50930666D01*
X41931523Y50883047D01*
X42026761Y50787809D01*
X42074380Y50644952D01*
X42074380Y50549714D01*
X41074380Y51311619D02*
X41074380Y51930666D01*
X41455333Y51597333D01*
X41455333Y51740190D01*
X41502952Y51835428D01*
X41550571Y51883047D01*
X41645809Y51930666D01*
X41883904Y51930666D01*
X41979142Y51883047D01*
X42026761Y51835428D01*
X42074380Y51740190D01*
X42074380Y51454476D01*
X42026761Y51359238D01*
X41979142Y51311619D01*
%LPC*%
G36*
G01*
X46090000Y48148001D02*
X46090000Y46847999D01*
G75*
G02*
X45840001Y46598000I-249999J0D01*
G01*
X45189999Y46598000D01*
G75*
G02*
X44940000Y46847999I0J249999D01*
G01*
X44940000Y48148001D01*
G75*
G02*
X45189999Y48398000I249999J0D01*
G01*
X45840001Y48398000D01*
G75*
G02*
X46090000Y48148001I0J-249999D01*
G01*
G37*
G36*
G01*
X49040000Y48148001D02*
X49040000Y46847999D01*
G75*
G02*
X48790001Y46598000I-249999J0D01*
G01*
X48139999Y46598000D01*
G75*
G02*
X47890000Y46847999I0J249999D01*
G01*
X47890000Y48148001D01*
G75*
G02*
X48139999Y48398000I249999J0D01*
G01*
X48790001Y48398000D01*
G75*
G02*
X49040000Y48148001I0J-249999D01*
G01*
G37*
G36*
G01*
X53224000Y46847999D02*
X53224000Y48148001D01*
G75*
G02*
X53473999Y48398000I249999J0D01*
G01*
X54124001Y48398000D01*
G75*
G02*
X54374000Y48148001I0J-249999D01*
G01*
X54374000Y46847999D01*
G75*
G02*
X54124001Y46598000I-249999J0D01*
G01*
X53473999Y46598000D01*
G75*
G02*
X53224000Y46847999I0J249999D01*
G01*
G37*
G36*
G01*
X50274000Y46847999D02*
X50274000Y48148001D01*
G75*
G02*
X50523999Y48398000I249999J0D01*
G01*
X51174001Y48398000D01*
G75*
G02*
X51424000Y48148001I0J-249999D01*
G01*
X51424000Y46847999D01*
G75*
G02*
X51174001Y46598000I-249999J0D01*
G01*
X50523999Y46598000D01*
G75*
G02*
X50274000Y46847999I0J249999D01*
G01*
G37*
G36*
G01*
X84185999Y48630000D02*
X85486001Y48630000D01*
G75*
G02*
X85736000Y48380001I0J-249999D01*
G01*
X85736000Y47729999D01*
G75*
G02*
X85486001Y47480000I-249999J0D01*
G01*
X84185999Y47480000D01*
G75*
G02*
X83936000Y47729999I0J249999D01*
G01*
X83936000Y48380001D01*
G75*
G02*
X84185999Y48630000I249999J0D01*
G01*
G37*
G36*
G01*
X84185999Y51580000D02*
X85486001Y51580000D01*
G75*
G02*
X85736000Y51330001I0J-249999D01*
G01*
X85736000Y50679999D01*
G75*
G02*
X85486001Y50430000I-249999J0D01*
G01*
X84185999Y50430000D01*
G75*
G02*
X83936000Y50679999I0J249999D01*
G01*
X83936000Y51330001D01*
G75*
G02*
X84185999Y51580000I249999J0D01*
G01*
G37*
D14*
X67564000Y44704000D03*
G36*
G01*
X69151500Y46079000D02*
X69851500Y46079000D01*
G75*
G02*
X69914000Y46016500I0J-62500D01*
G01*
X69914000Y45891500D01*
G75*
G02*
X69851500Y45829000I-62500J0D01*
G01*
X69151500Y45829000D01*
G75*
G02*
X69089000Y45891500I0J62500D01*
G01*
X69089000Y46016500D01*
G75*
G02*
X69151500Y46079000I62500J0D01*
G01*
G37*
G36*
G01*
X69151500Y45579000D02*
X69851500Y45579000D01*
G75*
G02*
X69914000Y45516500I0J-62500D01*
G01*
X69914000Y45391500D01*
G75*
G02*
X69851500Y45329000I-62500J0D01*
G01*
X69151500Y45329000D01*
G75*
G02*
X69089000Y45391500I0J62500D01*
G01*
X69089000Y45516500D01*
G75*
G02*
X69151500Y45579000I62500J0D01*
G01*
G37*
G36*
G01*
X69151500Y45079000D02*
X69851500Y45079000D01*
G75*
G02*
X69914000Y45016500I0J-62500D01*
G01*
X69914000Y44891500D01*
G75*
G02*
X69851500Y44829000I-62500J0D01*
G01*
X69151500Y44829000D01*
G75*
G02*
X69089000Y44891500I0J62500D01*
G01*
X69089000Y45016500D01*
G75*
G02*
X69151500Y45079000I62500J0D01*
G01*
G37*
G36*
G01*
X69151500Y44579000D02*
X69851500Y44579000D01*
G75*
G02*
X69914000Y44516500I0J-62500D01*
G01*
X69914000Y44391500D01*
G75*
G02*
X69851500Y44329000I-62500J0D01*
G01*
X69151500Y44329000D01*
G75*
G02*
X69089000Y44391500I0J62500D01*
G01*
X69089000Y44516500D01*
G75*
G02*
X69151500Y44579000I62500J0D01*
G01*
G37*
G36*
G01*
X69151500Y44079000D02*
X69851500Y44079000D01*
G75*
G02*
X69914000Y44016500I0J-62500D01*
G01*
X69914000Y43891500D01*
G75*
G02*
X69851500Y43829000I-62500J0D01*
G01*
X69151500Y43829000D01*
G75*
G02*
X69089000Y43891500I0J62500D01*
G01*
X69089000Y44016500D01*
G75*
G02*
X69151500Y44079000I62500J0D01*
G01*
G37*
G36*
G01*
X69151500Y43579000D02*
X69851500Y43579000D01*
G75*
G02*
X69914000Y43516500I0J-62500D01*
G01*
X69914000Y43391500D01*
G75*
G02*
X69851500Y43329000I-62500J0D01*
G01*
X69151500Y43329000D01*
G75*
G02*
X69089000Y43391500I0J62500D01*
G01*
X69089000Y43516500D01*
G75*
G02*
X69151500Y43579000I62500J0D01*
G01*
G37*
G36*
G01*
X68751500Y43179000D02*
X68876500Y43179000D01*
G75*
G02*
X68939000Y43116500I0J-62500D01*
G01*
X68939000Y42416500D01*
G75*
G02*
X68876500Y42354000I-62500J0D01*
G01*
X68751500Y42354000D01*
G75*
G02*
X68689000Y42416500I0J62500D01*
G01*
X68689000Y43116500D01*
G75*
G02*
X68751500Y43179000I62500J0D01*
G01*
G37*
G36*
G01*
X68251500Y43179000D02*
X68376500Y43179000D01*
G75*
G02*
X68439000Y43116500I0J-62500D01*
G01*
X68439000Y42416500D01*
G75*
G02*
X68376500Y42354000I-62500J0D01*
G01*
X68251500Y42354000D01*
G75*
G02*
X68189000Y42416500I0J62500D01*
G01*
X68189000Y43116500D01*
G75*
G02*
X68251500Y43179000I62500J0D01*
G01*
G37*
G36*
G01*
X67751500Y43179000D02*
X67876500Y43179000D01*
G75*
G02*
X67939000Y43116500I0J-62500D01*
G01*
X67939000Y42416500D01*
G75*
G02*
X67876500Y42354000I-62500J0D01*
G01*
X67751500Y42354000D01*
G75*
G02*
X67689000Y42416500I0J62500D01*
G01*
X67689000Y43116500D01*
G75*
G02*
X67751500Y43179000I62500J0D01*
G01*
G37*
G36*
G01*
X67251500Y43179000D02*
X67376500Y43179000D01*
G75*
G02*
X67439000Y43116500I0J-62500D01*
G01*
X67439000Y42416500D01*
G75*
G02*
X67376500Y42354000I-62500J0D01*
G01*
X67251500Y42354000D01*
G75*
G02*
X67189000Y42416500I0J62500D01*
G01*
X67189000Y43116500D01*
G75*
G02*
X67251500Y43179000I62500J0D01*
G01*
G37*
G36*
G01*
X66751500Y43179000D02*
X66876500Y43179000D01*
G75*
G02*
X66939000Y43116500I0J-62500D01*
G01*
X66939000Y42416500D01*
G75*
G02*
X66876500Y42354000I-62500J0D01*
G01*
X66751500Y42354000D01*
G75*
G02*
X66689000Y42416500I0J62500D01*
G01*
X66689000Y43116500D01*
G75*
G02*
X66751500Y43179000I62500J0D01*
G01*
G37*
G36*
G01*
X66251500Y43179000D02*
X66376500Y43179000D01*
G75*
G02*
X66439000Y43116500I0J-62500D01*
G01*
X66439000Y42416500D01*
G75*
G02*
X66376500Y42354000I-62500J0D01*
G01*
X66251500Y42354000D01*
G75*
G02*
X66189000Y42416500I0J62500D01*
G01*
X66189000Y43116500D01*
G75*
G02*
X66251500Y43179000I62500J0D01*
G01*
G37*
G36*
G01*
X65276500Y43579000D02*
X65976500Y43579000D01*
G75*
G02*
X66039000Y43516500I0J-62500D01*
G01*
X66039000Y43391500D01*
G75*
G02*
X65976500Y43329000I-62500J0D01*
G01*
X65276500Y43329000D01*
G75*
G02*
X65214000Y43391500I0J62500D01*
G01*
X65214000Y43516500D01*
G75*
G02*
X65276500Y43579000I62500J0D01*
G01*
G37*
G36*
G01*
X65276500Y44079000D02*
X65976500Y44079000D01*
G75*
G02*
X66039000Y44016500I0J-62500D01*
G01*
X66039000Y43891500D01*
G75*
G02*
X65976500Y43829000I-62500J0D01*
G01*
X65276500Y43829000D01*
G75*
G02*
X65214000Y43891500I0J62500D01*
G01*
X65214000Y44016500D01*
G75*
G02*
X65276500Y44079000I62500J0D01*
G01*
G37*
G36*
G01*
X65276500Y44579000D02*
X65976500Y44579000D01*
G75*
G02*
X66039000Y44516500I0J-62500D01*
G01*
X66039000Y44391500D01*
G75*
G02*
X65976500Y44329000I-62500J0D01*
G01*
X65276500Y44329000D01*
G75*
G02*
X65214000Y44391500I0J62500D01*
G01*
X65214000Y44516500D01*
G75*
G02*
X65276500Y44579000I62500J0D01*
G01*
G37*
G36*
G01*
X65276500Y45079000D02*
X65976500Y45079000D01*
G75*
G02*
X66039000Y45016500I0J-62500D01*
G01*
X66039000Y44891500D01*
G75*
G02*
X65976500Y44829000I-62500J0D01*
G01*
X65276500Y44829000D01*
G75*
G02*
X65214000Y44891500I0J62500D01*
G01*
X65214000Y45016500D01*
G75*
G02*
X65276500Y45079000I62500J0D01*
G01*
G37*
G36*
G01*
X65276500Y45579000D02*
X65976500Y45579000D01*
G75*
G02*
X66039000Y45516500I0J-62500D01*
G01*
X66039000Y45391500D01*
G75*
G02*
X65976500Y45329000I-62500J0D01*
G01*
X65276500Y45329000D01*
G75*
G02*
X65214000Y45391500I0J62500D01*
G01*
X65214000Y45516500D01*
G75*
G02*
X65276500Y45579000I62500J0D01*
G01*
G37*
G36*
G01*
X65276500Y46079000D02*
X65976500Y46079000D01*
G75*
G02*
X66039000Y46016500I0J-62500D01*
G01*
X66039000Y45891500D01*
G75*
G02*
X65976500Y45829000I-62500J0D01*
G01*
X65276500Y45829000D01*
G75*
G02*
X65214000Y45891500I0J62500D01*
G01*
X65214000Y46016500D01*
G75*
G02*
X65276500Y46079000I62500J0D01*
G01*
G37*
G36*
G01*
X66251500Y47054000D02*
X66376500Y47054000D01*
G75*
G02*
X66439000Y46991500I0J-62500D01*
G01*
X66439000Y46291500D01*
G75*
G02*
X66376500Y46229000I-62500J0D01*
G01*
X66251500Y46229000D01*
G75*
G02*
X66189000Y46291500I0J62500D01*
G01*
X66189000Y46991500D01*
G75*
G02*
X66251500Y47054000I62500J0D01*
G01*
G37*
G36*
G01*
X66751500Y47054000D02*
X66876500Y47054000D01*
G75*
G02*
X66939000Y46991500I0J-62500D01*
G01*
X66939000Y46291500D01*
G75*
G02*
X66876500Y46229000I-62500J0D01*
G01*
X66751500Y46229000D01*
G75*
G02*
X66689000Y46291500I0J62500D01*
G01*
X66689000Y46991500D01*
G75*
G02*
X66751500Y47054000I62500J0D01*
G01*
G37*
G36*
G01*
X67251500Y47054000D02*
X67376500Y47054000D01*
G75*
G02*
X67439000Y46991500I0J-62500D01*
G01*
X67439000Y46291500D01*
G75*
G02*
X67376500Y46229000I-62500J0D01*
G01*
X67251500Y46229000D01*
G75*
G02*
X67189000Y46291500I0J62500D01*
G01*
X67189000Y46991500D01*
G75*
G02*
X67251500Y47054000I62500J0D01*
G01*
G37*
G36*
G01*
X67751500Y47054000D02*
X67876500Y47054000D01*
G75*
G02*
X67939000Y46991500I0J-62500D01*
G01*
X67939000Y46291500D01*
G75*
G02*
X67876500Y46229000I-62500J0D01*
G01*
X67751500Y46229000D01*
G75*
G02*
X67689000Y46291500I0J62500D01*
G01*
X67689000Y46991500D01*
G75*
G02*
X67751500Y47054000I62500J0D01*
G01*
G37*
G36*
G01*
X68251500Y47054000D02*
X68376500Y47054000D01*
G75*
G02*
X68439000Y46991500I0J-62500D01*
G01*
X68439000Y46291500D01*
G75*
G02*
X68376500Y46229000I-62500J0D01*
G01*
X68251500Y46229000D01*
G75*
G02*
X68189000Y46291500I0J62500D01*
G01*
X68189000Y46991500D01*
G75*
G02*
X68251500Y47054000I62500J0D01*
G01*
G37*
G36*
G01*
X68751500Y47054000D02*
X68876500Y47054000D01*
G75*
G02*
X68939000Y46991500I0J-62500D01*
G01*
X68939000Y46291500D01*
G75*
G02*
X68876500Y46229000I-62500J0D01*
G01*
X68751500Y46229000D01*
G75*
G02*
X68689000Y46291500I0J62500D01*
G01*
X68689000Y46991500D01*
G75*
G02*
X68751500Y47054000I62500J0D01*
G01*
G37*
D15*
X70718000Y59911500D03*
X64918000Y59911500D03*
D16*
X64318000Y59911500D03*
X71318000Y59911500D03*
D17*
X68818000Y59911500D03*
D18*
X65318000Y57211500D03*
D19*
X67818000Y57211500D03*
X67168000Y57211500D03*
X66518000Y57211500D03*
X69118000Y57211500D03*
X68468000Y57211500D03*
D18*
X70318000Y57211500D03*
D17*
X66818000Y59911500D03*
D20*
X54862000Y24279600D03*
X52962000Y24279600D03*
X52962000Y26479600D03*
X53912000Y26479600D03*
X54862000Y26479600D03*
X74102000Y24300000D03*
X72202000Y24300000D03*
X72202000Y26500000D03*
X73152000Y26500000D03*
X74102000Y26500000D03*
X36448400Y24279600D03*
X34548400Y24279600D03*
X34548400Y26479600D03*
X35498400Y26479600D03*
X36448400Y26479600D03*
X93152000Y24300000D03*
X91252000Y24300000D03*
X91252000Y26500000D03*
X92202000Y26500000D03*
X93152000Y26500000D03*
G36*
G01*
X61394000Y16098601D02*
X61394000Y14848599D01*
G75*
G02*
X61144001Y14598600I-249999J0D01*
G01*
X60518999Y14598600D01*
G75*
G02*
X60269000Y14848599I0J249999D01*
G01*
X60269000Y16098601D01*
G75*
G02*
X60518999Y16348600I249999J0D01*
G01*
X61144001Y16348600D01*
G75*
G02*
X61394000Y16098601I0J-249999D01*
G01*
G37*
G36*
G01*
X64319000Y16098601D02*
X64319000Y14848599D01*
G75*
G02*
X64069001Y14598600I-249999J0D01*
G01*
X63443999Y14598600D01*
G75*
G02*
X63194000Y14848599I0J249999D01*
G01*
X63194000Y16098601D01*
G75*
G02*
X63443999Y16348600I249999J0D01*
G01*
X64069001Y16348600D01*
G75*
G02*
X64319000Y16098601I0J-249999D01*
G01*
G37*
G36*
G01*
X80634000Y16119001D02*
X80634000Y14868999D01*
G75*
G02*
X80384001Y14619000I-249999J0D01*
G01*
X79758999Y14619000D01*
G75*
G02*
X79509000Y14868999I0J249999D01*
G01*
X79509000Y16119001D01*
G75*
G02*
X79758999Y16369000I249999J0D01*
G01*
X80384001Y16369000D01*
G75*
G02*
X80634000Y16119001I0J-249999D01*
G01*
G37*
G36*
G01*
X83559000Y16119001D02*
X83559000Y14868999D01*
G75*
G02*
X83309001Y14619000I-249999J0D01*
G01*
X82683999Y14619000D01*
G75*
G02*
X82434000Y14868999I0J249999D01*
G01*
X82434000Y16119001D01*
G75*
G02*
X82683999Y16369000I249999J0D01*
G01*
X83309001Y16369000D01*
G75*
G02*
X83559000Y16119001I0J-249999D01*
G01*
G37*
G36*
G01*
X42980400Y16098601D02*
X42980400Y14848599D01*
G75*
G02*
X42730401Y14598600I-249999J0D01*
G01*
X42105399Y14598600D01*
G75*
G02*
X41855400Y14848599I0J249999D01*
G01*
X41855400Y16098601D01*
G75*
G02*
X42105399Y16348600I249999J0D01*
G01*
X42730401Y16348600D01*
G75*
G02*
X42980400Y16098601I0J-249999D01*
G01*
G37*
G36*
G01*
X45905400Y16098601D02*
X45905400Y14848599D01*
G75*
G02*
X45655401Y14598600I-249999J0D01*
G01*
X45030399Y14598600D01*
G75*
G02*
X44780400Y14848599I0J249999D01*
G01*
X44780400Y16098601D01*
G75*
G02*
X45030399Y16348600I249999J0D01*
G01*
X45655401Y16348600D01*
G75*
G02*
X45905400Y16098601I0J-249999D01*
G01*
G37*
G36*
G01*
X99684000Y16119001D02*
X99684000Y14868999D01*
G75*
G02*
X99434001Y14619000I-249999J0D01*
G01*
X98808999Y14619000D01*
G75*
G02*
X98559000Y14868999I0J249999D01*
G01*
X98559000Y16119001D01*
G75*
G02*
X98808999Y16369000I249999J0D01*
G01*
X99434001Y16369000D01*
G75*
G02*
X99684000Y16119001I0J-249999D01*
G01*
G37*
G36*
G01*
X102609000Y16119001D02*
X102609000Y14868999D01*
G75*
G02*
X102359001Y14619000I-249999J0D01*
G01*
X101733999Y14619000D01*
G75*
G02*
X101484000Y14868999I0J249999D01*
G01*
X101484000Y16119001D01*
G75*
G02*
X101733999Y16369000I249999J0D01*
G01*
X102359001Y16369000D01*
G75*
G02*
X102609000Y16119001I0J-249999D01*
G01*
G37*
D21*
X53912000Y15405600D03*
D22*
X51632000Y21705600D03*
X56192000Y21705600D03*
D21*
X73152000Y15426000D03*
D22*
X70872000Y21726000D03*
X75432000Y21726000D03*
D21*
X35498400Y15405600D03*
D22*
X33218400Y21705600D03*
X37778400Y21705600D03*
D21*
X92202000Y15426000D03*
D22*
X89922000Y21726000D03*
X94482000Y21726000D03*
G36*
G01*
X50912000Y3051600D02*
X50912000Y6051600D01*
G75*
G02*
X52412000Y7551600I1500000J0D01*
G01*
X55412000Y7551600D01*
G75*
G02*
X56912000Y6051600I0J-1500000D01*
G01*
X56912000Y3051600D01*
G75*
G02*
X55412000Y1551600I-1500000J0D01*
G01*
X52412000Y1551600D01*
G75*
G02*
X50912000Y3051600I0J1500000D01*
G01*
G37*
D23*
X61112000Y4551600D03*
G36*
G01*
X70152000Y3072000D02*
X70152000Y6072000D01*
G75*
G02*
X71652000Y7572000I1500000J0D01*
G01*
X74652000Y7572000D01*
G75*
G02*
X76152000Y6072000I0J-1500000D01*
G01*
X76152000Y3072000D01*
G75*
G02*
X74652000Y1572000I-1500000J0D01*
G01*
X71652000Y1572000D01*
G75*
G02*
X70152000Y3072000I0J1500000D01*
G01*
G37*
X80352000Y4572000D03*
G36*
G01*
X32498400Y3051600D02*
X32498400Y6051600D01*
G75*
G02*
X33998400Y7551600I1500000J0D01*
G01*
X36998400Y7551600D01*
G75*
G02*
X38498400Y6051600I0J-1500000D01*
G01*
X38498400Y3051600D01*
G75*
G02*
X36998400Y1551600I-1500000J0D01*
G01*
X33998400Y1551600D01*
G75*
G02*
X32498400Y3051600I0J1500000D01*
G01*
G37*
X42698400Y4551600D03*
G36*
G01*
X89202000Y3072000D02*
X89202000Y6072000D01*
G75*
G02*
X90702000Y7572000I1500000J0D01*
G01*
X93702000Y7572000D01*
G75*
G02*
X95202000Y6072000I0J-1500000D01*
G01*
X95202000Y3072000D01*
G75*
G02*
X93702000Y1572000I-1500000J0D01*
G01*
X90702000Y1572000D01*
G75*
G02*
X89202000Y3072000I0J1500000D01*
G01*
G37*
X99402000Y4572000D03*
D24*
X63660000Y20047600D03*
D25*
X61120000Y20047600D03*
D24*
X82900000Y20068000D03*
D25*
X80360000Y20068000D03*
D24*
X45246400Y20047600D03*
D25*
X42706400Y20047600D03*
D24*
X101950000Y20068000D03*
D25*
X99410000Y20068000D03*
G36*
G01*
X56590000Y28285599D02*
X56590000Y29585601D01*
G75*
G02*
X56839999Y29835600I249999J0D01*
G01*
X57490001Y29835600D01*
G75*
G02*
X57740000Y29585601I0J-249999D01*
G01*
X57740000Y28285599D01*
G75*
G02*
X57490001Y28035600I-249999J0D01*
G01*
X56839999Y28035600D01*
G75*
G02*
X56590000Y28285599I0J249999D01*
G01*
G37*
G36*
G01*
X53640000Y28285599D02*
X53640000Y29585601D01*
G75*
G02*
X53889999Y29835600I249999J0D01*
G01*
X54540001Y29835600D01*
G75*
G02*
X54790000Y29585601I0J-249999D01*
G01*
X54790000Y28285599D01*
G75*
G02*
X54540001Y28035600I-249999J0D01*
G01*
X53889999Y28035600D01*
G75*
G02*
X53640000Y28285599I0J249999D01*
G01*
G37*
G36*
G01*
X75830000Y28305999D02*
X75830000Y29606001D01*
G75*
G02*
X76079999Y29856000I249999J0D01*
G01*
X76730001Y29856000D01*
G75*
G02*
X76980000Y29606001I0J-249999D01*
G01*
X76980000Y28305999D01*
G75*
G02*
X76730001Y28056000I-249999J0D01*
G01*
X76079999Y28056000D01*
G75*
G02*
X75830000Y28305999I0J249999D01*
G01*
G37*
G36*
G01*
X72880000Y28305999D02*
X72880000Y29606001D01*
G75*
G02*
X73129999Y29856000I249999J0D01*
G01*
X73780001Y29856000D01*
G75*
G02*
X74030000Y29606001I0J-249999D01*
G01*
X74030000Y28305999D01*
G75*
G02*
X73780001Y28056000I-249999J0D01*
G01*
X73129999Y28056000D01*
G75*
G02*
X72880000Y28305999I0J249999D01*
G01*
G37*
G36*
G01*
X38176400Y28285599D02*
X38176400Y29585601D01*
G75*
G02*
X38426399Y29835600I249999J0D01*
G01*
X39076401Y29835600D01*
G75*
G02*
X39326400Y29585601I0J-249999D01*
G01*
X39326400Y28285599D01*
G75*
G02*
X39076401Y28035600I-249999J0D01*
G01*
X38426399Y28035600D01*
G75*
G02*
X38176400Y28285599I0J249999D01*
G01*
G37*
G36*
G01*
X35226400Y28285599D02*
X35226400Y29585601D01*
G75*
G02*
X35476399Y29835600I249999J0D01*
G01*
X36126401Y29835600D01*
G75*
G02*
X36376400Y29585601I0J-249999D01*
G01*
X36376400Y28285599D01*
G75*
G02*
X36126401Y28035600I-249999J0D01*
G01*
X35476399Y28035600D01*
G75*
G02*
X35226400Y28285599I0J249999D01*
G01*
G37*
G36*
G01*
X94880000Y28305999D02*
X94880000Y29606001D01*
G75*
G02*
X95129999Y29856000I249999J0D01*
G01*
X95780001Y29856000D01*
G75*
G02*
X96030000Y29606001I0J-249999D01*
G01*
X96030000Y28305999D01*
G75*
G02*
X95780001Y28056000I-249999J0D01*
G01*
X95129999Y28056000D01*
G75*
G02*
X94880000Y28305999I0J249999D01*
G01*
G37*
G36*
G01*
X91930000Y28305999D02*
X91930000Y29606001D01*
G75*
G02*
X92179999Y29856000I249999J0D01*
G01*
X92830001Y29856000D01*
G75*
G02*
X93080000Y29606001I0J-249999D01*
G01*
X93080000Y28305999D01*
G75*
G02*
X92830001Y28056000I-249999J0D01*
G01*
X92179999Y28056000D01*
G75*
G02*
X91930000Y28305999I0J249999D01*
G01*
G37*
D26*
X19304000Y57404000D03*
G36*
G01*
X62749000Y44332998D02*
X62749000Y45583002D01*
G75*
G02*
X62998998Y45833000I249998J0D01*
G01*
X63624002Y45833000D01*
G75*
G02*
X63874000Y45583002I0J-249998D01*
G01*
X63874000Y44332998D01*
G75*
G02*
X63624002Y44083000I-249998J0D01*
G01*
X62998998Y44083000D01*
G75*
G02*
X62749000Y44332998I0J249998D01*
G01*
G37*
G36*
G01*
X59824000Y44332998D02*
X59824000Y45583002D01*
G75*
G02*
X60073998Y45833000I249998J0D01*
G01*
X60699002Y45833000D01*
G75*
G02*
X60949000Y45583002I0J-249998D01*
G01*
X60949000Y44332998D01*
G75*
G02*
X60699002Y44083000I-249998J0D01*
G01*
X60073998Y44083000D01*
G75*
G02*
X59824000Y44332998I0J249998D01*
G01*
G37*
G36*
G01*
X64781000Y36204998D02*
X64781000Y37455002D01*
G75*
G02*
X65030998Y37705000I249998J0D01*
G01*
X65656002Y37705000D01*
G75*
G02*
X65906000Y37455002I0J-249998D01*
G01*
X65906000Y36204998D01*
G75*
G02*
X65656002Y35955000I-249998J0D01*
G01*
X65030998Y35955000D01*
G75*
G02*
X64781000Y36204998I0J249998D01*
G01*
G37*
G36*
G01*
X61856000Y36204998D02*
X61856000Y37455002D01*
G75*
G02*
X62105998Y37705000I249998J0D01*
G01*
X62731002Y37705000D01*
G75*
G02*
X62981000Y37455002I0J-249998D01*
G01*
X62981000Y36204998D01*
G75*
G02*
X62731002Y35955000I-249998J0D01*
G01*
X62105998Y35955000D01*
G75*
G02*
X61856000Y36204998I0J249998D01*
G01*
G37*
G36*
G01*
X58153000Y39868000D02*
X58153000Y38618000D01*
G75*
G02*
X57903000Y38368000I-250000J0D01*
G01*
X57153000Y38368000D01*
G75*
G02*
X56903000Y38618000I0J250000D01*
G01*
X56903000Y39868000D01*
G75*
G02*
X57153000Y40118000I250000J0D01*
G01*
X57903000Y40118000D01*
G75*
G02*
X58153000Y39868000I0J-250000D01*
G01*
G37*
G36*
G01*
X60953000Y39868000D02*
X60953000Y38618000D01*
G75*
G02*
X60703000Y38368000I-250000J0D01*
G01*
X59953000Y38368000D01*
G75*
G02*
X59703000Y38618000I0J250000D01*
G01*
X59703000Y39868000D01*
G75*
G02*
X59953000Y40118000I250000J0D01*
G01*
X60703000Y40118000D01*
G75*
G02*
X60953000Y39868000I0J-250000D01*
G01*
G37*
G36*
G01*
X58153000Y37455000D02*
X58153000Y36205000D01*
G75*
G02*
X57903000Y35955000I-250000J0D01*
G01*
X57153000Y35955000D01*
G75*
G02*
X56903000Y36205000I0J250000D01*
G01*
X56903000Y37455000D01*
G75*
G02*
X57153000Y37705000I250000J0D01*
G01*
X57903000Y37705000D01*
G75*
G02*
X58153000Y37455000I0J-250000D01*
G01*
G37*
G36*
G01*
X60953000Y37455000D02*
X60953000Y36205000D01*
G75*
G02*
X60703000Y35955000I-250000J0D01*
G01*
X59953000Y35955000D01*
G75*
G02*
X59703000Y36205000I0J250000D01*
G01*
X59703000Y37455000D01*
G75*
G02*
X59953000Y37705000I250000J0D01*
G01*
X60703000Y37705000D01*
G75*
G02*
X60953000Y37455000I0J-250000D01*
G01*
G37*
G36*
G01*
X75068000Y44866398D02*
X75068000Y46116402D01*
G75*
G02*
X75317998Y46366400I249998J0D01*
G01*
X75943002Y46366400D01*
G75*
G02*
X76193000Y46116402I0J-249998D01*
G01*
X76193000Y44866398D01*
G75*
G02*
X75943002Y44616400I-249998J0D01*
G01*
X75317998Y44616400D01*
G75*
G02*
X75068000Y44866398I0J249998D01*
G01*
G37*
G36*
G01*
X72143000Y44866398D02*
X72143000Y46116402D01*
G75*
G02*
X72392998Y46366400I249998J0D01*
G01*
X73018002Y46366400D01*
G75*
G02*
X73268000Y46116402I0J-249998D01*
G01*
X73268000Y44866398D01*
G75*
G02*
X73018002Y44616400I-249998J0D01*
G01*
X72392998Y44616400D01*
G75*
G02*
X72143000Y44866398I0J249998D01*
G01*
G37*
G36*
G01*
X78221000Y44186002D02*
X78221000Y42935998D01*
G75*
G02*
X77971002Y42686000I-249998J0D01*
G01*
X77345998Y42686000D01*
G75*
G02*
X77096000Y42935998I0J249998D01*
G01*
X77096000Y44186002D01*
G75*
G02*
X77345998Y44436000I249998J0D01*
G01*
X77971002Y44436000D01*
G75*
G02*
X78221000Y44186002I0J-249998D01*
G01*
G37*
G36*
G01*
X81146000Y44186002D02*
X81146000Y42935998D01*
G75*
G02*
X80896002Y42686000I-249998J0D01*
G01*
X80270998Y42686000D01*
G75*
G02*
X80021000Y42935998I0J249998D01*
G01*
X80021000Y44186002D01*
G75*
G02*
X80270998Y44436000I249998J0D01*
G01*
X80896002Y44436000D01*
G75*
G02*
X81146000Y44186002I0J-249998D01*
G01*
G37*
G36*
G01*
X64781000Y38617998D02*
X64781000Y39868002D01*
G75*
G02*
X65030998Y40118000I249998J0D01*
G01*
X65656002Y40118000D01*
G75*
G02*
X65906000Y39868002I0J-249998D01*
G01*
X65906000Y38617998D01*
G75*
G02*
X65656002Y38368000I-249998J0D01*
G01*
X65030998Y38368000D01*
G75*
G02*
X64781000Y38617998I0J249998D01*
G01*
G37*
G36*
G01*
X61856000Y38617998D02*
X61856000Y39868002D01*
G75*
G02*
X62105998Y40118000I249998J0D01*
G01*
X62731002Y40118000D01*
G75*
G02*
X62981000Y39868002I0J-249998D01*
G01*
X62981000Y38617998D01*
G75*
G02*
X62731002Y38368000I-249998J0D01*
G01*
X62105998Y38368000D01*
G75*
G02*
X61856000Y38617998I0J249998D01*
G01*
G37*
D27*
X79629000Y47482000D03*
X80579000Y45482000D03*
X78679000Y45482000D03*
X73660000Y41545000D03*
X72710000Y43545000D03*
X74610000Y43545000D03*
D28*
X105655000Y52324000D03*
X105655000Y51054000D03*
X105655000Y49784000D03*
X105655000Y48514000D03*
X105655000Y47244000D03*
X105655000Y45974000D03*
X105655000Y44704000D03*
X105655000Y43434000D03*
X105655000Y42164000D03*
X105655000Y40894000D03*
X105655000Y39624000D03*
X105655000Y38354000D03*
X105655000Y37084000D03*
X105655000Y35814000D03*
D29*
X102870000Y34814000D03*
X101600000Y34814000D03*
X100330000Y34814000D03*
X99060000Y34814000D03*
X97790000Y34814000D03*
X96520000Y34814000D03*
X95250000Y34814000D03*
X93980000Y34814000D03*
X92710000Y34814000D03*
X91440000Y34814000D03*
D28*
X88655000Y35814000D03*
X88655000Y37084000D03*
X88655000Y38354000D03*
X88655000Y39624000D03*
X88655000Y40894000D03*
X88655000Y42164000D03*
X88655000Y43434000D03*
X88655000Y44704000D03*
X88655000Y45974000D03*
X88655000Y47244000D03*
X88655000Y48514000D03*
X88655000Y49784000D03*
X88655000Y51054000D03*
X88655000Y52324000D03*
D30*
X96155000Y44824000D03*
D26*
X117856000Y57658000D03*
X117856000Y-3810000D03*
X19304000Y-3810000D03*
D31*
X46214000Y51587000D03*
X50814000Y51587000D03*
X48514000Y51587000D03*
D32*
X48514000Y57887000D03*
G36*
G01*
X34822000Y57864000D02*
X37822000Y57864000D01*
G75*
G02*
X39322000Y56364000I0J-1500000D01*
G01*
X39322000Y53364000D01*
G75*
G02*
X37822000Y51864000I-1500000J0D01*
G01*
X34822000Y51864000D01*
G75*
G02*
X33322000Y53364000I0J1500000D01*
G01*
X33322000Y56364000D01*
G75*
G02*
X34822000Y57864000I1500000J0D01*
G01*
G37*
D23*
X36322000Y47664000D03*
M02*
