G04 #@! TF.GenerationSoftware,KiCad,Pcbnew,5.1.9*
G04 #@! TF.CreationDate,2021-01-16T18:22:49+01:00*
G04 #@! TF.ProjectId,firework-ignition-system,66697265-776f-4726-9b2d-69676e697469,1*
G04 #@! TF.SameCoordinates,Original*
G04 #@! TF.FileFunction,Copper,L4,Bot*
G04 #@! TF.FilePolarity,Positive*
%FSLAX46Y46*%
G04 Gerber Fmt 4.6, Leading zero omitted, Abs format (unit mm)*
G04 Created by KiCad (PCBNEW 5.1.9) date 2021-01-16 18:22:49*
%MOMM*%
%LPD*%
G01*
G04 APERTURE LIST*
G04 #@! TA.AperFunction,ComponentPad*
%ADD10O,1.200000X1.900000*%
G04 #@! TD*
G04 #@! TA.AperFunction,ComponentPad*
%ADD11C,1.450000*%
G04 #@! TD*
G04 #@! TA.AperFunction,ComponentPad*
%ADD12C,6.000000*%
G04 #@! TD*
G04 #@! TA.AperFunction,ComponentPad*
%ADD13C,1.800000*%
G04 #@! TD*
G04 #@! TA.AperFunction,ComponentPad*
%ADD14R,1.800000X1.800000*%
G04 #@! TD*
G04 #@! TA.AperFunction,ViaPad*
%ADD15C,0.600000*%
G04 #@! TD*
G04 #@! TA.AperFunction,Conductor*
%ADD16C,0.200000*%
G04 #@! TD*
G04 #@! TA.AperFunction,Conductor*
%ADD17C,5.000000*%
G04 #@! TD*
G04 #@! TA.AperFunction,Conductor*
%ADD18C,0.152400*%
G04 #@! TD*
G04 #@! TA.AperFunction,Conductor*
%ADD19C,0.127000*%
G04 #@! TD*
G04 #@! TA.AperFunction,Conductor*
%ADD20C,0.254000*%
G04 #@! TD*
G04 APERTURE END LIST*
D10*
X64318000Y59911500D03*
X71318000Y59911500D03*
D11*
X65318000Y57211500D03*
X70318000Y57211500D03*
G04 #@! TA.AperFunction,ComponentPad*
G36*
G01*
X50912000Y3051600D02*
X50912000Y6051600D01*
G75*
G02*
X52412000Y7551600I1500000J0D01*
G01*
X55412000Y7551600D01*
G75*
G02*
X56912000Y6051600I0J-1500000D01*
G01*
X56912000Y3051600D01*
G75*
G02*
X55412000Y1551600I-1500000J0D01*
G01*
X52412000Y1551600D01*
G75*
G02*
X50912000Y3051600I0J1500000D01*
G01*
G37*
G04 #@! TD.AperFunction*
D12*
X61112000Y4551600D03*
G04 #@! TA.AperFunction,ComponentPad*
G36*
G01*
X70152000Y3072000D02*
X70152000Y6072000D01*
G75*
G02*
X71652000Y7572000I1500000J0D01*
G01*
X74652000Y7572000D01*
G75*
G02*
X76152000Y6072000I0J-1500000D01*
G01*
X76152000Y3072000D01*
G75*
G02*
X74652000Y1572000I-1500000J0D01*
G01*
X71652000Y1572000D01*
G75*
G02*
X70152000Y3072000I0J1500000D01*
G01*
G37*
G04 #@! TD.AperFunction*
X80352000Y4572000D03*
G04 #@! TA.AperFunction,ComponentPad*
G36*
G01*
X32498400Y3051600D02*
X32498400Y6051600D01*
G75*
G02*
X33998400Y7551600I1500000J0D01*
G01*
X36998400Y7551600D01*
G75*
G02*
X38498400Y6051600I0J-1500000D01*
G01*
X38498400Y3051600D01*
G75*
G02*
X36998400Y1551600I-1500000J0D01*
G01*
X33998400Y1551600D01*
G75*
G02*
X32498400Y3051600I0J1500000D01*
G01*
G37*
G04 #@! TD.AperFunction*
X42698400Y4551600D03*
G04 #@! TA.AperFunction,ComponentPad*
G36*
G01*
X89202000Y3072000D02*
X89202000Y6072000D01*
G75*
G02*
X90702000Y7572000I1500000J0D01*
G01*
X93702000Y7572000D01*
G75*
G02*
X95202000Y6072000I0J-1500000D01*
G01*
X95202000Y3072000D01*
G75*
G02*
X93702000Y1572000I-1500000J0D01*
G01*
X90702000Y1572000D01*
G75*
G02*
X89202000Y3072000I0J1500000D01*
G01*
G37*
G04 #@! TD.AperFunction*
X99402000Y4572000D03*
D13*
X63660000Y20047600D03*
D14*
X61120000Y20047600D03*
D13*
X82900000Y20068000D03*
D14*
X80360000Y20068000D03*
D13*
X45246400Y20047600D03*
D14*
X42706400Y20047600D03*
D13*
X101950000Y20068000D03*
D14*
X99410000Y20068000D03*
G04 #@! TA.AperFunction,ComponentPad*
G36*
G01*
X34822000Y57864000D02*
X37822000Y57864000D01*
G75*
G02*
X39322000Y56364000I0J-1500000D01*
G01*
X39322000Y53364000D01*
G75*
G02*
X37822000Y51864000I-1500000J0D01*
G01*
X34822000Y51864000D01*
G75*
G02*
X33322000Y53364000I0J1500000D01*
G01*
X33322000Y56364000D01*
G75*
G02*
X34822000Y57864000I1500000J0D01*
G01*
G37*
G04 #@! TD.AperFunction*
D12*
X36322000Y47664000D03*
D15*
X30988000Y24384000D03*
X50292000Y21336000D03*
X50292000Y22098000D03*
X50292000Y22860000D03*
X50292000Y23622000D03*
X51054000Y23622000D03*
X51816000Y23622000D03*
X49530000Y21336000D03*
X49530000Y22098000D03*
X49530000Y22860000D03*
X49530000Y23622000D03*
X49530000Y24384000D03*
X50292000Y24384000D03*
X51816000Y24384000D03*
X51054000Y24384000D03*
X31750000Y20574000D03*
X31750000Y24384000D03*
X32512000Y24384000D03*
X33274000Y24384000D03*
X31750000Y21336000D03*
X31750000Y22098000D03*
X31750000Y22860000D03*
X31750000Y23622000D03*
X32512000Y23622000D03*
X33274000Y23622000D03*
X69342000Y20828000D03*
X68580000Y20828000D03*
X68580000Y21590000D03*
X68580000Y22352000D03*
X68580000Y23114000D03*
X68580000Y23876000D03*
X68580000Y24638000D03*
X69342000Y24638000D03*
X70104000Y24638000D03*
X70866000Y24638000D03*
X69342000Y21590000D03*
X69342000Y22352000D03*
X69342000Y23114000D03*
X70104000Y23876000D03*
X70866000Y23876000D03*
X69342000Y23876000D03*
X88392000Y20574000D03*
X88392000Y21336000D03*
X88392000Y22098000D03*
X88392000Y22860000D03*
X88392000Y23622000D03*
X89154000Y23622000D03*
X89916000Y23622000D03*
X87630000Y20574000D03*
X87630000Y21336000D03*
X87630000Y22098000D03*
X87630000Y22860000D03*
X87630000Y23622000D03*
X87630000Y24384000D03*
X88392000Y24384000D03*
X89154000Y24384000D03*
X89916000Y24384000D03*
X30988000Y23622000D03*
X30988000Y22860000D03*
X30988000Y22098000D03*
X30988000Y21336000D03*
X30988000Y20574000D03*
X66821000Y48006000D03*
X83058000Y50800000D03*
X92456000Y30734000D03*
X35814000Y30480000D03*
X54102000Y30480000D03*
X73406000Y30480000D03*
X25110191Y44011001D03*
X25110191Y42557001D03*
X25110191Y41103001D03*
X25110191Y39649001D03*
X25110191Y38195001D03*
X25110191Y36741001D03*
X25110191Y35287001D03*
X25110191Y33833001D03*
X25110191Y32379001D03*
X25110191Y30925001D03*
X25110191Y29471001D03*
X25110191Y28017001D03*
X25110191Y26563001D03*
X25110191Y25109001D03*
X25110191Y23655001D03*
X25110191Y22201001D03*
X25110191Y20747001D03*
X25110191Y19293001D03*
X25110191Y17839001D03*
X25110191Y16385001D03*
X25110191Y14931001D03*
X25110191Y13477001D03*
X25110191Y12023001D03*
X25110191Y10569001D03*
X25110191Y9115001D03*
X25110191Y7661001D03*
X25110191Y6207001D03*
X25110191Y4753001D03*
X25110191Y3299001D03*
X25110191Y1845001D03*
X25110191Y391001D03*
X25110191Y-1062999D03*
X25110191Y-2516999D03*
X25110191Y-3970999D03*
X25837191Y43284001D03*
X25837191Y41830001D03*
X25837191Y40376001D03*
X25837191Y38922001D03*
X25837191Y37468001D03*
X25837191Y36014001D03*
X25837191Y34560001D03*
X25837191Y33106001D03*
X25837191Y31652001D03*
X25837191Y28744001D03*
X25837191Y27290001D03*
X25837191Y25836001D03*
X25837191Y24382001D03*
X25837191Y22928001D03*
X25837191Y21474001D03*
X25837191Y20020001D03*
X25837191Y18566001D03*
X25837191Y17112001D03*
X25837191Y15658001D03*
X25837191Y14204001D03*
X25837191Y12750001D03*
X25837191Y11296001D03*
X25837191Y9842001D03*
X25837191Y8388001D03*
X25837191Y6934001D03*
X25837191Y5480001D03*
X25837191Y4026001D03*
X25837191Y2572001D03*
X25837191Y1118001D03*
X25837191Y-335999D03*
X25837191Y-1789999D03*
X25837191Y-3243999D03*
X26564191Y44011001D03*
X26564191Y42557001D03*
X26564191Y41103001D03*
X26564191Y39649001D03*
X26564191Y38195001D03*
X26564191Y36741001D03*
X26564191Y35287001D03*
X26564191Y33833001D03*
X26564191Y32379001D03*
X26564191Y29471001D03*
X26564191Y28017001D03*
X26564191Y26563001D03*
X26564191Y25109001D03*
X26564191Y23655001D03*
X26564191Y22201001D03*
X26564191Y20747001D03*
X26564191Y19293001D03*
X26564191Y17839001D03*
X26564191Y16385001D03*
X26564191Y14931001D03*
X26564191Y13477001D03*
X26564191Y12023001D03*
X26564191Y10569001D03*
X26564191Y9115001D03*
X26564191Y7661001D03*
X26564191Y6207001D03*
X26564191Y4753001D03*
X26564191Y3299001D03*
X26564191Y1845001D03*
X26564191Y391001D03*
X26564191Y-1062999D03*
X26564191Y-2516999D03*
X26564191Y-3970999D03*
X27291191Y43284001D03*
X27291191Y41830001D03*
X27291191Y40376001D03*
X27291191Y38922001D03*
X27291191Y37468001D03*
X27291191Y36014001D03*
X27291191Y34560001D03*
X27291191Y33106001D03*
X27291191Y31652001D03*
X27291191Y28744001D03*
X27291191Y27290001D03*
X27291191Y25836001D03*
X27291191Y24382001D03*
X27291191Y22928001D03*
X27291191Y21474001D03*
X27291191Y20020001D03*
X27291191Y18566001D03*
X27291191Y17112001D03*
X27291191Y15658001D03*
X27291191Y14204001D03*
X27291191Y12750001D03*
X27291191Y11296001D03*
X27291191Y9842001D03*
X27291191Y8388001D03*
X27291191Y6934001D03*
X27291191Y5480001D03*
X27291191Y4026001D03*
X27291191Y2572001D03*
X27291191Y1118001D03*
X27291191Y-335999D03*
X27291191Y-1789999D03*
X27291191Y-3243999D03*
X28018191Y-2516999D03*
X28018191Y-3970999D03*
X28745191Y-3243999D03*
X29472191Y-3970999D03*
X30199191Y-3243999D03*
X30926191Y-3970999D03*
X31653191Y-3243999D03*
X32380191Y-3970999D03*
X33107191Y-3243999D03*
X33834191Y-3970999D03*
X34561191Y-3243999D03*
X35288191Y-3970999D03*
X36015191Y-3243999D03*
X36742191Y-3970999D03*
X37469191Y-3243999D03*
X38196191Y-3970999D03*
X38923191Y-3243999D03*
X46193191Y-3243999D03*
X46920191Y-3970999D03*
X47647191Y-3243999D03*
X48374191Y-3970999D03*
X49101191Y-3243999D03*
X49828191Y-3970999D03*
X50555191Y-3243999D03*
X51282191Y-3970999D03*
X52009191Y-3243999D03*
X52736191Y-3970999D03*
X53463191Y-3243999D03*
X54190191Y-3970999D03*
X54917191Y-3243999D03*
X55644191Y-3970999D03*
X56371191Y-3243999D03*
X57098191Y-3970999D03*
X65095191Y-3243999D03*
X65822191Y-3970999D03*
X66549191Y-3243999D03*
X67276191Y-3970999D03*
X68003191Y-3243999D03*
X68730191Y-3970999D03*
X69457191Y-3243999D03*
X70184191Y-3970999D03*
X70911191Y-3243999D03*
X71638191Y-3970999D03*
X72365191Y-3243999D03*
X73092191Y-3970999D03*
X73819191Y-3243999D03*
X74546191Y-3970999D03*
X75273191Y-3243999D03*
X76000191Y-3970999D03*
X76727191Y-3243999D03*
X83997191Y-3243999D03*
X84724191Y-3970999D03*
X85451191Y-3243999D03*
X86178191Y-3970999D03*
X86905191Y-3243999D03*
X87632191Y-3970999D03*
X88359191Y-3243999D03*
X89086191Y-3970999D03*
X89813191Y-3243999D03*
X90540191Y-3970999D03*
X91267191Y-3243999D03*
X91994191Y-3970999D03*
X92721191Y-3243999D03*
X93448191Y-3970999D03*
X94175191Y-3243999D03*
X94902191Y-3970999D03*
X95629191Y-3243999D03*
X33834191Y11296001D03*
X33834191Y9842001D03*
X33834191Y8388001D03*
X34561191Y10569001D03*
X34561191Y9115001D03*
X35288191Y11296001D03*
X35288191Y9842001D03*
X35288191Y8388001D03*
X36015191Y10569001D03*
X36015191Y9115001D03*
X36742191Y11296001D03*
X36742191Y9842001D03*
X36742191Y8388001D03*
X37469191Y10569001D03*
X37469191Y9115001D03*
X71638191Y11296001D03*
X71638191Y9842001D03*
X71638191Y8388001D03*
X72365191Y10569001D03*
X72365191Y9115001D03*
X73092191Y11296001D03*
X73092191Y9842001D03*
X73092191Y8388001D03*
X73819191Y10569001D03*
X73819191Y9115001D03*
X74546191Y11296001D03*
X74546191Y9842001D03*
X74546191Y8388001D03*
X75273191Y10569001D03*
X75273191Y9115001D03*
X52009191Y11296001D03*
X52009191Y9842001D03*
X52009191Y8388001D03*
X52736191Y10569001D03*
X52736191Y9115001D03*
X53463191Y11296001D03*
X53463191Y9842001D03*
X53463191Y8388001D03*
X54190191Y10569001D03*
X54190191Y9115001D03*
X54917191Y11296001D03*
X54917191Y9842001D03*
X54917191Y8388001D03*
X55644191Y10569001D03*
X55644191Y9115001D03*
X67137000Y51308000D03*
X69088000Y52751000D03*
X67991000Y51308000D03*
X69088000Y51897000D03*
X71374000Y43942000D03*
X107442000Y48514000D03*
X71374000Y44704000D03*
X107442000Y47244000D03*
X90540191Y11296001D03*
X90540191Y9842001D03*
X90540191Y8388001D03*
X91267191Y10569001D03*
X91267191Y9115001D03*
X91994191Y11296001D03*
X91994191Y9842001D03*
X91994191Y8388001D03*
X92721191Y10569001D03*
X92721191Y9115001D03*
X93448191Y11296001D03*
X93448191Y9842001D03*
X93448191Y8388001D03*
X94175191Y10569001D03*
X94175191Y9115001D03*
X64516000Y45720000D03*
X69088000Y55372000D03*
D16*
X69615000Y50800000D02*
X83058000Y50800000D01*
X66821000Y48006000D02*
X69615000Y50800000D01*
D17*
X61112000Y4551600D02*
X61112000Y-2388000D01*
X80352000Y4572000D02*
X80352000Y-2452000D01*
X99402000Y4572000D02*
X99402000Y-2198000D01*
X36322000Y47664000D02*
X26836000Y47664000D01*
D16*
X35814000Y30480000D02*
X54102000Y30480000D01*
X54102000Y30480000D02*
X73406000Y30480000D01*
X92202000Y30480000D02*
X92456000Y30734000D01*
X73406000Y30480000D02*
X92202000Y30480000D01*
X35814000Y30480000D02*
X28956000Y30480000D01*
D17*
X42698400Y4551600D02*
X42698400Y-2513600D01*
D18*
X68356200Y52527200D02*
X68864200Y52527200D01*
X68864200Y52527200D02*
X69088000Y52751000D01*
X67137000Y51308000D02*
X68356200Y52527200D01*
X68524537Y52120800D02*
X68864200Y52120800D01*
X67991000Y51587263D02*
X68524537Y52120800D01*
X67991000Y51308000D02*
X67991000Y51587263D01*
X68864200Y52120800D02*
X69088000Y51897000D01*
D19*
X70883499Y44432501D02*
X70883499Y45229499D01*
X71374000Y43942000D02*
X70883499Y44432501D01*
X70883499Y45229499D02*
X71374000Y45720000D01*
X104648000Y45720000D02*
X107442000Y48514000D01*
X71374000Y45720000D02*
X104648000Y45720000D01*
X71374000Y44704000D02*
X71374000Y45212000D01*
X71374000Y45212000D02*
X71628000Y45466000D01*
X71628000Y45466000D02*
X92456000Y45466000D01*
X105664000Y45466000D02*
X107442000Y47244000D01*
X92456000Y45466000D02*
X105664000Y45466000D01*
D16*
X64516000Y50800000D02*
X64516000Y45720000D01*
X69088000Y55372000D02*
X64516000Y50800000D01*
D20*
X95631000Y1143000D02*
X88773000Y1143000D01*
X88773000Y18923000D01*
X95631000Y18923000D01*
X95631000Y1143000D01*
G04 #@! TA.AperFunction,Conductor*
D18*
G36*
X95631000Y1143000D02*
G01*
X88773000Y1143000D01*
X88773000Y18923000D01*
X95631000Y18923000D01*
X95631000Y1143000D01*
G37*
G04 #@! TD.AperFunction*
D20*
X38927400Y1122600D02*
X32069400Y1122600D01*
X32069400Y18902600D01*
X38927400Y18902600D01*
X38927400Y1122600D01*
G04 #@! TA.AperFunction,Conductor*
D18*
G36*
X38927400Y1122600D02*
G01*
X32069400Y1122600D01*
X32069400Y18902600D01*
X38927400Y18902600D01*
X38927400Y1122600D01*
G37*
G04 #@! TD.AperFunction*
D20*
X76581000Y1143000D02*
X69723000Y1143000D01*
X69723000Y18923000D01*
X76581000Y18923000D01*
X76581000Y1143000D01*
G04 #@! TA.AperFunction,Conductor*
D18*
G36*
X76581000Y1143000D02*
G01*
X69723000Y1143000D01*
X69723000Y18923000D01*
X76581000Y18923000D01*
X76581000Y1143000D01*
G37*
G04 #@! TD.AperFunction*
D20*
X57341000Y1122600D02*
X50483000Y1122600D01*
X50483000Y18902600D01*
X57341000Y18902600D01*
X57341000Y1122600D01*
G04 #@! TA.AperFunction,Conductor*
D18*
G36*
X57341000Y1122600D02*
G01*
X50483000Y1122600D01*
X50483000Y18902600D01*
X57341000Y18902600D01*
X57341000Y1122600D01*
G37*
G04 #@! TD.AperFunction*
D20*
X29083000Y-1270000D02*
X29085440Y-1294776D01*
X29092667Y-1318601D01*
X29104403Y-1340557D01*
X29120197Y-1359803D01*
X29139443Y-1375597D01*
X29161399Y-1387333D01*
X29185224Y-1394560D01*
X29210000Y-1397000D01*
X101727000Y-1397000D01*
X101727000Y-5715000D01*
X23241000Y-5715000D01*
X23241000Y49911000D01*
X29083000Y49911000D01*
X29083000Y-1270000D01*
G04 #@! TA.AperFunction,Conductor*
D18*
G36*
X29083000Y-1270000D02*
G01*
X29085440Y-1294776D01*
X29092667Y-1318601D01*
X29104403Y-1340557D01*
X29120197Y-1359803D01*
X29139443Y-1375597D01*
X29161399Y-1387333D01*
X29185224Y-1394560D01*
X29210000Y-1397000D01*
X101727000Y-1397000D01*
X101727000Y-5715000D01*
X23241000Y-5715000D01*
X23241000Y49911000D01*
X29083000Y49911000D01*
X29083000Y-1270000D01*
G37*
G04 #@! TD.AperFunction*
D20*
X121265950Y-6965950D02*
X15894050Y-6965950D01*
X15894050Y-3589872D01*
X17069000Y-3589872D01*
X17069000Y-4030128D01*
X17154890Y-4461925D01*
X17323369Y-4868669D01*
X17567962Y-5234729D01*
X17879271Y-5546038D01*
X18245331Y-5790631D01*
X18652075Y-5959110D01*
X19083872Y-6045000D01*
X19524128Y-6045000D01*
X19955925Y-5959110D01*
X20362669Y-5790631D01*
X20728729Y-5546038D01*
X21040038Y-5234729D01*
X21284631Y-4868669D01*
X21453110Y-4461925D01*
X21539000Y-4030128D01*
X21539000Y-3589872D01*
X21453110Y-3158075D01*
X21284631Y-2751331D01*
X21040038Y-2385271D01*
X20728729Y-2073962D01*
X20362669Y-1829369D01*
X19955925Y-1660890D01*
X19524128Y-1575000D01*
X19083872Y-1575000D01*
X18652075Y-1660890D01*
X18245331Y-1829369D01*
X17879271Y-2073962D01*
X17567962Y-2385271D01*
X17323369Y-2751331D01*
X17154890Y-3158075D01*
X17069000Y-3589872D01*
X15894050Y-3589872D01*
X15894050Y50038000D01*
X22479000Y50038000D01*
X22479000Y-5842000D01*
X22491201Y-5965882D01*
X22527336Y-6085004D01*
X22586017Y-6194787D01*
X22664987Y-6291013D01*
X22761213Y-6369983D01*
X22870996Y-6428664D01*
X22990118Y-6464799D01*
X23114000Y-6477000D01*
X101854000Y-6477000D01*
X101977882Y-6464799D01*
X102097004Y-6428664D01*
X102206787Y-6369983D01*
X102303013Y-6291013D01*
X102381983Y-6194787D01*
X102440664Y-6085004D01*
X102476799Y-5965882D01*
X102489000Y-5842000D01*
X102489000Y-3589872D01*
X115621000Y-3589872D01*
X115621000Y-4030128D01*
X115706890Y-4461925D01*
X115875369Y-4868669D01*
X116119962Y-5234729D01*
X116431271Y-5546038D01*
X116797331Y-5790631D01*
X117204075Y-5959110D01*
X117635872Y-6045000D01*
X118076128Y-6045000D01*
X118507925Y-5959110D01*
X118914669Y-5790631D01*
X119280729Y-5546038D01*
X119592038Y-5234729D01*
X119836631Y-4868669D01*
X120005110Y-4461925D01*
X120091000Y-4030128D01*
X120091000Y-3589872D01*
X120005110Y-3158075D01*
X119836631Y-2751331D01*
X119592038Y-2385271D01*
X119280729Y-2073962D01*
X118914669Y-1829369D01*
X118507925Y-1660890D01*
X118076128Y-1575000D01*
X117635872Y-1575000D01*
X117204075Y-1660890D01*
X116797331Y-1829369D01*
X116431271Y-2073962D01*
X116119962Y-2385271D01*
X115875369Y-2751331D01*
X115706890Y-3158075D01*
X115621000Y-3589872D01*
X102489000Y-3589872D01*
X102489000Y-2821263D01*
X102491638Y-2812567D01*
X102537000Y-2352002D01*
X102537000Y2721032D01*
X102623295Y2850182D01*
X102897309Y3511710D01*
X103037000Y4213984D01*
X103037000Y4930016D01*
X102897309Y5632290D01*
X102623295Y6293818D01*
X102225489Y6889177D01*
X101719177Y7395489D01*
X101123818Y7793295D01*
X100462290Y8067309D01*
X99760016Y8207000D01*
X99043984Y8207000D01*
X98341710Y8067309D01*
X97680182Y7793295D01*
X97084823Y7395489D01*
X96578511Y6889177D01*
X96393000Y6611540D01*
X96393000Y19050000D01*
X96380799Y19173882D01*
X96344664Y19293004D01*
X96285983Y19402787D01*
X96207013Y19499013D01*
X96110787Y19577983D01*
X96001004Y19636664D01*
X95881882Y19672799D01*
X95758000Y19685000D01*
X88646000Y19685000D01*
X88522118Y19672799D01*
X88402996Y19636664D01*
X88293213Y19577983D01*
X88196987Y19499013D01*
X88118017Y19402787D01*
X88059336Y19293004D01*
X88023201Y19173882D01*
X88011000Y19050000D01*
X88011000Y1016000D01*
X88023201Y892118D01*
X88059336Y772996D01*
X88118017Y663213D01*
X88196987Y566987D01*
X88293213Y488017D01*
X88402996Y429336D01*
X88522118Y393201D01*
X88646000Y381000D01*
X95758000Y381000D01*
X95881882Y393201D01*
X96001004Y429336D01*
X96110787Y488017D01*
X96207013Y566987D01*
X96267001Y640083D01*
X96267001Y-635000D01*
X83487000Y-635000D01*
X83487000Y2721032D01*
X83573295Y2850182D01*
X83847309Y3511710D01*
X83987000Y4213984D01*
X83987000Y4930016D01*
X83847309Y5632290D01*
X83573295Y6293818D01*
X83175489Y6889177D01*
X82669177Y7395489D01*
X82073818Y7793295D01*
X81412290Y8067309D01*
X80710016Y8207000D01*
X79993984Y8207000D01*
X79291710Y8067309D01*
X78630182Y7793295D01*
X78034823Y7395489D01*
X77528511Y6889177D01*
X77343000Y6611540D01*
X77343000Y19050000D01*
X77330799Y19173882D01*
X77294664Y19293004D01*
X77235983Y19402787D01*
X77157013Y19499013D01*
X77060787Y19577983D01*
X76951004Y19636664D01*
X76831882Y19672799D01*
X76708000Y19685000D01*
X69596000Y19685000D01*
X69472118Y19672799D01*
X69352996Y19636664D01*
X69243213Y19577983D01*
X69146987Y19499013D01*
X69068017Y19402787D01*
X69009336Y19293004D01*
X68973201Y19173882D01*
X68961000Y19050000D01*
X68961000Y1016000D01*
X68973201Y892118D01*
X69009336Y772996D01*
X69068017Y663213D01*
X69146987Y566987D01*
X69243213Y488017D01*
X69352996Y429336D01*
X69472118Y393201D01*
X69596000Y381000D01*
X76708000Y381000D01*
X76831882Y393201D01*
X76951004Y429336D01*
X77060787Y488017D01*
X77157013Y566987D01*
X77217001Y640083D01*
X77217001Y-635000D01*
X64247000Y-635000D01*
X64247000Y2700632D01*
X64333295Y2829782D01*
X64607309Y3491310D01*
X64747000Y4193584D01*
X64747000Y4909616D01*
X64607309Y5611890D01*
X64333295Y6273418D01*
X63935489Y6868777D01*
X63429177Y7375089D01*
X62833818Y7772895D01*
X62172290Y8046909D01*
X61470016Y8186600D01*
X60753984Y8186600D01*
X60051710Y8046909D01*
X59390182Y7772895D01*
X58794823Y7375089D01*
X58288511Y6868777D01*
X58103000Y6591140D01*
X58103000Y19029600D01*
X58090799Y19153482D01*
X58054664Y19272604D01*
X57995983Y19382387D01*
X57917013Y19478613D01*
X57820787Y19557583D01*
X57711004Y19616264D01*
X57591882Y19652399D01*
X57468000Y19664600D01*
X50356000Y19664600D01*
X50232118Y19652399D01*
X50112996Y19616264D01*
X50003213Y19557583D01*
X49906987Y19478613D01*
X49828017Y19382387D01*
X49769336Y19272604D01*
X49733201Y19153482D01*
X49721000Y19029600D01*
X49721000Y995600D01*
X49733201Y871718D01*
X49769336Y752596D01*
X49828017Y642813D01*
X49906987Y546587D01*
X50003213Y467617D01*
X50112996Y408936D01*
X50232118Y372801D01*
X50356000Y360600D01*
X57468000Y360600D01*
X57591882Y372801D01*
X57711004Y408936D01*
X57820787Y467617D01*
X57917013Y546587D01*
X57977001Y619683D01*
X57977001Y-635000D01*
X45833400Y-635000D01*
X45833400Y2700632D01*
X45919695Y2829782D01*
X46193709Y3491310D01*
X46333400Y4193584D01*
X46333400Y4909616D01*
X46193709Y5611890D01*
X45919695Y6273418D01*
X45521889Y6868777D01*
X45015577Y7375089D01*
X44420218Y7772895D01*
X43758690Y8046909D01*
X43056416Y8186600D01*
X42340384Y8186600D01*
X41638110Y8046909D01*
X40976582Y7772895D01*
X40381223Y7375089D01*
X39874911Y6868777D01*
X39689400Y6591140D01*
X39689400Y19029600D01*
X39677199Y19153482D01*
X39641064Y19272604D01*
X39582383Y19382387D01*
X39503413Y19478613D01*
X39407187Y19557583D01*
X39297404Y19616264D01*
X39178282Y19652399D01*
X39054400Y19664600D01*
X31942400Y19664600D01*
X31818518Y19652399D01*
X31699396Y19616264D01*
X31589613Y19557583D01*
X31493387Y19478613D01*
X31414417Y19382387D01*
X31355736Y19272604D01*
X31319601Y19153482D01*
X31307400Y19029600D01*
X31307400Y995600D01*
X31319601Y871718D01*
X31355736Y752596D01*
X31414417Y642813D01*
X31493387Y546587D01*
X31589613Y467617D01*
X31699396Y408936D01*
X31818518Y372801D01*
X31942400Y360600D01*
X39054400Y360600D01*
X39178282Y372801D01*
X39297404Y408936D01*
X39407187Y467617D01*
X39503413Y546587D01*
X39563401Y619683D01*
X39563401Y-635000D01*
X29845000Y-635000D01*
X29845000Y20198784D01*
X43711400Y20198784D01*
X43711400Y19896416D01*
X43770389Y19599857D01*
X43886101Y19320505D01*
X44054088Y19069095D01*
X44267895Y18855288D01*
X44519305Y18687301D01*
X44798657Y18571589D01*
X45095216Y18512600D01*
X45397584Y18512600D01*
X45694143Y18571589D01*
X45973495Y18687301D01*
X46224905Y18855288D01*
X46438712Y19069095D01*
X46606699Y19320505D01*
X46722411Y19599857D01*
X46781400Y19896416D01*
X46781400Y20198784D01*
X62125000Y20198784D01*
X62125000Y19896416D01*
X62183989Y19599857D01*
X62299701Y19320505D01*
X62467688Y19069095D01*
X62681495Y18855288D01*
X62932905Y18687301D01*
X63212257Y18571589D01*
X63508816Y18512600D01*
X63811184Y18512600D01*
X64107743Y18571589D01*
X64387095Y18687301D01*
X64638505Y18855288D01*
X64852312Y19069095D01*
X65020299Y19320505D01*
X65136011Y19599857D01*
X65195000Y19896416D01*
X65195000Y20198784D01*
X65190943Y20219184D01*
X81365000Y20219184D01*
X81365000Y19916816D01*
X81423989Y19620257D01*
X81539701Y19340905D01*
X81707688Y19089495D01*
X81921495Y18875688D01*
X82172905Y18707701D01*
X82452257Y18591989D01*
X82748816Y18533000D01*
X83051184Y18533000D01*
X83347743Y18591989D01*
X83627095Y18707701D01*
X83878505Y18875688D01*
X84092312Y19089495D01*
X84260299Y19340905D01*
X84376011Y19620257D01*
X84435000Y19916816D01*
X84435000Y20219184D01*
X100415000Y20219184D01*
X100415000Y19916816D01*
X100473989Y19620257D01*
X100589701Y19340905D01*
X100757688Y19089495D01*
X100971495Y18875688D01*
X101222905Y18707701D01*
X101502257Y18591989D01*
X101798816Y18533000D01*
X102101184Y18533000D01*
X102397743Y18591989D01*
X102677095Y18707701D01*
X102928505Y18875688D01*
X103142312Y19089495D01*
X103310299Y19340905D01*
X103426011Y19620257D01*
X103485000Y19916816D01*
X103485000Y20219184D01*
X103426011Y20515743D01*
X103310299Y20795095D01*
X103142312Y21046505D01*
X102928505Y21260312D01*
X102677095Y21428299D01*
X102397743Y21544011D01*
X102101184Y21603000D01*
X101798816Y21603000D01*
X101502257Y21544011D01*
X101222905Y21428299D01*
X100971495Y21260312D01*
X100757688Y21046505D01*
X100589701Y20795095D01*
X100473989Y20515743D01*
X100415000Y20219184D01*
X84435000Y20219184D01*
X84376011Y20515743D01*
X84260299Y20795095D01*
X84092312Y21046505D01*
X83878505Y21260312D01*
X83627095Y21428299D01*
X83347743Y21544011D01*
X83051184Y21603000D01*
X82748816Y21603000D01*
X82452257Y21544011D01*
X82172905Y21428299D01*
X81921495Y21260312D01*
X81707688Y21046505D01*
X81539701Y20795095D01*
X81423989Y20515743D01*
X81365000Y20219184D01*
X65190943Y20219184D01*
X65136011Y20495343D01*
X65020299Y20774695D01*
X64852312Y21026105D01*
X64638505Y21239912D01*
X64387095Y21407899D01*
X64107743Y21523611D01*
X63811184Y21582600D01*
X63508816Y21582600D01*
X63212257Y21523611D01*
X62932905Y21407899D01*
X62681495Y21239912D01*
X62467688Y21026105D01*
X62299701Y20774695D01*
X62183989Y20495343D01*
X62125000Y20198784D01*
X46781400Y20198784D01*
X46722411Y20495343D01*
X46606699Y20774695D01*
X46438712Y21026105D01*
X46224905Y21239912D01*
X45973495Y21407899D01*
X45694143Y21523611D01*
X45397584Y21582600D01*
X45095216Y21582600D01*
X44798657Y21523611D01*
X44519305Y21407899D01*
X44267895Y21239912D01*
X44054088Y21026105D01*
X43886101Y20774695D01*
X43770389Y20495343D01*
X43711400Y20198784D01*
X29845000Y20198784D01*
X29845000Y29745000D01*
X35231049Y29745000D01*
X35371111Y29651414D01*
X35541271Y29580932D01*
X35721911Y29545000D01*
X35906089Y29545000D01*
X36086729Y29580932D01*
X36256889Y29651414D01*
X36396951Y29745000D01*
X53519049Y29745000D01*
X53659111Y29651414D01*
X53829271Y29580932D01*
X54009911Y29545000D01*
X54194089Y29545000D01*
X54374729Y29580932D01*
X54544889Y29651414D01*
X54684951Y29745000D01*
X72823049Y29745000D01*
X72963111Y29651414D01*
X73133271Y29580932D01*
X73313911Y29545000D01*
X73498089Y29545000D01*
X73678729Y29580932D01*
X73848889Y29651414D01*
X73988951Y29745000D01*
X92165895Y29745000D01*
X92202000Y29741444D01*
X92238105Y29745000D01*
X92346085Y29755635D01*
X92484633Y29797663D01*
X92487134Y29799000D01*
X92548089Y29799000D01*
X92728729Y29834932D01*
X92898889Y29905414D01*
X93052028Y30007738D01*
X93182262Y30137972D01*
X93284586Y30291111D01*
X93355068Y30461271D01*
X93391000Y30641911D01*
X93391000Y30826089D01*
X93355068Y31006729D01*
X93284586Y31176889D01*
X93182262Y31330028D01*
X93052028Y31460262D01*
X92898889Y31562586D01*
X92728729Y31633068D01*
X92548089Y31669000D01*
X92363911Y31669000D01*
X92183271Y31633068D01*
X92013111Y31562586D01*
X91859972Y31460262D01*
X91729738Y31330028D01*
X91652879Y31215000D01*
X73988951Y31215000D01*
X73848889Y31308586D01*
X73678729Y31379068D01*
X73498089Y31415000D01*
X73313911Y31415000D01*
X73133271Y31379068D01*
X72963111Y31308586D01*
X72823049Y31215000D01*
X54684951Y31215000D01*
X54544889Y31308586D01*
X54374729Y31379068D01*
X54194089Y31415000D01*
X54009911Y31415000D01*
X53829271Y31379068D01*
X53659111Y31308586D01*
X53519049Y31215000D01*
X36396951Y31215000D01*
X36256889Y31308586D01*
X36086729Y31379068D01*
X35906089Y31415000D01*
X35721911Y31415000D01*
X35541271Y31379068D01*
X35371111Y31308586D01*
X35231049Y31215000D01*
X29845000Y31215000D01*
X29845000Y44529000D01*
X34471032Y44529000D01*
X34600182Y44442705D01*
X35261710Y44168691D01*
X35963984Y44029000D01*
X36680016Y44029000D01*
X37382290Y44168691D01*
X38043818Y44442705D01*
X38639177Y44840511D01*
X39145489Y45346823D01*
X39456369Y45812089D01*
X63581000Y45812089D01*
X63581000Y45627911D01*
X63616932Y45447271D01*
X63687414Y45277111D01*
X63789738Y45123972D01*
X63919972Y44993738D01*
X64073111Y44891414D01*
X64243271Y44820932D01*
X64423911Y44785000D01*
X64608089Y44785000D01*
X64788729Y44820932D01*
X64958889Y44891414D01*
X65112028Y44993738D01*
X65242262Y45123972D01*
X65312772Y45229499D01*
X70181621Y45229499D01*
X70184999Y45195201D01*
X70184999Y44466799D01*
X70181621Y44432501D01*
X70184999Y44398203D01*
X70184999Y44398193D01*
X70195106Y44295572D01*
X70235047Y44163905D01*
X70235048Y44163903D01*
X70299908Y44042558D01*
X70365325Y43962848D01*
X70365328Y43962845D01*
X70387196Y43936199D01*
X70413842Y43914331D01*
X70439000Y43889173D01*
X70439000Y43849911D01*
X70474932Y43669271D01*
X70545414Y43499111D01*
X70647738Y43345972D01*
X70777972Y43215738D01*
X70931111Y43113414D01*
X71101271Y43042932D01*
X71281911Y43007000D01*
X71466089Y43007000D01*
X71646729Y43042932D01*
X71816889Y43113414D01*
X71970028Y43215738D01*
X72100262Y43345972D01*
X72202586Y43499111D01*
X72273068Y43669271D01*
X72309000Y43849911D01*
X72309000Y44034089D01*
X72273068Y44214729D01*
X72228221Y44323000D01*
X72273068Y44431271D01*
X72309000Y44611911D01*
X72309000Y44767500D01*
X105629702Y44767500D01*
X105664000Y44764122D01*
X105698298Y44767500D01*
X105698309Y44767500D01*
X105800930Y44777607D01*
X105932597Y44817548D01*
X106053943Y44882409D01*
X106160303Y44969697D01*
X106182175Y44996348D01*
X107494828Y46309000D01*
X107534089Y46309000D01*
X107714729Y46344932D01*
X107884889Y46415414D01*
X108038028Y46517738D01*
X108168262Y46647972D01*
X108270586Y46801111D01*
X108341068Y46971271D01*
X108377000Y47151911D01*
X108377000Y47336089D01*
X108341068Y47516729D01*
X108270586Y47686889D01*
X108168262Y47840028D01*
X108129290Y47879000D01*
X108168262Y47917972D01*
X108270586Y48071111D01*
X108341068Y48241271D01*
X108377000Y48421911D01*
X108377000Y48606089D01*
X108341068Y48786729D01*
X108270586Y48956889D01*
X108168262Y49110028D01*
X108038028Y49240262D01*
X107884889Y49342586D01*
X107714729Y49413068D01*
X107534089Y49449000D01*
X107349911Y49449000D01*
X107169271Y49413068D01*
X106999111Y49342586D01*
X106845972Y49240262D01*
X106715738Y49110028D01*
X106613414Y48956889D01*
X106542932Y48786729D01*
X106507000Y48606089D01*
X106507000Y48566828D01*
X104358673Y46418500D01*
X71408297Y46418500D01*
X71373999Y46421878D01*
X71339701Y46418500D01*
X71339691Y46418500D01*
X71237070Y46408393D01*
X71105403Y46368452D01*
X71105401Y46368451D01*
X70984056Y46303591D01*
X70904345Y46238174D01*
X70904337Y46238166D01*
X70877697Y46216303D01*
X70855833Y46189662D01*
X70413842Y45747669D01*
X70387197Y45725802D01*
X70365329Y45699156D01*
X70365325Y45699152D01*
X70299908Y45619442D01*
X70235048Y45498097D01*
X70227507Y45473237D01*
X70195106Y45366429D01*
X70184999Y45263808D01*
X70184999Y45263797D01*
X70181621Y45229499D01*
X65312772Y45229499D01*
X65344586Y45277111D01*
X65415068Y45447271D01*
X65451000Y45627911D01*
X65451000Y45812089D01*
X65415068Y45992729D01*
X65344586Y46162889D01*
X65251000Y46302951D01*
X65251000Y50495554D01*
X66213538Y51458091D01*
X66202000Y51400089D01*
X66202000Y51215911D01*
X66237932Y51035271D01*
X66308414Y50865111D01*
X66410738Y50711972D01*
X66540972Y50581738D01*
X66694111Y50479414D01*
X66864271Y50408932D01*
X67044911Y50373000D01*
X67229089Y50373000D01*
X67409729Y50408932D01*
X67564000Y50472833D01*
X67718271Y50408932D01*
X67898911Y50373000D01*
X68083089Y50373000D01*
X68164809Y50389255D01*
X66713485Y48937932D01*
X66548271Y48905068D01*
X66378111Y48834586D01*
X66224972Y48732262D01*
X66094738Y48602028D01*
X65992414Y48448889D01*
X65921932Y48278729D01*
X65886000Y48098089D01*
X65886000Y47913911D01*
X65921932Y47733271D01*
X65992414Y47563111D01*
X66094738Y47409972D01*
X66224972Y47279738D01*
X66378111Y47177414D01*
X66548271Y47106932D01*
X66728911Y47071000D01*
X66913089Y47071000D01*
X67093729Y47106932D01*
X67263889Y47177414D01*
X67417028Y47279738D01*
X67547262Y47409972D01*
X67649586Y47563111D01*
X67720068Y47733271D01*
X67752932Y47898485D01*
X69919447Y50065000D01*
X82475049Y50065000D01*
X82615111Y49971414D01*
X82785271Y49900932D01*
X82965911Y49865000D01*
X83150089Y49865000D01*
X83330729Y49900932D01*
X83500889Y49971414D01*
X83654028Y50073738D01*
X83784262Y50203972D01*
X83886586Y50357111D01*
X83957068Y50527271D01*
X83993000Y50707911D01*
X83993000Y50892089D01*
X83957068Y51072729D01*
X83886586Y51242889D01*
X83784262Y51396028D01*
X83654028Y51526262D01*
X83500889Y51628586D01*
X83330729Y51699068D01*
X83150089Y51735000D01*
X82965911Y51735000D01*
X82785271Y51699068D01*
X82615111Y51628586D01*
X82475049Y51535000D01*
X69950091Y51535000D01*
X69987068Y51624271D01*
X70023000Y51804911D01*
X70023000Y51989089D01*
X69987068Y52169729D01*
X69923167Y52324000D01*
X69987068Y52478271D01*
X70023000Y52658911D01*
X70023000Y52843089D01*
X69987068Y53023729D01*
X69916586Y53193889D01*
X69814262Y53347028D01*
X69684028Y53477262D01*
X69530889Y53579586D01*
X69360729Y53650068D01*
X69180089Y53686000D01*
X68995911Y53686000D01*
X68815271Y53650068D01*
X68645111Y53579586D01*
X68491972Y53477262D01*
X68361738Y53347028D01*
X68286893Y53235015D01*
X68216780Y53228109D01*
X68082719Y53187442D01*
X67959167Y53121402D01*
X67850873Y53032527D01*
X67828603Y53005391D01*
X67066213Y52243000D01*
X67044911Y52243000D01*
X66986909Y52231463D01*
X69195515Y54440069D01*
X69360729Y54472932D01*
X69530889Y54543414D01*
X69684028Y54645738D01*
X69814262Y54775972D01*
X69916586Y54929111D01*
X69987068Y55099271D01*
X70023000Y55279911D01*
X70023000Y55464089D01*
X69987068Y55644729D01*
X69916586Y55814889D01*
X69814262Y55968028D01*
X69684028Y56098262D01*
X69530889Y56200586D01*
X69360729Y56271068D01*
X69180089Y56307000D01*
X68995911Y56307000D01*
X68815271Y56271068D01*
X68645111Y56200586D01*
X68491972Y56098262D01*
X68361738Y55968028D01*
X68259414Y55814889D01*
X68188932Y55644729D01*
X68156069Y55479515D01*
X64021808Y51345254D01*
X63993762Y51322237D01*
X63901913Y51210319D01*
X63833663Y51082632D01*
X63819068Y51034519D01*
X63791635Y50944085D01*
X63777444Y50800000D01*
X63781000Y50763895D01*
X63781001Y46302952D01*
X63687414Y46162889D01*
X63616932Y45992729D01*
X63581000Y45812089D01*
X39456369Y45812089D01*
X39543295Y45942182D01*
X39817309Y46603710D01*
X39957000Y47305984D01*
X39957000Y48022016D01*
X39817309Y48724290D01*
X39543295Y49385818D01*
X39145489Y49981177D01*
X38639177Y50487489D01*
X38043818Y50885295D01*
X37382290Y51159309D01*
X36680016Y51299000D01*
X35963984Y51299000D01*
X35261710Y51159309D01*
X34600182Y50885295D01*
X34471032Y50799000D01*
X26681998Y50799000D01*
X26221433Y50753638D01*
X25955604Y50673000D01*
X23114000Y50673000D01*
X22990118Y50660799D01*
X22870996Y50624664D01*
X22761213Y50565983D01*
X22664987Y50487013D01*
X22586017Y50390787D01*
X22527336Y50281004D01*
X22491201Y50161882D01*
X22479000Y50038000D01*
X15894050Y50038000D01*
X15894050Y57624128D01*
X17069000Y57624128D01*
X17069000Y57183872D01*
X17154890Y56752075D01*
X17323369Y56345331D01*
X17567962Y55979271D01*
X17879271Y55667962D01*
X18245331Y55423369D01*
X18652075Y55254890D01*
X19083872Y55169000D01*
X19524128Y55169000D01*
X19955925Y55254890D01*
X20362669Y55423369D01*
X20728729Y55667962D01*
X21040038Y55979271D01*
X21284631Y56345331D01*
X21453110Y56752075D01*
X21539000Y57183872D01*
X21539000Y57624128D01*
X21488477Y57878128D01*
X115621000Y57878128D01*
X115621000Y57437872D01*
X115706890Y57006075D01*
X115875369Y56599331D01*
X116119962Y56233271D01*
X116431271Y55921962D01*
X116797331Y55677369D01*
X117204075Y55508890D01*
X117635872Y55423000D01*
X118076128Y55423000D01*
X118507925Y55508890D01*
X118914669Y55677369D01*
X119280729Y55921962D01*
X119592038Y56233271D01*
X119836631Y56599331D01*
X120005110Y57006075D01*
X120091000Y57437872D01*
X120091000Y57878128D01*
X120005110Y58309925D01*
X119836631Y58716669D01*
X119592038Y59082729D01*
X119280729Y59394038D01*
X118914669Y59638631D01*
X118507925Y59807110D01*
X118076128Y59893000D01*
X117635872Y59893000D01*
X117204075Y59807110D01*
X116797331Y59638631D01*
X116431271Y59394038D01*
X116119962Y59082729D01*
X115875369Y58716669D01*
X115706890Y58309925D01*
X115621000Y57878128D01*
X21488477Y57878128D01*
X21453110Y58055925D01*
X21284631Y58462669D01*
X21040038Y58828729D01*
X20728729Y59140038D01*
X20362669Y59384631D01*
X19955925Y59553110D01*
X19524128Y59639000D01*
X19083872Y59639000D01*
X18652075Y59553110D01*
X18245331Y59384631D01*
X17879271Y59140038D01*
X17567962Y58828729D01*
X17323369Y58462669D01*
X17154890Y58055925D01*
X17069000Y57624128D01*
X15894050Y57624128D01*
X15894050Y60813950D01*
X121265951Y60813950D01*
X121265950Y-6965950D01*
G04 #@! TA.AperFunction,Conductor*
D18*
G36*
X121265950Y-6965950D02*
G01*
X15894050Y-6965950D01*
X15894050Y-3589872D01*
X17069000Y-3589872D01*
X17069000Y-4030128D01*
X17154890Y-4461925D01*
X17323369Y-4868669D01*
X17567962Y-5234729D01*
X17879271Y-5546038D01*
X18245331Y-5790631D01*
X18652075Y-5959110D01*
X19083872Y-6045000D01*
X19524128Y-6045000D01*
X19955925Y-5959110D01*
X20362669Y-5790631D01*
X20728729Y-5546038D01*
X21040038Y-5234729D01*
X21284631Y-4868669D01*
X21453110Y-4461925D01*
X21539000Y-4030128D01*
X21539000Y-3589872D01*
X21453110Y-3158075D01*
X21284631Y-2751331D01*
X21040038Y-2385271D01*
X20728729Y-2073962D01*
X20362669Y-1829369D01*
X19955925Y-1660890D01*
X19524128Y-1575000D01*
X19083872Y-1575000D01*
X18652075Y-1660890D01*
X18245331Y-1829369D01*
X17879271Y-2073962D01*
X17567962Y-2385271D01*
X17323369Y-2751331D01*
X17154890Y-3158075D01*
X17069000Y-3589872D01*
X15894050Y-3589872D01*
X15894050Y50038000D01*
X22479000Y50038000D01*
X22479000Y-5842000D01*
X22491201Y-5965882D01*
X22527336Y-6085004D01*
X22586017Y-6194787D01*
X22664987Y-6291013D01*
X22761213Y-6369983D01*
X22870996Y-6428664D01*
X22990118Y-6464799D01*
X23114000Y-6477000D01*
X101854000Y-6477000D01*
X101977882Y-6464799D01*
X102097004Y-6428664D01*
X102206787Y-6369983D01*
X102303013Y-6291013D01*
X102381983Y-6194787D01*
X102440664Y-6085004D01*
X102476799Y-5965882D01*
X102489000Y-5842000D01*
X102489000Y-3589872D01*
X115621000Y-3589872D01*
X115621000Y-4030128D01*
X115706890Y-4461925D01*
X115875369Y-4868669D01*
X116119962Y-5234729D01*
X116431271Y-5546038D01*
X116797331Y-5790631D01*
X117204075Y-5959110D01*
X117635872Y-6045000D01*
X118076128Y-6045000D01*
X118507925Y-5959110D01*
X118914669Y-5790631D01*
X119280729Y-5546038D01*
X119592038Y-5234729D01*
X119836631Y-4868669D01*
X120005110Y-4461925D01*
X120091000Y-4030128D01*
X120091000Y-3589872D01*
X120005110Y-3158075D01*
X119836631Y-2751331D01*
X119592038Y-2385271D01*
X119280729Y-2073962D01*
X118914669Y-1829369D01*
X118507925Y-1660890D01*
X118076128Y-1575000D01*
X117635872Y-1575000D01*
X117204075Y-1660890D01*
X116797331Y-1829369D01*
X116431271Y-2073962D01*
X116119962Y-2385271D01*
X115875369Y-2751331D01*
X115706890Y-3158075D01*
X115621000Y-3589872D01*
X102489000Y-3589872D01*
X102489000Y-2821263D01*
X102491638Y-2812567D01*
X102537000Y-2352002D01*
X102537000Y2721032D01*
X102623295Y2850182D01*
X102897309Y3511710D01*
X103037000Y4213984D01*
X103037000Y4930016D01*
X102897309Y5632290D01*
X102623295Y6293818D01*
X102225489Y6889177D01*
X101719177Y7395489D01*
X101123818Y7793295D01*
X100462290Y8067309D01*
X99760016Y8207000D01*
X99043984Y8207000D01*
X98341710Y8067309D01*
X97680182Y7793295D01*
X97084823Y7395489D01*
X96578511Y6889177D01*
X96393000Y6611540D01*
X96393000Y19050000D01*
X96380799Y19173882D01*
X96344664Y19293004D01*
X96285983Y19402787D01*
X96207013Y19499013D01*
X96110787Y19577983D01*
X96001004Y19636664D01*
X95881882Y19672799D01*
X95758000Y19685000D01*
X88646000Y19685000D01*
X88522118Y19672799D01*
X88402996Y19636664D01*
X88293213Y19577983D01*
X88196987Y19499013D01*
X88118017Y19402787D01*
X88059336Y19293004D01*
X88023201Y19173882D01*
X88011000Y19050000D01*
X88011000Y1016000D01*
X88023201Y892118D01*
X88059336Y772996D01*
X88118017Y663213D01*
X88196987Y566987D01*
X88293213Y488017D01*
X88402996Y429336D01*
X88522118Y393201D01*
X88646000Y381000D01*
X95758000Y381000D01*
X95881882Y393201D01*
X96001004Y429336D01*
X96110787Y488017D01*
X96207013Y566987D01*
X96267001Y640083D01*
X96267001Y-635000D01*
X83487000Y-635000D01*
X83487000Y2721032D01*
X83573295Y2850182D01*
X83847309Y3511710D01*
X83987000Y4213984D01*
X83987000Y4930016D01*
X83847309Y5632290D01*
X83573295Y6293818D01*
X83175489Y6889177D01*
X82669177Y7395489D01*
X82073818Y7793295D01*
X81412290Y8067309D01*
X80710016Y8207000D01*
X79993984Y8207000D01*
X79291710Y8067309D01*
X78630182Y7793295D01*
X78034823Y7395489D01*
X77528511Y6889177D01*
X77343000Y6611540D01*
X77343000Y19050000D01*
X77330799Y19173882D01*
X77294664Y19293004D01*
X77235983Y19402787D01*
X77157013Y19499013D01*
X77060787Y19577983D01*
X76951004Y19636664D01*
X76831882Y19672799D01*
X76708000Y19685000D01*
X69596000Y19685000D01*
X69472118Y19672799D01*
X69352996Y19636664D01*
X69243213Y19577983D01*
X69146987Y19499013D01*
X69068017Y19402787D01*
X69009336Y19293004D01*
X68973201Y19173882D01*
X68961000Y19050000D01*
X68961000Y1016000D01*
X68973201Y892118D01*
X69009336Y772996D01*
X69068017Y663213D01*
X69146987Y566987D01*
X69243213Y488017D01*
X69352996Y429336D01*
X69472118Y393201D01*
X69596000Y381000D01*
X76708000Y381000D01*
X76831882Y393201D01*
X76951004Y429336D01*
X77060787Y488017D01*
X77157013Y566987D01*
X77217001Y640083D01*
X77217001Y-635000D01*
X64247000Y-635000D01*
X64247000Y2700632D01*
X64333295Y2829782D01*
X64607309Y3491310D01*
X64747000Y4193584D01*
X64747000Y4909616D01*
X64607309Y5611890D01*
X64333295Y6273418D01*
X63935489Y6868777D01*
X63429177Y7375089D01*
X62833818Y7772895D01*
X62172290Y8046909D01*
X61470016Y8186600D01*
X60753984Y8186600D01*
X60051710Y8046909D01*
X59390182Y7772895D01*
X58794823Y7375089D01*
X58288511Y6868777D01*
X58103000Y6591140D01*
X58103000Y19029600D01*
X58090799Y19153482D01*
X58054664Y19272604D01*
X57995983Y19382387D01*
X57917013Y19478613D01*
X57820787Y19557583D01*
X57711004Y19616264D01*
X57591882Y19652399D01*
X57468000Y19664600D01*
X50356000Y19664600D01*
X50232118Y19652399D01*
X50112996Y19616264D01*
X50003213Y19557583D01*
X49906987Y19478613D01*
X49828017Y19382387D01*
X49769336Y19272604D01*
X49733201Y19153482D01*
X49721000Y19029600D01*
X49721000Y995600D01*
X49733201Y871718D01*
X49769336Y752596D01*
X49828017Y642813D01*
X49906987Y546587D01*
X50003213Y467617D01*
X50112996Y408936D01*
X50232118Y372801D01*
X50356000Y360600D01*
X57468000Y360600D01*
X57591882Y372801D01*
X57711004Y408936D01*
X57820787Y467617D01*
X57917013Y546587D01*
X57977001Y619683D01*
X57977001Y-635000D01*
X45833400Y-635000D01*
X45833400Y2700632D01*
X45919695Y2829782D01*
X46193709Y3491310D01*
X46333400Y4193584D01*
X46333400Y4909616D01*
X46193709Y5611890D01*
X45919695Y6273418D01*
X45521889Y6868777D01*
X45015577Y7375089D01*
X44420218Y7772895D01*
X43758690Y8046909D01*
X43056416Y8186600D01*
X42340384Y8186600D01*
X41638110Y8046909D01*
X40976582Y7772895D01*
X40381223Y7375089D01*
X39874911Y6868777D01*
X39689400Y6591140D01*
X39689400Y19029600D01*
X39677199Y19153482D01*
X39641064Y19272604D01*
X39582383Y19382387D01*
X39503413Y19478613D01*
X39407187Y19557583D01*
X39297404Y19616264D01*
X39178282Y19652399D01*
X39054400Y19664600D01*
X31942400Y19664600D01*
X31818518Y19652399D01*
X31699396Y19616264D01*
X31589613Y19557583D01*
X31493387Y19478613D01*
X31414417Y19382387D01*
X31355736Y19272604D01*
X31319601Y19153482D01*
X31307400Y19029600D01*
X31307400Y995600D01*
X31319601Y871718D01*
X31355736Y752596D01*
X31414417Y642813D01*
X31493387Y546587D01*
X31589613Y467617D01*
X31699396Y408936D01*
X31818518Y372801D01*
X31942400Y360600D01*
X39054400Y360600D01*
X39178282Y372801D01*
X39297404Y408936D01*
X39407187Y467617D01*
X39503413Y546587D01*
X39563401Y619683D01*
X39563401Y-635000D01*
X29845000Y-635000D01*
X29845000Y20198784D01*
X43711400Y20198784D01*
X43711400Y19896416D01*
X43770389Y19599857D01*
X43886101Y19320505D01*
X44054088Y19069095D01*
X44267895Y18855288D01*
X44519305Y18687301D01*
X44798657Y18571589D01*
X45095216Y18512600D01*
X45397584Y18512600D01*
X45694143Y18571589D01*
X45973495Y18687301D01*
X46224905Y18855288D01*
X46438712Y19069095D01*
X46606699Y19320505D01*
X46722411Y19599857D01*
X46781400Y19896416D01*
X46781400Y20198784D01*
X62125000Y20198784D01*
X62125000Y19896416D01*
X62183989Y19599857D01*
X62299701Y19320505D01*
X62467688Y19069095D01*
X62681495Y18855288D01*
X62932905Y18687301D01*
X63212257Y18571589D01*
X63508816Y18512600D01*
X63811184Y18512600D01*
X64107743Y18571589D01*
X64387095Y18687301D01*
X64638505Y18855288D01*
X64852312Y19069095D01*
X65020299Y19320505D01*
X65136011Y19599857D01*
X65195000Y19896416D01*
X65195000Y20198784D01*
X65190943Y20219184D01*
X81365000Y20219184D01*
X81365000Y19916816D01*
X81423989Y19620257D01*
X81539701Y19340905D01*
X81707688Y19089495D01*
X81921495Y18875688D01*
X82172905Y18707701D01*
X82452257Y18591989D01*
X82748816Y18533000D01*
X83051184Y18533000D01*
X83347743Y18591989D01*
X83627095Y18707701D01*
X83878505Y18875688D01*
X84092312Y19089495D01*
X84260299Y19340905D01*
X84376011Y19620257D01*
X84435000Y19916816D01*
X84435000Y20219184D01*
X100415000Y20219184D01*
X100415000Y19916816D01*
X100473989Y19620257D01*
X100589701Y19340905D01*
X100757688Y19089495D01*
X100971495Y18875688D01*
X101222905Y18707701D01*
X101502257Y18591989D01*
X101798816Y18533000D01*
X102101184Y18533000D01*
X102397743Y18591989D01*
X102677095Y18707701D01*
X102928505Y18875688D01*
X103142312Y19089495D01*
X103310299Y19340905D01*
X103426011Y19620257D01*
X103485000Y19916816D01*
X103485000Y20219184D01*
X103426011Y20515743D01*
X103310299Y20795095D01*
X103142312Y21046505D01*
X102928505Y21260312D01*
X102677095Y21428299D01*
X102397743Y21544011D01*
X102101184Y21603000D01*
X101798816Y21603000D01*
X101502257Y21544011D01*
X101222905Y21428299D01*
X100971495Y21260312D01*
X100757688Y21046505D01*
X100589701Y20795095D01*
X100473989Y20515743D01*
X100415000Y20219184D01*
X84435000Y20219184D01*
X84376011Y20515743D01*
X84260299Y20795095D01*
X84092312Y21046505D01*
X83878505Y21260312D01*
X83627095Y21428299D01*
X83347743Y21544011D01*
X83051184Y21603000D01*
X82748816Y21603000D01*
X82452257Y21544011D01*
X82172905Y21428299D01*
X81921495Y21260312D01*
X81707688Y21046505D01*
X81539701Y20795095D01*
X81423989Y20515743D01*
X81365000Y20219184D01*
X65190943Y20219184D01*
X65136011Y20495343D01*
X65020299Y20774695D01*
X64852312Y21026105D01*
X64638505Y21239912D01*
X64387095Y21407899D01*
X64107743Y21523611D01*
X63811184Y21582600D01*
X63508816Y21582600D01*
X63212257Y21523611D01*
X62932905Y21407899D01*
X62681495Y21239912D01*
X62467688Y21026105D01*
X62299701Y20774695D01*
X62183989Y20495343D01*
X62125000Y20198784D01*
X46781400Y20198784D01*
X46722411Y20495343D01*
X46606699Y20774695D01*
X46438712Y21026105D01*
X46224905Y21239912D01*
X45973495Y21407899D01*
X45694143Y21523611D01*
X45397584Y21582600D01*
X45095216Y21582600D01*
X44798657Y21523611D01*
X44519305Y21407899D01*
X44267895Y21239912D01*
X44054088Y21026105D01*
X43886101Y20774695D01*
X43770389Y20495343D01*
X43711400Y20198784D01*
X29845000Y20198784D01*
X29845000Y29745000D01*
X35231049Y29745000D01*
X35371111Y29651414D01*
X35541271Y29580932D01*
X35721911Y29545000D01*
X35906089Y29545000D01*
X36086729Y29580932D01*
X36256889Y29651414D01*
X36396951Y29745000D01*
X53519049Y29745000D01*
X53659111Y29651414D01*
X53829271Y29580932D01*
X54009911Y29545000D01*
X54194089Y29545000D01*
X54374729Y29580932D01*
X54544889Y29651414D01*
X54684951Y29745000D01*
X72823049Y29745000D01*
X72963111Y29651414D01*
X73133271Y29580932D01*
X73313911Y29545000D01*
X73498089Y29545000D01*
X73678729Y29580932D01*
X73848889Y29651414D01*
X73988951Y29745000D01*
X92165895Y29745000D01*
X92202000Y29741444D01*
X92238105Y29745000D01*
X92346085Y29755635D01*
X92484633Y29797663D01*
X92487134Y29799000D01*
X92548089Y29799000D01*
X92728729Y29834932D01*
X92898889Y29905414D01*
X93052028Y30007738D01*
X93182262Y30137972D01*
X93284586Y30291111D01*
X93355068Y30461271D01*
X93391000Y30641911D01*
X93391000Y30826089D01*
X93355068Y31006729D01*
X93284586Y31176889D01*
X93182262Y31330028D01*
X93052028Y31460262D01*
X92898889Y31562586D01*
X92728729Y31633068D01*
X92548089Y31669000D01*
X92363911Y31669000D01*
X92183271Y31633068D01*
X92013111Y31562586D01*
X91859972Y31460262D01*
X91729738Y31330028D01*
X91652879Y31215000D01*
X73988951Y31215000D01*
X73848889Y31308586D01*
X73678729Y31379068D01*
X73498089Y31415000D01*
X73313911Y31415000D01*
X73133271Y31379068D01*
X72963111Y31308586D01*
X72823049Y31215000D01*
X54684951Y31215000D01*
X54544889Y31308586D01*
X54374729Y31379068D01*
X54194089Y31415000D01*
X54009911Y31415000D01*
X53829271Y31379068D01*
X53659111Y31308586D01*
X53519049Y31215000D01*
X36396951Y31215000D01*
X36256889Y31308586D01*
X36086729Y31379068D01*
X35906089Y31415000D01*
X35721911Y31415000D01*
X35541271Y31379068D01*
X35371111Y31308586D01*
X35231049Y31215000D01*
X29845000Y31215000D01*
X29845000Y44529000D01*
X34471032Y44529000D01*
X34600182Y44442705D01*
X35261710Y44168691D01*
X35963984Y44029000D01*
X36680016Y44029000D01*
X37382290Y44168691D01*
X38043818Y44442705D01*
X38639177Y44840511D01*
X39145489Y45346823D01*
X39456369Y45812089D01*
X63581000Y45812089D01*
X63581000Y45627911D01*
X63616932Y45447271D01*
X63687414Y45277111D01*
X63789738Y45123972D01*
X63919972Y44993738D01*
X64073111Y44891414D01*
X64243271Y44820932D01*
X64423911Y44785000D01*
X64608089Y44785000D01*
X64788729Y44820932D01*
X64958889Y44891414D01*
X65112028Y44993738D01*
X65242262Y45123972D01*
X65312772Y45229499D01*
X70181621Y45229499D01*
X70184999Y45195201D01*
X70184999Y44466799D01*
X70181621Y44432501D01*
X70184999Y44398203D01*
X70184999Y44398193D01*
X70195106Y44295572D01*
X70235047Y44163905D01*
X70235048Y44163903D01*
X70299908Y44042558D01*
X70365325Y43962848D01*
X70365328Y43962845D01*
X70387196Y43936199D01*
X70413842Y43914331D01*
X70439000Y43889173D01*
X70439000Y43849911D01*
X70474932Y43669271D01*
X70545414Y43499111D01*
X70647738Y43345972D01*
X70777972Y43215738D01*
X70931111Y43113414D01*
X71101271Y43042932D01*
X71281911Y43007000D01*
X71466089Y43007000D01*
X71646729Y43042932D01*
X71816889Y43113414D01*
X71970028Y43215738D01*
X72100262Y43345972D01*
X72202586Y43499111D01*
X72273068Y43669271D01*
X72309000Y43849911D01*
X72309000Y44034089D01*
X72273068Y44214729D01*
X72228221Y44323000D01*
X72273068Y44431271D01*
X72309000Y44611911D01*
X72309000Y44767500D01*
X105629702Y44767500D01*
X105664000Y44764122D01*
X105698298Y44767500D01*
X105698309Y44767500D01*
X105800930Y44777607D01*
X105932597Y44817548D01*
X106053943Y44882409D01*
X106160303Y44969697D01*
X106182175Y44996348D01*
X107494828Y46309000D01*
X107534089Y46309000D01*
X107714729Y46344932D01*
X107884889Y46415414D01*
X108038028Y46517738D01*
X108168262Y46647972D01*
X108270586Y46801111D01*
X108341068Y46971271D01*
X108377000Y47151911D01*
X108377000Y47336089D01*
X108341068Y47516729D01*
X108270586Y47686889D01*
X108168262Y47840028D01*
X108129290Y47879000D01*
X108168262Y47917972D01*
X108270586Y48071111D01*
X108341068Y48241271D01*
X108377000Y48421911D01*
X108377000Y48606089D01*
X108341068Y48786729D01*
X108270586Y48956889D01*
X108168262Y49110028D01*
X108038028Y49240262D01*
X107884889Y49342586D01*
X107714729Y49413068D01*
X107534089Y49449000D01*
X107349911Y49449000D01*
X107169271Y49413068D01*
X106999111Y49342586D01*
X106845972Y49240262D01*
X106715738Y49110028D01*
X106613414Y48956889D01*
X106542932Y48786729D01*
X106507000Y48606089D01*
X106507000Y48566828D01*
X104358673Y46418500D01*
X71408297Y46418500D01*
X71373999Y46421878D01*
X71339701Y46418500D01*
X71339691Y46418500D01*
X71237070Y46408393D01*
X71105403Y46368452D01*
X71105401Y46368451D01*
X70984056Y46303591D01*
X70904345Y46238174D01*
X70904337Y46238166D01*
X70877697Y46216303D01*
X70855833Y46189662D01*
X70413842Y45747669D01*
X70387197Y45725802D01*
X70365329Y45699156D01*
X70365325Y45699152D01*
X70299908Y45619442D01*
X70235048Y45498097D01*
X70227507Y45473237D01*
X70195106Y45366429D01*
X70184999Y45263808D01*
X70184999Y45263797D01*
X70181621Y45229499D01*
X65312772Y45229499D01*
X65344586Y45277111D01*
X65415068Y45447271D01*
X65451000Y45627911D01*
X65451000Y45812089D01*
X65415068Y45992729D01*
X65344586Y46162889D01*
X65251000Y46302951D01*
X65251000Y50495554D01*
X66213538Y51458091D01*
X66202000Y51400089D01*
X66202000Y51215911D01*
X66237932Y51035271D01*
X66308414Y50865111D01*
X66410738Y50711972D01*
X66540972Y50581738D01*
X66694111Y50479414D01*
X66864271Y50408932D01*
X67044911Y50373000D01*
X67229089Y50373000D01*
X67409729Y50408932D01*
X67564000Y50472833D01*
X67718271Y50408932D01*
X67898911Y50373000D01*
X68083089Y50373000D01*
X68164809Y50389255D01*
X66713485Y48937932D01*
X66548271Y48905068D01*
X66378111Y48834586D01*
X66224972Y48732262D01*
X66094738Y48602028D01*
X65992414Y48448889D01*
X65921932Y48278729D01*
X65886000Y48098089D01*
X65886000Y47913911D01*
X65921932Y47733271D01*
X65992414Y47563111D01*
X66094738Y47409972D01*
X66224972Y47279738D01*
X66378111Y47177414D01*
X66548271Y47106932D01*
X66728911Y47071000D01*
X66913089Y47071000D01*
X67093729Y47106932D01*
X67263889Y47177414D01*
X67417028Y47279738D01*
X67547262Y47409972D01*
X67649586Y47563111D01*
X67720068Y47733271D01*
X67752932Y47898485D01*
X69919447Y50065000D01*
X82475049Y50065000D01*
X82615111Y49971414D01*
X82785271Y49900932D01*
X82965911Y49865000D01*
X83150089Y49865000D01*
X83330729Y49900932D01*
X83500889Y49971414D01*
X83654028Y50073738D01*
X83784262Y50203972D01*
X83886586Y50357111D01*
X83957068Y50527271D01*
X83993000Y50707911D01*
X83993000Y50892089D01*
X83957068Y51072729D01*
X83886586Y51242889D01*
X83784262Y51396028D01*
X83654028Y51526262D01*
X83500889Y51628586D01*
X83330729Y51699068D01*
X83150089Y51735000D01*
X82965911Y51735000D01*
X82785271Y51699068D01*
X82615111Y51628586D01*
X82475049Y51535000D01*
X69950091Y51535000D01*
X69987068Y51624271D01*
X70023000Y51804911D01*
X70023000Y51989089D01*
X69987068Y52169729D01*
X69923167Y52324000D01*
X69987068Y52478271D01*
X70023000Y52658911D01*
X70023000Y52843089D01*
X69987068Y53023729D01*
X69916586Y53193889D01*
X69814262Y53347028D01*
X69684028Y53477262D01*
X69530889Y53579586D01*
X69360729Y53650068D01*
X69180089Y53686000D01*
X68995911Y53686000D01*
X68815271Y53650068D01*
X68645111Y53579586D01*
X68491972Y53477262D01*
X68361738Y53347028D01*
X68286893Y53235015D01*
X68216780Y53228109D01*
X68082719Y53187442D01*
X67959167Y53121402D01*
X67850873Y53032527D01*
X67828603Y53005391D01*
X67066213Y52243000D01*
X67044911Y52243000D01*
X66986909Y52231463D01*
X69195515Y54440069D01*
X69360729Y54472932D01*
X69530889Y54543414D01*
X69684028Y54645738D01*
X69814262Y54775972D01*
X69916586Y54929111D01*
X69987068Y55099271D01*
X70023000Y55279911D01*
X70023000Y55464089D01*
X69987068Y55644729D01*
X69916586Y55814889D01*
X69814262Y55968028D01*
X69684028Y56098262D01*
X69530889Y56200586D01*
X69360729Y56271068D01*
X69180089Y56307000D01*
X68995911Y56307000D01*
X68815271Y56271068D01*
X68645111Y56200586D01*
X68491972Y56098262D01*
X68361738Y55968028D01*
X68259414Y55814889D01*
X68188932Y55644729D01*
X68156069Y55479515D01*
X64021808Y51345254D01*
X63993762Y51322237D01*
X63901913Y51210319D01*
X63833663Y51082632D01*
X63819068Y51034519D01*
X63791635Y50944085D01*
X63777444Y50800000D01*
X63781000Y50763895D01*
X63781001Y46302952D01*
X63687414Y46162889D01*
X63616932Y45992729D01*
X63581000Y45812089D01*
X39456369Y45812089D01*
X39543295Y45942182D01*
X39817309Y46603710D01*
X39957000Y47305984D01*
X39957000Y48022016D01*
X39817309Y48724290D01*
X39543295Y49385818D01*
X39145489Y49981177D01*
X38639177Y50487489D01*
X38043818Y50885295D01*
X37382290Y51159309D01*
X36680016Y51299000D01*
X35963984Y51299000D01*
X35261710Y51159309D01*
X34600182Y50885295D01*
X34471032Y50799000D01*
X26681998Y50799000D01*
X26221433Y50753638D01*
X25955604Y50673000D01*
X23114000Y50673000D01*
X22990118Y50660799D01*
X22870996Y50624664D01*
X22761213Y50565983D01*
X22664987Y50487013D01*
X22586017Y50390787D01*
X22527336Y50281004D01*
X22491201Y50161882D01*
X22479000Y50038000D01*
X15894050Y50038000D01*
X15894050Y57624128D01*
X17069000Y57624128D01*
X17069000Y57183872D01*
X17154890Y56752075D01*
X17323369Y56345331D01*
X17567962Y55979271D01*
X17879271Y55667962D01*
X18245331Y55423369D01*
X18652075Y55254890D01*
X19083872Y55169000D01*
X19524128Y55169000D01*
X19955925Y55254890D01*
X20362669Y55423369D01*
X20728729Y55667962D01*
X21040038Y55979271D01*
X21284631Y56345331D01*
X21453110Y56752075D01*
X21539000Y57183872D01*
X21539000Y57624128D01*
X21488477Y57878128D01*
X115621000Y57878128D01*
X115621000Y57437872D01*
X115706890Y57006075D01*
X115875369Y56599331D01*
X116119962Y56233271D01*
X116431271Y55921962D01*
X116797331Y55677369D01*
X117204075Y55508890D01*
X117635872Y55423000D01*
X118076128Y55423000D01*
X118507925Y55508890D01*
X118914669Y55677369D01*
X119280729Y55921962D01*
X119592038Y56233271D01*
X119836631Y56599331D01*
X120005110Y57006075D01*
X120091000Y57437872D01*
X120091000Y57878128D01*
X120005110Y58309925D01*
X119836631Y58716669D01*
X119592038Y59082729D01*
X119280729Y59394038D01*
X118914669Y59638631D01*
X118507925Y59807110D01*
X118076128Y59893000D01*
X117635872Y59893000D01*
X117204075Y59807110D01*
X116797331Y59638631D01*
X116431271Y59394038D01*
X116119962Y59082729D01*
X115875369Y58716669D01*
X115706890Y58309925D01*
X115621000Y57878128D01*
X21488477Y57878128D01*
X21453110Y58055925D01*
X21284631Y58462669D01*
X21040038Y58828729D01*
X20728729Y59140038D01*
X20362669Y59384631D01*
X19955925Y59553110D01*
X19524128Y59639000D01*
X19083872Y59639000D01*
X18652075Y59553110D01*
X18245331Y59384631D01*
X17879271Y59140038D01*
X17567962Y58828729D01*
X17323369Y58462669D01*
X17154890Y58055925D01*
X17069000Y57624128D01*
X15894050Y57624128D01*
X15894050Y60813950D01*
X121265951Y60813950D01*
X121265950Y-6965950D01*
G37*
G04 #@! TD.AperFunction*
M02*
