M48
; DRILL file {KiCad 5.1.9} date Sat Jan 16 18:22:42 2021
; FORMAT={-:-/ absolute / inch / decimal}
; #@! TF.CreationDate,2021-01-16T18:22:42+01:00
; #@! TF.GenerationSoftware,Kicad,Pcbnew,5.1.9
FMAT,2
INCH
T1C0.0118
T2C0.0236
T3C0.0335
T4C0.0354
T5C0.1772
T6C0.1260
%
G90
G05
T1
X0.9886Y1.7327
X0.9886Y1.6755
X0.9886Y1.6182
X0.9886Y1.561
X0.9886Y1.5037
X0.9886Y1.4465
X0.9886Y1.3893
X0.9886Y1.332
X0.9886Y1.2748
X0.9886Y1.2175
X0.9886Y1.1603
X0.9886Y1.103
X0.9886Y1.0458
X0.9886Y0.9885
X0.9886Y0.9313
X0.9886Y0.8741
X0.9886Y0.8168
X0.9886Y0.7596
X0.9886Y0.7023
X0.9886Y0.6451
X0.9886Y0.5878
X0.9886Y0.5306
X0.9886Y0.4733
X0.9886Y0.4161
X0.9886Y0.3589
X0.9886Y0.3016
X0.9886Y0.2444
X0.9886Y0.1871
X0.9886Y0.1299
X0.9886Y0.0726
X0.9886Y0.0154
X0.9886Y-0.0419
X0.9886Y-0.0991
X0.9886Y-0.1563
X1.0172Y1.7041
X1.0172Y1.6469
X1.0172Y1.5896
X1.0172Y1.5324
X1.0172Y1.4751
X1.0172Y1.4179
X1.0172Y1.3606
X1.0172Y1.3034
X1.0172Y1.2461
X1.0172Y1.1317
X1.0172Y1.0744
X1.0172Y1.0172
X1.0172Y0.9599
X1.0172Y0.9027
X1.0172Y0.8454
X1.0172Y0.7882
X1.0172Y0.7309
X1.0172Y0.6737
X1.0172Y0.6165
X1.0172Y0.5592
X1.0172Y0.502
X1.0172Y0.4447
X1.0172Y0.3875
X1.0172Y0.3302
X1.0172Y0.273
X1.0172Y0.2157
X1.0172Y0.1585
X1.0172Y0.1013
X1.0172Y0.044
X1.0172Y-0.0132
X1.0172Y-0.0705
X1.0172Y-0.1277
X1.0458Y1.7327
X1.0458Y1.6755
X1.0458Y1.6182
X1.0458Y1.561
X1.0458Y1.5037
X1.0458Y1.4465
X1.0458Y1.3893
X1.0458Y1.332
X1.0458Y1.2748
X1.0458Y1.1603
X1.0458Y1.103
X1.0458Y1.0458
X1.0458Y0.9885
X1.0458Y0.9313
X1.0458Y0.8741
X1.0458Y0.8168
X1.0458Y0.7596
X1.0458Y0.7023
X1.0458Y0.6451
X1.0458Y0.5878
X1.0458Y0.5306
X1.0458Y0.4733
X1.0458Y0.4161
X1.0458Y0.3589
X1.0458Y0.3016
X1.0458Y0.2444
X1.0458Y0.1871
X1.0458Y0.1299
X1.0458Y0.0726
X1.0458Y0.0154
X1.0458Y-0.0419
X1.0458Y-0.0991
X1.0458Y-0.1563
X1.0745Y1.7041
X1.0745Y1.6469
X1.0745Y1.5896
X1.0745Y1.5324
X1.0745Y1.4751
X1.0745Y1.4179
X1.0745Y1.3606
X1.0745Y1.3034
X1.0745Y1.2461
X1.0745Y1.1317
X1.0745Y1.0744
X1.0745Y1.0172
X1.0745Y0.9599
X1.0745Y0.9027
X1.0745Y0.8454
X1.0745Y0.7882
X1.0745Y0.7309
X1.0745Y0.6737
X1.0745Y0.6165
X1.0745Y0.5592
X1.0745Y0.502
X1.0745Y0.4447
X1.0745Y0.3875
X1.0745Y0.3302
X1.0745Y0.273
X1.0745Y0.2157
X1.0745Y0.1585
X1.0745Y0.1013
X1.0745Y0.044
X1.0745Y-0.0132
X1.0745Y-0.0705
X1.0745Y-0.1277
X1.1031Y-0.0991
X1.1031Y-0.1563
X1.1317Y-0.1277
X1.1603Y-0.1563
X1.1889Y-0.1277
X1.2176Y-0.1563
X1.22Y0.96
X1.22Y0.93
X1.22Y0.9
X1.22Y0.87
X1.22Y0.84
X1.22Y0.81
X1.2462Y-0.1277
X1.25Y0.96
X1.25Y0.93
X1.25Y0.9
X1.25Y0.87
X1.25Y0.84
X1.25Y0.81
X1.2748Y-0.1563
X1.28Y0.96
X1.28Y0.93
X1.3034Y-0.1277
X1.31Y0.96
X1.31Y0.93
X1.3321Y0.4447
X1.3321Y0.3875
X1.3321Y0.3302
X1.3321Y-0.1563
X1.3607Y0.4161
X1.3607Y0.3589
X1.3607Y-0.1277
X1.3893Y0.4447
X1.3893Y0.3875
X1.3893Y0.3302
X1.3893Y-0.1563
X1.41Y1.2
X1.4179Y0.4161
X1.4179Y0.3589
X1.4179Y-0.1277
X1.4465Y0.4447
X1.4465Y0.3875
X1.4465Y0.3302
X1.4465Y-0.1563
X1.4752Y0.4161
X1.4752Y0.3589
X1.4752Y-0.1277
X1.5038Y-0.1563
X1.5324Y-0.1277
X1.8186Y-0.1277
X1.8473Y-0.1563
X1.8759Y-0.1277
X1.9045Y-0.1563
X1.9331Y-0.1277
X1.95Y0.96
X1.95Y0.93
X1.95Y0.9
X1.95Y0.87
X1.95Y0.84
X1.9617Y-0.1563
X1.98Y0.96
X1.98Y0.93
X1.98Y0.9
X1.98Y0.87
X1.98Y0.84
X1.9904Y-0.1277
X2.01Y0.96
X2.01Y0.93
X2.019Y-0.1563
X2.04Y0.96
X2.04Y0.93
X2.0476Y0.4447
X2.0476Y0.3875
X2.0476Y0.3302
X2.0476Y-0.1277
X2.0762Y0.4161
X2.0762Y0.3589
X2.0762Y-0.1563
X2.1049Y0.4447
X2.1049Y0.3875
X2.1049Y0.3302
X2.1049Y-0.1277
X2.13Y1.2
X2.1335Y0.4161
X2.1335Y0.3589
X2.1335Y-0.1563
X2.1621Y0.4447
X2.1621Y0.3875
X2.1621Y0.3302
X2.1621Y-0.1277
X2.1907Y0.4161
X2.1907Y0.3589
X2.1907Y-0.1563
X2.2193Y-0.1277
X2.248Y-0.1563
X2.54Y1.8
X2.5628Y-0.1277
X2.5914Y-0.1563
X2.62Y-0.1277
X2.6307Y1.89
X2.6432Y2.02
X2.6487Y-0.1563
X2.6768Y2.02
X2.6773Y-0.1277
X2.7Y0.97
X2.7Y0.94
X2.7Y0.91
X2.7Y0.88
X2.7Y0.85
X2.7Y0.82
X2.7059Y-0.1563
X2.72Y2.18
X2.72Y2.0768
X2.72Y2.0432
X2.73Y0.97
X2.73Y0.94
X2.73Y0.91
X2.73Y0.88
X2.73Y0.85
X2.73Y0.82
X2.7345Y-0.1277
X2.76Y0.97
X2.76Y0.94
X2.7632Y-0.1563
X2.79Y0.97
X2.79Y0.94
X2.7918Y-0.1277
X2.81Y1.76
X2.81Y1.73
X2.8204Y0.4447
X2.8204Y0.3875
X2.8204Y0.3302
X2.8204Y-0.1563
X2.849Y0.4161
X2.849Y0.3589
X2.849Y-0.1277
X2.8776Y0.4447
X2.8776Y0.3875
X2.8776Y0.3302
X2.8776Y-0.1563
X2.89Y1.2
X2.9063Y0.4161
X2.9063Y0.3589
X2.9063Y-0.1277
X2.9349Y0.4447
X2.9349Y0.3875
X2.9349Y0.3302
X2.9349Y-0.1563
X2.9635Y0.4161
X2.9635Y0.3589
X2.9635Y-0.1277
X2.9921Y-0.1563
X3.0208Y-0.1277
X3.27Y2.0
X3.307Y-0.1277
X3.3356Y-0.1563
X3.3642Y-0.1277
X3.3928Y-0.1563
X3.4215Y-0.1277
X3.45Y0.96
X3.45Y0.93
X3.45Y0.9
X3.45Y0.87
X3.45Y0.84
X3.45Y0.81
X3.4501Y-0.1563
X3.4787Y-0.1277
X3.48Y0.96
X3.48Y0.93
X3.48Y0.9
X3.48Y0.87
X3.48Y0.84
X3.48Y0.81
X3.5073Y-0.1563
X3.51Y0.96
X3.51Y0.93
X3.536Y-0.1277
X3.54Y0.96
X3.54Y0.93
X3.5646Y0.4447
X3.5646Y0.3875
X3.5646Y0.3302
X3.5646Y-0.1563
X3.5932Y0.4161
X3.5932Y0.3589
X3.5932Y-0.1277
X3.6218Y0.4447
X3.6218Y0.3875
X3.6218Y0.3302
X3.6218Y-0.1563
X3.64Y1.21
X3.6504Y0.4161
X3.6504Y0.3589
X3.6504Y-0.1277
X3.6791Y0.4447
X3.6791Y0.3875
X3.6791Y0.3302
X3.6791Y-0.1563
X3.7077Y0.4161
X3.7077Y0.3589
X3.7077Y-0.1277
X3.7363Y-0.1563
X3.7649Y-0.1277
X4.23Y1.91
X4.23Y1.86
T3
X2.5716Y2.2524
X2.7684Y2.2524
T4
X1.6814Y0.7893
X1.7814Y0.7893
X2.4063Y0.7893
X2.5063Y0.7893
X3.1638Y0.7901
X3.2638Y0.7901
X3.9138Y0.7901
X4.0138Y0.7901
T5
X1.3976Y0.1792
X1.43Y2.16
X1.43Y1.8765
X1.681Y0.1792
X2.1225Y0.1792
X2.406Y0.1792
X2.88Y0.18
X3.1635Y0.18
X3.63Y0.18
X3.9135Y0.18
T6
X0.76Y2.26
X0.76Y-0.15
X4.64Y2.27
X4.64Y-0.15
T2
G00X2.5322Y2.3449
M15
G01X2.5322Y2.3725
M16
G05
G00X2.8078Y2.3725
M15
G01X2.8078Y2.3449
M16
G05
T0
M30
