G04 #@! TF.GenerationSoftware,KiCad,Pcbnew,5.1.9*
G04 #@! TF.CreationDate,2021-01-16T18:22:49+01:00*
G04 #@! TF.ProjectId,firework-ignition-system,66697265-776f-4726-9b2d-69676e697469,1*
G04 #@! TF.SameCoordinates,Original*
G04 #@! TF.FileFunction,Soldermask,Top*
G04 #@! TF.FilePolarity,Negative*
%FSLAX46Y46*%
G04 Gerber Fmt 4.6, Leading zero omitted, Abs format (unit mm)*
G04 Created by KiCad (PCBNEW 5.1.9) date 2021-01-16 18:22:49*
%MOMM*%
%LPD*%
G01*
G04 APERTURE LIST*
%ADD10R,2.600000X2.600000*%
%ADD11R,1.200000X1.900000*%
%ADD12O,1.200000X1.900000*%
%ADD13R,1.500000X1.900000*%
%ADD14C,1.450000*%
%ADD15R,0.400000X1.350000*%
%ADD16R,0.650000X1.060000*%
%ADD17R,5.800000X6.400000*%
%ADD18R,1.200000X2.200000*%
%ADD19C,6.000000*%
%ADD20C,1.800000*%
%ADD21R,1.800000X1.800000*%
%ADD22C,3.200000*%
%ADD23R,0.800000X0.900000*%
%ADD24R,2.000000X0.900000*%
%ADD25R,0.900000X2.000000*%
%ADD26R,5.000000X5.000000*%
%ADD27R,1.500000X2.000000*%
%ADD28R,3.800000X2.000000*%
%ADD29C,0.152400*%
G04 APERTURE END LIST*
G36*
G01*
X46090000Y48148001D02*
X46090000Y46847999D01*
G75*
G02*
X45840001Y46598000I-249999J0D01*
G01*
X45189999Y46598000D01*
G75*
G02*
X44940000Y46847999I0J249999D01*
G01*
X44940000Y48148001D01*
G75*
G02*
X45189999Y48398000I249999J0D01*
G01*
X45840001Y48398000D01*
G75*
G02*
X46090000Y48148001I0J-249999D01*
G01*
G37*
G36*
G01*
X49040000Y48148001D02*
X49040000Y46847999D01*
G75*
G02*
X48790001Y46598000I-249999J0D01*
G01*
X48139999Y46598000D01*
G75*
G02*
X47890000Y46847999I0J249999D01*
G01*
X47890000Y48148001D01*
G75*
G02*
X48139999Y48398000I249999J0D01*
G01*
X48790001Y48398000D01*
G75*
G02*
X49040000Y48148001I0J-249999D01*
G01*
G37*
G36*
G01*
X53224000Y46847999D02*
X53224000Y48148001D01*
G75*
G02*
X53473999Y48398000I249999J0D01*
G01*
X54124001Y48398000D01*
G75*
G02*
X54374000Y48148001I0J-249999D01*
G01*
X54374000Y46847999D01*
G75*
G02*
X54124001Y46598000I-249999J0D01*
G01*
X53473999Y46598000D01*
G75*
G02*
X53224000Y46847999I0J249999D01*
G01*
G37*
G36*
G01*
X50274000Y46847999D02*
X50274000Y48148001D01*
G75*
G02*
X50523999Y48398000I249999J0D01*
G01*
X51174001Y48398000D01*
G75*
G02*
X51424000Y48148001I0J-249999D01*
G01*
X51424000Y46847999D01*
G75*
G02*
X51174001Y46598000I-249999J0D01*
G01*
X50523999Y46598000D01*
G75*
G02*
X50274000Y46847999I0J249999D01*
G01*
G37*
G36*
G01*
X84185999Y48630000D02*
X85486001Y48630000D01*
G75*
G02*
X85736000Y48380001I0J-249999D01*
G01*
X85736000Y47729999D01*
G75*
G02*
X85486001Y47480000I-249999J0D01*
G01*
X84185999Y47480000D01*
G75*
G02*
X83936000Y47729999I0J249999D01*
G01*
X83936000Y48380001D01*
G75*
G02*
X84185999Y48630000I249999J0D01*
G01*
G37*
G36*
G01*
X84185999Y51580000D02*
X85486001Y51580000D01*
G75*
G02*
X85736000Y51330001I0J-249999D01*
G01*
X85736000Y50679999D01*
G75*
G02*
X85486001Y50430000I-249999J0D01*
G01*
X84185999Y50430000D01*
G75*
G02*
X83936000Y50679999I0J249999D01*
G01*
X83936000Y51330001D01*
G75*
G02*
X84185999Y51580000I249999J0D01*
G01*
G37*
D10*
X67564000Y44704000D03*
G36*
G01*
X69151500Y46079000D02*
X69851500Y46079000D01*
G75*
G02*
X69914000Y46016500I0J-62500D01*
G01*
X69914000Y45891500D01*
G75*
G02*
X69851500Y45829000I-62500J0D01*
G01*
X69151500Y45829000D01*
G75*
G02*
X69089000Y45891500I0J62500D01*
G01*
X69089000Y46016500D01*
G75*
G02*
X69151500Y46079000I62500J0D01*
G01*
G37*
G36*
G01*
X69151500Y45579000D02*
X69851500Y45579000D01*
G75*
G02*
X69914000Y45516500I0J-62500D01*
G01*
X69914000Y45391500D01*
G75*
G02*
X69851500Y45329000I-62500J0D01*
G01*
X69151500Y45329000D01*
G75*
G02*
X69089000Y45391500I0J62500D01*
G01*
X69089000Y45516500D01*
G75*
G02*
X69151500Y45579000I62500J0D01*
G01*
G37*
G36*
G01*
X69151500Y45079000D02*
X69851500Y45079000D01*
G75*
G02*
X69914000Y45016500I0J-62500D01*
G01*
X69914000Y44891500D01*
G75*
G02*
X69851500Y44829000I-62500J0D01*
G01*
X69151500Y44829000D01*
G75*
G02*
X69089000Y44891500I0J62500D01*
G01*
X69089000Y45016500D01*
G75*
G02*
X69151500Y45079000I62500J0D01*
G01*
G37*
G36*
G01*
X69151500Y44579000D02*
X69851500Y44579000D01*
G75*
G02*
X69914000Y44516500I0J-62500D01*
G01*
X69914000Y44391500D01*
G75*
G02*
X69851500Y44329000I-62500J0D01*
G01*
X69151500Y44329000D01*
G75*
G02*
X69089000Y44391500I0J62500D01*
G01*
X69089000Y44516500D01*
G75*
G02*
X69151500Y44579000I62500J0D01*
G01*
G37*
G36*
G01*
X69151500Y44079000D02*
X69851500Y44079000D01*
G75*
G02*
X69914000Y44016500I0J-62500D01*
G01*
X69914000Y43891500D01*
G75*
G02*
X69851500Y43829000I-62500J0D01*
G01*
X69151500Y43829000D01*
G75*
G02*
X69089000Y43891500I0J62500D01*
G01*
X69089000Y44016500D01*
G75*
G02*
X69151500Y44079000I62500J0D01*
G01*
G37*
G36*
G01*
X69151500Y43579000D02*
X69851500Y43579000D01*
G75*
G02*
X69914000Y43516500I0J-62500D01*
G01*
X69914000Y43391500D01*
G75*
G02*
X69851500Y43329000I-62500J0D01*
G01*
X69151500Y43329000D01*
G75*
G02*
X69089000Y43391500I0J62500D01*
G01*
X69089000Y43516500D01*
G75*
G02*
X69151500Y43579000I62500J0D01*
G01*
G37*
G36*
G01*
X68751500Y43179000D02*
X68876500Y43179000D01*
G75*
G02*
X68939000Y43116500I0J-62500D01*
G01*
X68939000Y42416500D01*
G75*
G02*
X68876500Y42354000I-62500J0D01*
G01*
X68751500Y42354000D01*
G75*
G02*
X68689000Y42416500I0J62500D01*
G01*
X68689000Y43116500D01*
G75*
G02*
X68751500Y43179000I62500J0D01*
G01*
G37*
G36*
G01*
X68251500Y43179000D02*
X68376500Y43179000D01*
G75*
G02*
X68439000Y43116500I0J-62500D01*
G01*
X68439000Y42416500D01*
G75*
G02*
X68376500Y42354000I-62500J0D01*
G01*
X68251500Y42354000D01*
G75*
G02*
X68189000Y42416500I0J62500D01*
G01*
X68189000Y43116500D01*
G75*
G02*
X68251500Y43179000I62500J0D01*
G01*
G37*
G36*
G01*
X67751500Y43179000D02*
X67876500Y43179000D01*
G75*
G02*
X67939000Y43116500I0J-62500D01*
G01*
X67939000Y42416500D01*
G75*
G02*
X67876500Y42354000I-62500J0D01*
G01*
X67751500Y42354000D01*
G75*
G02*
X67689000Y42416500I0J62500D01*
G01*
X67689000Y43116500D01*
G75*
G02*
X67751500Y43179000I62500J0D01*
G01*
G37*
G36*
G01*
X67251500Y43179000D02*
X67376500Y43179000D01*
G75*
G02*
X67439000Y43116500I0J-62500D01*
G01*
X67439000Y42416500D01*
G75*
G02*
X67376500Y42354000I-62500J0D01*
G01*
X67251500Y42354000D01*
G75*
G02*
X67189000Y42416500I0J62500D01*
G01*
X67189000Y43116500D01*
G75*
G02*
X67251500Y43179000I62500J0D01*
G01*
G37*
G36*
G01*
X66751500Y43179000D02*
X66876500Y43179000D01*
G75*
G02*
X66939000Y43116500I0J-62500D01*
G01*
X66939000Y42416500D01*
G75*
G02*
X66876500Y42354000I-62500J0D01*
G01*
X66751500Y42354000D01*
G75*
G02*
X66689000Y42416500I0J62500D01*
G01*
X66689000Y43116500D01*
G75*
G02*
X66751500Y43179000I62500J0D01*
G01*
G37*
G36*
G01*
X66251500Y43179000D02*
X66376500Y43179000D01*
G75*
G02*
X66439000Y43116500I0J-62500D01*
G01*
X66439000Y42416500D01*
G75*
G02*
X66376500Y42354000I-62500J0D01*
G01*
X66251500Y42354000D01*
G75*
G02*
X66189000Y42416500I0J62500D01*
G01*
X66189000Y43116500D01*
G75*
G02*
X66251500Y43179000I62500J0D01*
G01*
G37*
G36*
G01*
X65276500Y43579000D02*
X65976500Y43579000D01*
G75*
G02*
X66039000Y43516500I0J-62500D01*
G01*
X66039000Y43391500D01*
G75*
G02*
X65976500Y43329000I-62500J0D01*
G01*
X65276500Y43329000D01*
G75*
G02*
X65214000Y43391500I0J62500D01*
G01*
X65214000Y43516500D01*
G75*
G02*
X65276500Y43579000I62500J0D01*
G01*
G37*
G36*
G01*
X65276500Y44079000D02*
X65976500Y44079000D01*
G75*
G02*
X66039000Y44016500I0J-62500D01*
G01*
X66039000Y43891500D01*
G75*
G02*
X65976500Y43829000I-62500J0D01*
G01*
X65276500Y43829000D01*
G75*
G02*
X65214000Y43891500I0J62500D01*
G01*
X65214000Y44016500D01*
G75*
G02*
X65276500Y44079000I62500J0D01*
G01*
G37*
G36*
G01*
X65276500Y44579000D02*
X65976500Y44579000D01*
G75*
G02*
X66039000Y44516500I0J-62500D01*
G01*
X66039000Y44391500D01*
G75*
G02*
X65976500Y44329000I-62500J0D01*
G01*
X65276500Y44329000D01*
G75*
G02*
X65214000Y44391500I0J62500D01*
G01*
X65214000Y44516500D01*
G75*
G02*
X65276500Y44579000I62500J0D01*
G01*
G37*
G36*
G01*
X65276500Y45079000D02*
X65976500Y45079000D01*
G75*
G02*
X66039000Y45016500I0J-62500D01*
G01*
X66039000Y44891500D01*
G75*
G02*
X65976500Y44829000I-62500J0D01*
G01*
X65276500Y44829000D01*
G75*
G02*
X65214000Y44891500I0J62500D01*
G01*
X65214000Y45016500D01*
G75*
G02*
X65276500Y45079000I62500J0D01*
G01*
G37*
G36*
G01*
X65276500Y45579000D02*
X65976500Y45579000D01*
G75*
G02*
X66039000Y45516500I0J-62500D01*
G01*
X66039000Y45391500D01*
G75*
G02*
X65976500Y45329000I-62500J0D01*
G01*
X65276500Y45329000D01*
G75*
G02*
X65214000Y45391500I0J62500D01*
G01*
X65214000Y45516500D01*
G75*
G02*
X65276500Y45579000I62500J0D01*
G01*
G37*
G36*
G01*
X65276500Y46079000D02*
X65976500Y46079000D01*
G75*
G02*
X66039000Y46016500I0J-62500D01*
G01*
X66039000Y45891500D01*
G75*
G02*
X65976500Y45829000I-62500J0D01*
G01*
X65276500Y45829000D01*
G75*
G02*
X65214000Y45891500I0J62500D01*
G01*
X65214000Y46016500D01*
G75*
G02*
X65276500Y46079000I62500J0D01*
G01*
G37*
G36*
G01*
X66251500Y47054000D02*
X66376500Y47054000D01*
G75*
G02*
X66439000Y46991500I0J-62500D01*
G01*
X66439000Y46291500D01*
G75*
G02*
X66376500Y46229000I-62500J0D01*
G01*
X66251500Y46229000D01*
G75*
G02*
X66189000Y46291500I0J62500D01*
G01*
X66189000Y46991500D01*
G75*
G02*
X66251500Y47054000I62500J0D01*
G01*
G37*
G36*
G01*
X66751500Y47054000D02*
X66876500Y47054000D01*
G75*
G02*
X66939000Y46991500I0J-62500D01*
G01*
X66939000Y46291500D01*
G75*
G02*
X66876500Y46229000I-62500J0D01*
G01*
X66751500Y46229000D01*
G75*
G02*
X66689000Y46291500I0J62500D01*
G01*
X66689000Y46991500D01*
G75*
G02*
X66751500Y47054000I62500J0D01*
G01*
G37*
G36*
G01*
X67251500Y47054000D02*
X67376500Y47054000D01*
G75*
G02*
X67439000Y46991500I0J-62500D01*
G01*
X67439000Y46291500D01*
G75*
G02*
X67376500Y46229000I-62500J0D01*
G01*
X67251500Y46229000D01*
G75*
G02*
X67189000Y46291500I0J62500D01*
G01*
X67189000Y46991500D01*
G75*
G02*
X67251500Y47054000I62500J0D01*
G01*
G37*
G36*
G01*
X67751500Y47054000D02*
X67876500Y47054000D01*
G75*
G02*
X67939000Y46991500I0J-62500D01*
G01*
X67939000Y46291500D01*
G75*
G02*
X67876500Y46229000I-62500J0D01*
G01*
X67751500Y46229000D01*
G75*
G02*
X67689000Y46291500I0J62500D01*
G01*
X67689000Y46991500D01*
G75*
G02*
X67751500Y47054000I62500J0D01*
G01*
G37*
G36*
G01*
X68251500Y47054000D02*
X68376500Y47054000D01*
G75*
G02*
X68439000Y46991500I0J-62500D01*
G01*
X68439000Y46291500D01*
G75*
G02*
X68376500Y46229000I-62500J0D01*
G01*
X68251500Y46229000D01*
G75*
G02*
X68189000Y46291500I0J62500D01*
G01*
X68189000Y46991500D01*
G75*
G02*
X68251500Y47054000I62500J0D01*
G01*
G37*
G36*
G01*
X68751500Y47054000D02*
X68876500Y47054000D01*
G75*
G02*
X68939000Y46991500I0J-62500D01*
G01*
X68939000Y46291500D01*
G75*
G02*
X68876500Y46229000I-62500J0D01*
G01*
X68751500Y46229000D01*
G75*
G02*
X68689000Y46291500I0J62500D01*
G01*
X68689000Y46991500D01*
G75*
G02*
X68751500Y47054000I62500J0D01*
G01*
G37*
D11*
X70718000Y59911500D03*
X64918000Y59911500D03*
D12*
X64318000Y59911500D03*
X71318000Y59911500D03*
D13*
X68818000Y59911500D03*
D14*
X65318000Y57211500D03*
D15*
X67818000Y57211500D03*
X67168000Y57211500D03*
X66518000Y57211500D03*
X69118000Y57211500D03*
X68468000Y57211500D03*
D14*
X70318000Y57211500D03*
D13*
X66818000Y59911500D03*
D16*
X54862000Y24279600D03*
X52962000Y24279600D03*
X52962000Y26479600D03*
X53912000Y26479600D03*
X54862000Y26479600D03*
X74102000Y24300000D03*
X72202000Y24300000D03*
X72202000Y26500000D03*
X73152000Y26500000D03*
X74102000Y26500000D03*
X36448400Y24279600D03*
X34548400Y24279600D03*
X34548400Y26479600D03*
X35498400Y26479600D03*
X36448400Y26479600D03*
X93152000Y24300000D03*
X91252000Y24300000D03*
X91252000Y26500000D03*
X92202000Y26500000D03*
X93152000Y26500000D03*
G36*
G01*
X61394000Y16098601D02*
X61394000Y14848599D01*
G75*
G02*
X61144001Y14598600I-249999J0D01*
G01*
X60518999Y14598600D01*
G75*
G02*
X60269000Y14848599I0J249999D01*
G01*
X60269000Y16098601D01*
G75*
G02*
X60518999Y16348600I249999J0D01*
G01*
X61144001Y16348600D01*
G75*
G02*
X61394000Y16098601I0J-249999D01*
G01*
G37*
G36*
G01*
X64319000Y16098601D02*
X64319000Y14848599D01*
G75*
G02*
X64069001Y14598600I-249999J0D01*
G01*
X63443999Y14598600D01*
G75*
G02*
X63194000Y14848599I0J249999D01*
G01*
X63194000Y16098601D01*
G75*
G02*
X63443999Y16348600I249999J0D01*
G01*
X64069001Y16348600D01*
G75*
G02*
X64319000Y16098601I0J-249999D01*
G01*
G37*
G36*
G01*
X80634000Y16119001D02*
X80634000Y14868999D01*
G75*
G02*
X80384001Y14619000I-249999J0D01*
G01*
X79758999Y14619000D01*
G75*
G02*
X79509000Y14868999I0J249999D01*
G01*
X79509000Y16119001D01*
G75*
G02*
X79758999Y16369000I249999J0D01*
G01*
X80384001Y16369000D01*
G75*
G02*
X80634000Y16119001I0J-249999D01*
G01*
G37*
G36*
G01*
X83559000Y16119001D02*
X83559000Y14868999D01*
G75*
G02*
X83309001Y14619000I-249999J0D01*
G01*
X82683999Y14619000D01*
G75*
G02*
X82434000Y14868999I0J249999D01*
G01*
X82434000Y16119001D01*
G75*
G02*
X82683999Y16369000I249999J0D01*
G01*
X83309001Y16369000D01*
G75*
G02*
X83559000Y16119001I0J-249999D01*
G01*
G37*
G36*
G01*
X42980400Y16098601D02*
X42980400Y14848599D01*
G75*
G02*
X42730401Y14598600I-249999J0D01*
G01*
X42105399Y14598600D01*
G75*
G02*
X41855400Y14848599I0J249999D01*
G01*
X41855400Y16098601D01*
G75*
G02*
X42105399Y16348600I249999J0D01*
G01*
X42730401Y16348600D01*
G75*
G02*
X42980400Y16098601I0J-249999D01*
G01*
G37*
G36*
G01*
X45905400Y16098601D02*
X45905400Y14848599D01*
G75*
G02*
X45655401Y14598600I-249999J0D01*
G01*
X45030399Y14598600D01*
G75*
G02*
X44780400Y14848599I0J249999D01*
G01*
X44780400Y16098601D01*
G75*
G02*
X45030399Y16348600I249999J0D01*
G01*
X45655401Y16348600D01*
G75*
G02*
X45905400Y16098601I0J-249999D01*
G01*
G37*
G36*
G01*
X99684000Y16119001D02*
X99684000Y14868999D01*
G75*
G02*
X99434001Y14619000I-249999J0D01*
G01*
X98808999Y14619000D01*
G75*
G02*
X98559000Y14868999I0J249999D01*
G01*
X98559000Y16119001D01*
G75*
G02*
X98808999Y16369000I249999J0D01*
G01*
X99434001Y16369000D01*
G75*
G02*
X99684000Y16119001I0J-249999D01*
G01*
G37*
G36*
G01*
X102609000Y16119001D02*
X102609000Y14868999D01*
G75*
G02*
X102359001Y14619000I-249999J0D01*
G01*
X101733999Y14619000D01*
G75*
G02*
X101484000Y14868999I0J249999D01*
G01*
X101484000Y16119001D01*
G75*
G02*
X101733999Y16369000I249999J0D01*
G01*
X102359001Y16369000D01*
G75*
G02*
X102609000Y16119001I0J-249999D01*
G01*
G37*
D17*
X53912000Y15405600D03*
D18*
X51632000Y21705600D03*
X56192000Y21705600D03*
D17*
X73152000Y15426000D03*
D18*
X70872000Y21726000D03*
X75432000Y21726000D03*
D17*
X35498400Y15405600D03*
D18*
X33218400Y21705600D03*
X37778400Y21705600D03*
D17*
X92202000Y15426000D03*
D18*
X89922000Y21726000D03*
X94482000Y21726000D03*
G36*
G01*
X50912000Y3051600D02*
X50912000Y6051600D01*
G75*
G02*
X52412000Y7551600I1500000J0D01*
G01*
X55412000Y7551600D01*
G75*
G02*
X56912000Y6051600I0J-1500000D01*
G01*
X56912000Y3051600D01*
G75*
G02*
X55412000Y1551600I-1500000J0D01*
G01*
X52412000Y1551600D01*
G75*
G02*
X50912000Y3051600I0J1500000D01*
G01*
G37*
D19*
X61112000Y4551600D03*
G36*
G01*
X70152000Y3072000D02*
X70152000Y6072000D01*
G75*
G02*
X71652000Y7572000I1500000J0D01*
G01*
X74652000Y7572000D01*
G75*
G02*
X76152000Y6072000I0J-1500000D01*
G01*
X76152000Y3072000D01*
G75*
G02*
X74652000Y1572000I-1500000J0D01*
G01*
X71652000Y1572000D01*
G75*
G02*
X70152000Y3072000I0J1500000D01*
G01*
G37*
X80352000Y4572000D03*
G36*
G01*
X32498400Y3051600D02*
X32498400Y6051600D01*
G75*
G02*
X33998400Y7551600I1500000J0D01*
G01*
X36998400Y7551600D01*
G75*
G02*
X38498400Y6051600I0J-1500000D01*
G01*
X38498400Y3051600D01*
G75*
G02*
X36998400Y1551600I-1500000J0D01*
G01*
X33998400Y1551600D01*
G75*
G02*
X32498400Y3051600I0J1500000D01*
G01*
G37*
X42698400Y4551600D03*
G36*
G01*
X89202000Y3072000D02*
X89202000Y6072000D01*
G75*
G02*
X90702000Y7572000I1500000J0D01*
G01*
X93702000Y7572000D01*
G75*
G02*
X95202000Y6072000I0J-1500000D01*
G01*
X95202000Y3072000D01*
G75*
G02*
X93702000Y1572000I-1500000J0D01*
G01*
X90702000Y1572000D01*
G75*
G02*
X89202000Y3072000I0J1500000D01*
G01*
G37*
X99402000Y4572000D03*
D20*
X63660000Y20047600D03*
D21*
X61120000Y20047600D03*
D20*
X82900000Y20068000D03*
D21*
X80360000Y20068000D03*
D20*
X45246400Y20047600D03*
D21*
X42706400Y20047600D03*
D20*
X101950000Y20068000D03*
D21*
X99410000Y20068000D03*
G36*
G01*
X56590000Y28285599D02*
X56590000Y29585601D01*
G75*
G02*
X56839999Y29835600I249999J0D01*
G01*
X57490001Y29835600D01*
G75*
G02*
X57740000Y29585601I0J-249999D01*
G01*
X57740000Y28285599D01*
G75*
G02*
X57490001Y28035600I-249999J0D01*
G01*
X56839999Y28035600D01*
G75*
G02*
X56590000Y28285599I0J249999D01*
G01*
G37*
G36*
G01*
X53640000Y28285599D02*
X53640000Y29585601D01*
G75*
G02*
X53889999Y29835600I249999J0D01*
G01*
X54540001Y29835600D01*
G75*
G02*
X54790000Y29585601I0J-249999D01*
G01*
X54790000Y28285599D01*
G75*
G02*
X54540001Y28035600I-249999J0D01*
G01*
X53889999Y28035600D01*
G75*
G02*
X53640000Y28285599I0J249999D01*
G01*
G37*
G36*
G01*
X75830000Y28305999D02*
X75830000Y29606001D01*
G75*
G02*
X76079999Y29856000I249999J0D01*
G01*
X76730001Y29856000D01*
G75*
G02*
X76980000Y29606001I0J-249999D01*
G01*
X76980000Y28305999D01*
G75*
G02*
X76730001Y28056000I-249999J0D01*
G01*
X76079999Y28056000D01*
G75*
G02*
X75830000Y28305999I0J249999D01*
G01*
G37*
G36*
G01*
X72880000Y28305999D02*
X72880000Y29606001D01*
G75*
G02*
X73129999Y29856000I249999J0D01*
G01*
X73780001Y29856000D01*
G75*
G02*
X74030000Y29606001I0J-249999D01*
G01*
X74030000Y28305999D01*
G75*
G02*
X73780001Y28056000I-249999J0D01*
G01*
X73129999Y28056000D01*
G75*
G02*
X72880000Y28305999I0J249999D01*
G01*
G37*
G36*
G01*
X38176400Y28285599D02*
X38176400Y29585601D01*
G75*
G02*
X38426399Y29835600I249999J0D01*
G01*
X39076401Y29835600D01*
G75*
G02*
X39326400Y29585601I0J-249999D01*
G01*
X39326400Y28285599D01*
G75*
G02*
X39076401Y28035600I-249999J0D01*
G01*
X38426399Y28035600D01*
G75*
G02*
X38176400Y28285599I0J249999D01*
G01*
G37*
G36*
G01*
X35226400Y28285599D02*
X35226400Y29585601D01*
G75*
G02*
X35476399Y29835600I249999J0D01*
G01*
X36126401Y29835600D01*
G75*
G02*
X36376400Y29585601I0J-249999D01*
G01*
X36376400Y28285599D01*
G75*
G02*
X36126401Y28035600I-249999J0D01*
G01*
X35476399Y28035600D01*
G75*
G02*
X35226400Y28285599I0J249999D01*
G01*
G37*
G36*
G01*
X94880000Y28305999D02*
X94880000Y29606001D01*
G75*
G02*
X95129999Y29856000I249999J0D01*
G01*
X95780001Y29856000D01*
G75*
G02*
X96030000Y29606001I0J-249999D01*
G01*
X96030000Y28305999D01*
G75*
G02*
X95780001Y28056000I-249999J0D01*
G01*
X95129999Y28056000D01*
G75*
G02*
X94880000Y28305999I0J249999D01*
G01*
G37*
G36*
G01*
X91930000Y28305999D02*
X91930000Y29606001D01*
G75*
G02*
X92179999Y29856000I249999J0D01*
G01*
X92830001Y29856000D01*
G75*
G02*
X93080000Y29606001I0J-249999D01*
G01*
X93080000Y28305999D01*
G75*
G02*
X92830001Y28056000I-249999J0D01*
G01*
X92179999Y28056000D01*
G75*
G02*
X91930000Y28305999I0J249999D01*
G01*
G37*
D22*
X19304000Y57404000D03*
G36*
G01*
X62749000Y44332998D02*
X62749000Y45583002D01*
G75*
G02*
X62998998Y45833000I249998J0D01*
G01*
X63624002Y45833000D01*
G75*
G02*
X63874000Y45583002I0J-249998D01*
G01*
X63874000Y44332998D01*
G75*
G02*
X63624002Y44083000I-249998J0D01*
G01*
X62998998Y44083000D01*
G75*
G02*
X62749000Y44332998I0J249998D01*
G01*
G37*
G36*
G01*
X59824000Y44332998D02*
X59824000Y45583002D01*
G75*
G02*
X60073998Y45833000I249998J0D01*
G01*
X60699002Y45833000D01*
G75*
G02*
X60949000Y45583002I0J-249998D01*
G01*
X60949000Y44332998D01*
G75*
G02*
X60699002Y44083000I-249998J0D01*
G01*
X60073998Y44083000D01*
G75*
G02*
X59824000Y44332998I0J249998D01*
G01*
G37*
G36*
G01*
X64781000Y36204998D02*
X64781000Y37455002D01*
G75*
G02*
X65030998Y37705000I249998J0D01*
G01*
X65656002Y37705000D01*
G75*
G02*
X65906000Y37455002I0J-249998D01*
G01*
X65906000Y36204998D01*
G75*
G02*
X65656002Y35955000I-249998J0D01*
G01*
X65030998Y35955000D01*
G75*
G02*
X64781000Y36204998I0J249998D01*
G01*
G37*
G36*
G01*
X61856000Y36204998D02*
X61856000Y37455002D01*
G75*
G02*
X62105998Y37705000I249998J0D01*
G01*
X62731002Y37705000D01*
G75*
G02*
X62981000Y37455002I0J-249998D01*
G01*
X62981000Y36204998D01*
G75*
G02*
X62731002Y35955000I-249998J0D01*
G01*
X62105998Y35955000D01*
G75*
G02*
X61856000Y36204998I0J249998D01*
G01*
G37*
G36*
G01*
X58153000Y39868000D02*
X58153000Y38618000D01*
G75*
G02*
X57903000Y38368000I-250000J0D01*
G01*
X57153000Y38368000D01*
G75*
G02*
X56903000Y38618000I0J250000D01*
G01*
X56903000Y39868000D01*
G75*
G02*
X57153000Y40118000I250000J0D01*
G01*
X57903000Y40118000D01*
G75*
G02*
X58153000Y39868000I0J-250000D01*
G01*
G37*
G36*
G01*
X60953000Y39868000D02*
X60953000Y38618000D01*
G75*
G02*
X60703000Y38368000I-250000J0D01*
G01*
X59953000Y38368000D01*
G75*
G02*
X59703000Y38618000I0J250000D01*
G01*
X59703000Y39868000D01*
G75*
G02*
X59953000Y40118000I250000J0D01*
G01*
X60703000Y40118000D01*
G75*
G02*
X60953000Y39868000I0J-250000D01*
G01*
G37*
G36*
G01*
X58153000Y37455000D02*
X58153000Y36205000D01*
G75*
G02*
X57903000Y35955000I-250000J0D01*
G01*
X57153000Y35955000D01*
G75*
G02*
X56903000Y36205000I0J250000D01*
G01*
X56903000Y37455000D01*
G75*
G02*
X57153000Y37705000I250000J0D01*
G01*
X57903000Y37705000D01*
G75*
G02*
X58153000Y37455000I0J-250000D01*
G01*
G37*
G36*
G01*
X60953000Y37455000D02*
X60953000Y36205000D01*
G75*
G02*
X60703000Y35955000I-250000J0D01*
G01*
X59953000Y35955000D01*
G75*
G02*
X59703000Y36205000I0J250000D01*
G01*
X59703000Y37455000D01*
G75*
G02*
X59953000Y37705000I250000J0D01*
G01*
X60703000Y37705000D01*
G75*
G02*
X60953000Y37455000I0J-250000D01*
G01*
G37*
G36*
G01*
X75068000Y44866398D02*
X75068000Y46116402D01*
G75*
G02*
X75317998Y46366400I249998J0D01*
G01*
X75943002Y46366400D01*
G75*
G02*
X76193000Y46116402I0J-249998D01*
G01*
X76193000Y44866398D01*
G75*
G02*
X75943002Y44616400I-249998J0D01*
G01*
X75317998Y44616400D01*
G75*
G02*
X75068000Y44866398I0J249998D01*
G01*
G37*
G36*
G01*
X72143000Y44866398D02*
X72143000Y46116402D01*
G75*
G02*
X72392998Y46366400I249998J0D01*
G01*
X73018002Y46366400D01*
G75*
G02*
X73268000Y46116402I0J-249998D01*
G01*
X73268000Y44866398D01*
G75*
G02*
X73018002Y44616400I-249998J0D01*
G01*
X72392998Y44616400D01*
G75*
G02*
X72143000Y44866398I0J249998D01*
G01*
G37*
G36*
G01*
X78221000Y44186002D02*
X78221000Y42935998D01*
G75*
G02*
X77971002Y42686000I-249998J0D01*
G01*
X77345998Y42686000D01*
G75*
G02*
X77096000Y42935998I0J249998D01*
G01*
X77096000Y44186002D01*
G75*
G02*
X77345998Y44436000I249998J0D01*
G01*
X77971002Y44436000D01*
G75*
G02*
X78221000Y44186002I0J-249998D01*
G01*
G37*
G36*
G01*
X81146000Y44186002D02*
X81146000Y42935998D01*
G75*
G02*
X80896002Y42686000I-249998J0D01*
G01*
X80270998Y42686000D01*
G75*
G02*
X80021000Y42935998I0J249998D01*
G01*
X80021000Y44186002D01*
G75*
G02*
X80270998Y44436000I249998J0D01*
G01*
X80896002Y44436000D01*
G75*
G02*
X81146000Y44186002I0J-249998D01*
G01*
G37*
G36*
G01*
X64781000Y38617998D02*
X64781000Y39868002D01*
G75*
G02*
X65030998Y40118000I249998J0D01*
G01*
X65656002Y40118000D01*
G75*
G02*
X65906000Y39868002I0J-249998D01*
G01*
X65906000Y38617998D01*
G75*
G02*
X65656002Y38368000I-249998J0D01*
G01*
X65030998Y38368000D01*
G75*
G02*
X64781000Y38617998I0J249998D01*
G01*
G37*
G36*
G01*
X61856000Y38617998D02*
X61856000Y39868002D01*
G75*
G02*
X62105998Y40118000I249998J0D01*
G01*
X62731002Y40118000D01*
G75*
G02*
X62981000Y39868002I0J-249998D01*
G01*
X62981000Y38617998D01*
G75*
G02*
X62731002Y38368000I-249998J0D01*
G01*
X62105998Y38368000D01*
G75*
G02*
X61856000Y38617998I0J249998D01*
G01*
G37*
D23*
X79629000Y47482000D03*
X80579000Y45482000D03*
X78679000Y45482000D03*
X73660000Y41545000D03*
X72710000Y43545000D03*
X74610000Y43545000D03*
D24*
X105655000Y52324000D03*
X105655000Y51054000D03*
X105655000Y49784000D03*
X105655000Y48514000D03*
X105655000Y47244000D03*
X105655000Y45974000D03*
X105655000Y44704000D03*
X105655000Y43434000D03*
X105655000Y42164000D03*
X105655000Y40894000D03*
X105655000Y39624000D03*
X105655000Y38354000D03*
X105655000Y37084000D03*
X105655000Y35814000D03*
D25*
X102870000Y34814000D03*
X101600000Y34814000D03*
X100330000Y34814000D03*
X99060000Y34814000D03*
X97790000Y34814000D03*
X96520000Y34814000D03*
X95250000Y34814000D03*
X93980000Y34814000D03*
X92710000Y34814000D03*
X91440000Y34814000D03*
D24*
X88655000Y35814000D03*
X88655000Y37084000D03*
X88655000Y38354000D03*
X88655000Y39624000D03*
X88655000Y40894000D03*
X88655000Y42164000D03*
X88655000Y43434000D03*
X88655000Y44704000D03*
X88655000Y45974000D03*
X88655000Y47244000D03*
X88655000Y48514000D03*
X88655000Y49784000D03*
X88655000Y51054000D03*
X88655000Y52324000D03*
D26*
X96155000Y44824000D03*
D22*
X117856000Y57658000D03*
X117856000Y-3810000D03*
X19304000Y-3810000D03*
D27*
X46214000Y51587000D03*
X50814000Y51587000D03*
X48514000Y51587000D03*
D28*
X48514000Y57887000D03*
G36*
G01*
X34822000Y57864000D02*
X37822000Y57864000D01*
G75*
G02*
X39322000Y56364000I0J-1500000D01*
G01*
X39322000Y53364000D01*
G75*
G02*
X37822000Y51864000I-1500000J0D01*
G01*
X34822000Y51864000D01*
G75*
G02*
X33322000Y53364000I0J1500000D01*
G01*
X33322000Y56364000D01*
G75*
G02*
X34822000Y57864000I1500000J0D01*
G01*
G37*
D19*
X36322000Y47664000D03*
D29*
G36*
X38499565Y3053226D02*
G01*
X38500400Y3051600D01*
X38500400Y3024547D01*
X38500390Y3024351D01*
X38471859Y2734676D01*
X38471783Y2734291D01*
X38388149Y2458585D01*
X38387999Y2458223D01*
X38252185Y2204133D01*
X38251967Y2203807D01*
X38069188Y1981089D01*
X38068911Y1980812D01*
X37846193Y1798033D01*
X37845867Y1797815D01*
X37591777Y1662001D01*
X37591415Y1661851D01*
X37315709Y1578217D01*
X37315324Y1578141D01*
X37025649Y1549610D01*
X37025453Y1549600D01*
X36998400Y1549600D01*
X36996668Y1550600D01*
X36996668Y1552600D01*
X36998204Y1553590D01*
X37290640Y1582392D01*
X37571656Y1667638D01*
X37830639Y1806067D01*
X38057639Y1992361D01*
X38243933Y2219361D01*
X38382362Y2478344D01*
X38467608Y2759360D01*
X38496410Y3051796D01*
X38497575Y3053422D01*
X38499565Y3053226D01*
G37*
G36*
X32500390Y3051796D02*
G01*
X32529192Y2759360D01*
X32614438Y2478344D01*
X32752867Y2219361D01*
X32939161Y1992361D01*
X33166161Y1806067D01*
X33425144Y1667638D01*
X33706160Y1582392D01*
X33998596Y1553590D01*
X34000222Y1552425D01*
X34000026Y1550435D01*
X33998400Y1549600D01*
X33971347Y1549600D01*
X33971151Y1549610D01*
X33681476Y1578141D01*
X33681091Y1578217D01*
X33405385Y1661851D01*
X33405023Y1662001D01*
X33150933Y1797815D01*
X33150607Y1798033D01*
X32927889Y1980812D01*
X32927612Y1981089D01*
X32744833Y2203807D01*
X32744615Y2204133D01*
X32608801Y2458223D01*
X32608651Y2458585D01*
X32525017Y2734291D01*
X32524941Y2734676D01*
X32496410Y3024351D01*
X32496400Y3024547D01*
X32496400Y3051600D01*
X32497400Y3053332D01*
X32499400Y3053332D01*
X32500390Y3051796D01*
G37*
G36*
X50913990Y3051796D02*
G01*
X50942792Y2759360D01*
X51028038Y2478344D01*
X51166467Y2219361D01*
X51352761Y1992361D01*
X51579761Y1806067D01*
X51838744Y1667638D01*
X52119760Y1582392D01*
X52412196Y1553590D01*
X52413822Y1552425D01*
X52413626Y1550435D01*
X52412000Y1549600D01*
X52384947Y1549600D01*
X52384751Y1549610D01*
X52095076Y1578141D01*
X52094691Y1578217D01*
X51818985Y1661851D01*
X51818623Y1662001D01*
X51564533Y1797815D01*
X51564207Y1798033D01*
X51341489Y1980812D01*
X51341212Y1981089D01*
X51158433Y2203807D01*
X51158215Y2204133D01*
X51022401Y2458223D01*
X51022251Y2458585D01*
X50938617Y2734291D01*
X50938541Y2734676D01*
X50910010Y3024351D01*
X50910000Y3024547D01*
X50910000Y3051600D01*
X50911000Y3053332D01*
X50913000Y3053332D01*
X50913990Y3051796D01*
G37*
G36*
X56913165Y3053226D02*
G01*
X56914000Y3051600D01*
X56914000Y3024547D01*
X56913990Y3024351D01*
X56885459Y2734676D01*
X56885383Y2734291D01*
X56801749Y2458585D01*
X56801599Y2458223D01*
X56665785Y2204133D01*
X56665567Y2203807D01*
X56482788Y1981089D01*
X56482511Y1980812D01*
X56259793Y1798033D01*
X56259467Y1797815D01*
X56005377Y1662001D01*
X56005015Y1661851D01*
X55729309Y1578217D01*
X55728924Y1578141D01*
X55439249Y1549610D01*
X55439053Y1549600D01*
X55412000Y1549600D01*
X55410268Y1550600D01*
X55410268Y1552600D01*
X55411804Y1553590D01*
X55704240Y1582392D01*
X55985256Y1667638D01*
X56244239Y1806067D01*
X56471239Y1992361D01*
X56657533Y2219361D01*
X56795962Y2478344D01*
X56881208Y2759360D01*
X56910010Y3051796D01*
X56911175Y3053422D01*
X56913165Y3053226D01*
G37*
G36*
X76153165Y3073626D02*
G01*
X76154000Y3072000D01*
X76154000Y3044947D01*
X76153990Y3044751D01*
X76125459Y2755076D01*
X76125383Y2754691D01*
X76041749Y2478985D01*
X76041599Y2478623D01*
X75905785Y2224533D01*
X75905567Y2224207D01*
X75722788Y2001489D01*
X75722511Y2001212D01*
X75499793Y1818433D01*
X75499467Y1818215D01*
X75245377Y1682401D01*
X75245015Y1682251D01*
X74969309Y1598617D01*
X74968924Y1598541D01*
X74679249Y1570010D01*
X74679053Y1570000D01*
X74652000Y1570000D01*
X74650268Y1571000D01*
X74650268Y1573000D01*
X74651804Y1573990D01*
X74944240Y1602792D01*
X75225256Y1688038D01*
X75484239Y1826467D01*
X75711239Y2012761D01*
X75897533Y2239761D01*
X76035962Y2498744D01*
X76121208Y2779760D01*
X76150010Y3072196D01*
X76151175Y3073822D01*
X76153165Y3073626D01*
G37*
G36*
X70153990Y3072196D02*
G01*
X70182792Y2779760D01*
X70268038Y2498744D01*
X70406467Y2239761D01*
X70592761Y2012761D01*
X70819761Y1826467D01*
X71078744Y1688038D01*
X71359760Y1602792D01*
X71652196Y1573990D01*
X71653822Y1572825D01*
X71653626Y1570835D01*
X71652000Y1570000D01*
X71624947Y1570000D01*
X71624751Y1570010D01*
X71335076Y1598541D01*
X71334691Y1598617D01*
X71058985Y1682251D01*
X71058623Y1682401D01*
X70804533Y1818215D01*
X70804207Y1818433D01*
X70581489Y2001212D01*
X70581212Y2001489D01*
X70398433Y2224207D01*
X70398215Y2224533D01*
X70262401Y2478623D01*
X70262251Y2478985D01*
X70178617Y2754691D01*
X70178541Y2755076D01*
X70150010Y3044751D01*
X70150000Y3044947D01*
X70150000Y3072000D01*
X70151000Y3073732D01*
X70153000Y3073732D01*
X70153990Y3072196D01*
G37*
G36*
X89203990Y3072196D02*
G01*
X89232792Y2779760D01*
X89318038Y2498744D01*
X89456467Y2239761D01*
X89642761Y2012761D01*
X89869761Y1826467D01*
X90128744Y1688038D01*
X90409760Y1602792D01*
X90702196Y1573990D01*
X90703822Y1572825D01*
X90703626Y1570835D01*
X90702000Y1570000D01*
X90674947Y1570000D01*
X90674751Y1570010D01*
X90385076Y1598541D01*
X90384691Y1598617D01*
X90108985Y1682251D01*
X90108623Y1682401D01*
X89854533Y1818215D01*
X89854207Y1818433D01*
X89631489Y2001212D01*
X89631212Y2001489D01*
X89448433Y2224207D01*
X89448215Y2224533D01*
X89312401Y2478623D01*
X89312251Y2478985D01*
X89228617Y2754691D01*
X89228541Y2755076D01*
X89200010Y3044751D01*
X89200000Y3044947D01*
X89200000Y3072000D01*
X89201000Y3073732D01*
X89203000Y3073732D01*
X89203990Y3072196D01*
G37*
G36*
X95203165Y3073626D02*
G01*
X95204000Y3072000D01*
X95204000Y3044947D01*
X95203990Y3044751D01*
X95175459Y2755076D01*
X95175383Y2754691D01*
X95091749Y2478985D01*
X95091599Y2478623D01*
X94955785Y2224533D01*
X94955567Y2224207D01*
X94772788Y2001489D01*
X94772511Y2001212D01*
X94549793Y1818433D01*
X94549467Y1818215D01*
X94295377Y1682401D01*
X94295015Y1682251D01*
X94019309Y1598617D01*
X94018924Y1598541D01*
X93729249Y1570010D01*
X93729053Y1570000D01*
X93702000Y1570000D01*
X93700268Y1571000D01*
X93700268Y1573000D01*
X93701804Y1573990D01*
X93994240Y1602792D01*
X94275256Y1688038D01*
X94534239Y1826467D01*
X94761239Y2012761D01*
X94947533Y2239761D01*
X95085962Y2498744D01*
X95171208Y2779760D01*
X95200010Y3072196D01*
X95201175Y3073822D01*
X95203165Y3073626D01*
G37*
G36*
X34000132Y7552600D02*
G01*
X34000132Y7550600D01*
X33998596Y7549610D01*
X33706160Y7520808D01*
X33425144Y7435562D01*
X33166161Y7297133D01*
X32939161Y7110839D01*
X32752867Y6883839D01*
X32614438Y6624856D01*
X32529192Y6343840D01*
X32500390Y6051404D01*
X32499225Y6049778D01*
X32497235Y6049974D01*
X32496400Y6051600D01*
X32496400Y6078653D01*
X32496410Y6078849D01*
X32524941Y6368524D01*
X32525017Y6368909D01*
X32608651Y6644615D01*
X32608801Y6644977D01*
X32744615Y6899067D01*
X32744833Y6899393D01*
X32927612Y7122111D01*
X32927889Y7122388D01*
X33150607Y7305167D01*
X33150933Y7305385D01*
X33405023Y7441199D01*
X33405385Y7441349D01*
X33681091Y7524983D01*
X33681476Y7525059D01*
X33971151Y7553590D01*
X33971347Y7553600D01*
X33998400Y7553600D01*
X34000132Y7552600D01*
G37*
G36*
X52413732Y7552600D02*
G01*
X52413732Y7550600D01*
X52412196Y7549610D01*
X52119760Y7520808D01*
X51838744Y7435562D01*
X51579761Y7297133D01*
X51352761Y7110839D01*
X51166467Y6883839D01*
X51028038Y6624856D01*
X50942792Y6343840D01*
X50913990Y6051404D01*
X50912825Y6049778D01*
X50910835Y6049974D01*
X50910000Y6051600D01*
X50910000Y6078653D01*
X50910010Y6078849D01*
X50938541Y6368524D01*
X50938617Y6368909D01*
X51022251Y6644615D01*
X51022401Y6644977D01*
X51158215Y6899067D01*
X51158433Y6899393D01*
X51341212Y7122111D01*
X51341489Y7122388D01*
X51564207Y7305167D01*
X51564533Y7305385D01*
X51818623Y7441199D01*
X51818985Y7441349D01*
X52094691Y7524983D01*
X52095076Y7525059D01*
X52384751Y7553590D01*
X52384947Y7553600D01*
X52412000Y7553600D01*
X52413732Y7552600D01*
G37*
G36*
X37025649Y7553590D02*
G01*
X37315324Y7525059D01*
X37315709Y7524983D01*
X37591415Y7441349D01*
X37591777Y7441199D01*
X37845867Y7305385D01*
X37846193Y7305167D01*
X38068911Y7122388D01*
X38069188Y7122111D01*
X38251967Y6899393D01*
X38252185Y6899067D01*
X38387999Y6644977D01*
X38388149Y6644615D01*
X38471783Y6368909D01*
X38471859Y6368524D01*
X38500390Y6078849D01*
X38500400Y6078653D01*
X38500400Y6051600D01*
X38499400Y6049868D01*
X38497400Y6049868D01*
X38496410Y6051404D01*
X38467608Y6343840D01*
X38382362Y6624856D01*
X38243933Y6883839D01*
X38057639Y7110839D01*
X37830639Y7297133D01*
X37571656Y7435562D01*
X37290640Y7520808D01*
X36998204Y7549610D01*
X36996578Y7550775D01*
X36996774Y7552765D01*
X36998400Y7553600D01*
X37025453Y7553600D01*
X37025649Y7553590D01*
G37*
G36*
X55439249Y7553590D02*
G01*
X55728924Y7525059D01*
X55729309Y7524983D01*
X56005015Y7441349D01*
X56005377Y7441199D01*
X56259467Y7305385D01*
X56259793Y7305167D01*
X56482511Y7122388D01*
X56482788Y7122111D01*
X56665567Y6899393D01*
X56665785Y6899067D01*
X56801599Y6644977D01*
X56801749Y6644615D01*
X56885383Y6368909D01*
X56885459Y6368524D01*
X56913990Y6078849D01*
X56914000Y6078653D01*
X56914000Y6051600D01*
X56913000Y6049868D01*
X56911000Y6049868D01*
X56910010Y6051404D01*
X56881208Y6343840D01*
X56795962Y6624856D01*
X56657533Y6883839D01*
X56471239Y7110839D01*
X56244239Y7297133D01*
X55985256Y7435562D01*
X55704240Y7520808D01*
X55411804Y7549610D01*
X55410178Y7550775D01*
X55410374Y7552765D01*
X55412000Y7553600D01*
X55439053Y7553600D01*
X55439249Y7553590D01*
G37*
G36*
X90703732Y7573000D02*
G01*
X90703732Y7571000D01*
X90702196Y7570010D01*
X90409760Y7541208D01*
X90128744Y7455962D01*
X89869761Y7317533D01*
X89642761Y7131239D01*
X89456467Y6904239D01*
X89318038Y6645256D01*
X89232792Y6364240D01*
X89203990Y6071804D01*
X89202825Y6070178D01*
X89200835Y6070374D01*
X89200000Y6072000D01*
X89200000Y6099053D01*
X89200010Y6099249D01*
X89228541Y6388924D01*
X89228617Y6389309D01*
X89312251Y6665015D01*
X89312401Y6665377D01*
X89448215Y6919467D01*
X89448433Y6919793D01*
X89631212Y7142511D01*
X89631489Y7142788D01*
X89854207Y7325567D01*
X89854533Y7325785D01*
X90108623Y7461599D01*
X90108985Y7461749D01*
X90384691Y7545383D01*
X90385076Y7545459D01*
X90674751Y7573990D01*
X90674947Y7574000D01*
X90702000Y7574000D01*
X90703732Y7573000D01*
G37*
G36*
X71653732Y7573000D02*
G01*
X71653732Y7571000D01*
X71652196Y7570010D01*
X71359760Y7541208D01*
X71078744Y7455962D01*
X70819761Y7317533D01*
X70592761Y7131239D01*
X70406467Y6904239D01*
X70268038Y6645256D01*
X70182792Y6364240D01*
X70153990Y6071804D01*
X70152825Y6070178D01*
X70150835Y6070374D01*
X70150000Y6072000D01*
X70150000Y6099053D01*
X70150010Y6099249D01*
X70178541Y6388924D01*
X70178617Y6389309D01*
X70262251Y6665015D01*
X70262401Y6665377D01*
X70398215Y6919467D01*
X70398433Y6919793D01*
X70581212Y7142511D01*
X70581489Y7142788D01*
X70804207Y7325567D01*
X70804533Y7325785D01*
X71058623Y7461599D01*
X71058985Y7461749D01*
X71334691Y7545383D01*
X71335076Y7545459D01*
X71624751Y7573990D01*
X71624947Y7574000D01*
X71652000Y7574000D01*
X71653732Y7573000D01*
G37*
G36*
X74679249Y7573990D02*
G01*
X74968924Y7545459D01*
X74969309Y7545383D01*
X75245015Y7461749D01*
X75245377Y7461599D01*
X75499467Y7325785D01*
X75499793Y7325567D01*
X75722511Y7142788D01*
X75722788Y7142511D01*
X75905567Y6919793D01*
X75905785Y6919467D01*
X76041599Y6665377D01*
X76041749Y6665015D01*
X76125383Y6389309D01*
X76125459Y6388924D01*
X76153990Y6099249D01*
X76154000Y6099053D01*
X76154000Y6072000D01*
X76153000Y6070268D01*
X76151000Y6070268D01*
X76150010Y6071804D01*
X76121208Y6364240D01*
X76035962Y6645256D01*
X75897533Y6904239D01*
X75711239Y7131239D01*
X75484239Y7317533D01*
X75225256Y7455962D01*
X74944240Y7541208D01*
X74651804Y7570010D01*
X74650178Y7571175D01*
X74650374Y7573165D01*
X74652000Y7574000D01*
X74679053Y7574000D01*
X74679249Y7573990D01*
G37*
G36*
X93729249Y7573990D02*
G01*
X94018924Y7545459D01*
X94019309Y7545383D01*
X94295015Y7461749D01*
X94295377Y7461599D01*
X94549467Y7325785D01*
X94549793Y7325567D01*
X94772511Y7142788D01*
X94772788Y7142511D01*
X94955567Y6919793D01*
X94955785Y6919467D01*
X95091599Y6665377D01*
X95091749Y6665015D01*
X95175383Y6389309D01*
X95175459Y6388924D01*
X95203990Y6099249D01*
X95204000Y6099053D01*
X95204000Y6072000D01*
X95203000Y6070268D01*
X95201000Y6070268D01*
X95200010Y6071804D01*
X95171208Y6364240D01*
X95085962Y6645256D01*
X94947533Y6904239D01*
X94761239Y7131239D01*
X94534239Y7317533D01*
X94275256Y7455962D01*
X93994240Y7541208D01*
X93701804Y7570010D01*
X93700178Y7571175D01*
X93700374Y7573165D01*
X93702000Y7574000D01*
X93729053Y7574000D01*
X93729249Y7573990D01*
G37*
G36*
X33323990Y53364196D02*
G01*
X33352792Y53071760D01*
X33438038Y52790744D01*
X33576467Y52531761D01*
X33762761Y52304761D01*
X33989761Y52118467D01*
X34248744Y51980038D01*
X34529760Y51894792D01*
X34822196Y51865990D01*
X34823822Y51864825D01*
X34823626Y51862835D01*
X34822000Y51862000D01*
X34794947Y51862000D01*
X34794751Y51862010D01*
X34505076Y51890541D01*
X34504691Y51890617D01*
X34228985Y51974251D01*
X34228623Y51974401D01*
X33974533Y52110215D01*
X33974207Y52110433D01*
X33751489Y52293212D01*
X33751212Y52293489D01*
X33568433Y52516207D01*
X33568215Y52516533D01*
X33432401Y52770623D01*
X33432251Y52770985D01*
X33348617Y53046691D01*
X33348541Y53047076D01*
X33320010Y53336751D01*
X33320000Y53336947D01*
X33320000Y53364000D01*
X33321000Y53365732D01*
X33323000Y53365732D01*
X33323990Y53364196D01*
G37*
G36*
X39323165Y53365626D02*
G01*
X39324000Y53364000D01*
X39324000Y53336947D01*
X39323990Y53336751D01*
X39295459Y53047076D01*
X39295383Y53046691D01*
X39211749Y52770985D01*
X39211599Y52770623D01*
X39075785Y52516533D01*
X39075567Y52516207D01*
X38892788Y52293489D01*
X38892511Y52293212D01*
X38669793Y52110433D01*
X38669467Y52110215D01*
X38415377Y51974401D01*
X38415015Y51974251D01*
X38139309Y51890617D01*
X38138924Y51890541D01*
X37849249Y51862010D01*
X37849053Y51862000D01*
X37822000Y51862000D01*
X37820268Y51863000D01*
X37820268Y51865000D01*
X37821804Y51865990D01*
X38114240Y51894792D01*
X38395256Y51980038D01*
X38654239Y52118467D01*
X38881239Y52304761D01*
X39067533Y52531761D01*
X39205962Y52790744D01*
X39291208Y53071760D01*
X39320010Y53364196D01*
X39321175Y53365822D01*
X39323165Y53365626D01*
G37*
G36*
X34823732Y57865000D02*
G01*
X34823732Y57863000D01*
X34822196Y57862010D01*
X34529760Y57833208D01*
X34248744Y57747962D01*
X33989761Y57609533D01*
X33762761Y57423239D01*
X33576467Y57196239D01*
X33438038Y56937256D01*
X33352792Y56656240D01*
X33323990Y56363804D01*
X33322825Y56362178D01*
X33320835Y56362374D01*
X33320000Y56364000D01*
X33320000Y56391053D01*
X33320010Y56391249D01*
X33348541Y56680924D01*
X33348617Y56681309D01*
X33432251Y56957015D01*
X33432401Y56957377D01*
X33568215Y57211467D01*
X33568433Y57211793D01*
X33751212Y57434511D01*
X33751489Y57434788D01*
X33974207Y57617567D01*
X33974533Y57617785D01*
X34228623Y57753599D01*
X34228985Y57753749D01*
X34504691Y57837383D01*
X34505076Y57837459D01*
X34794751Y57865990D01*
X34794947Y57866000D01*
X34822000Y57866000D01*
X34823732Y57865000D01*
G37*
G36*
X37849249Y57865990D02*
G01*
X38138924Y57837459D01*
X38139309Y57837383D01*
X38415015Y57753749D01*
X38415377Y57753599D01*
X38669467Y57617785D01*
X38669793Y57617567D01*
X38892511Y57434788D01*
X38892788Y57434511D01*
X39075567Y57211793D01*
X39075785Y57211467D01*
X39211599Y56957377D01*
X39211749Y56957015D01*
X39295383Y56681309D01*
X39295459Y56680924D01*
X39323990Y56391249D01*
X39324000Y56391053D01*
X39324000Y56364000D01*
X39323000Y56362268D01*
X39321000Y56362268D01*
X39320010Y56363804D01*
X39291208Y56656240D01*
X39205962Y56937256D01*
X39067533Y57196239D01*
X38881239Y57423239D01*
X38654239Y57609533D01*
X38395256Y57747962D01*
X38114240Y57833208D01*
X37821804Y57862010D01*
X37820178Y57863175D01*
X37820374Y57865165D01*
X37822000Y57866000D01*
X37849053Y57866000D01*
X37849249Y57865990D01*
G37*
M02*
