G04 #@! TF.GenerationSoftware,KiCad,Pcbnew,5.1.9*
G04 #@! TF.CreationDate,2021-01-16T18:22:49+01:00*
G04 #@! TF.ProjectId,firework-ignition-system,66697265-776f-4726-9b2d-69676e697469,1*
G04 #@! TF.SameCoordinates,Original*
G04 #@! TF.FileFunction,Legend,Bot*
G04 #@! TF.FilePolarity,Positive*
%FSLAX46Y46*%
G04 Gerber Fmt 4.6, Leading zero omitted, Abs format (unit mm)*
G04 Created by KiCad (PCBNEW 5.1.9) date 2021-01-16 18:22:49*
%MOMM*%
%LPD*%
G01*
G04 APERTURE LIST*
%ADD10O,1.200000X1.900000*%
%ADD11C,1.450000*%
%ADD12C,6.000000*%
%ADD13C,1.800000*%
%ADD14R,1.800000X1.800000*%
%ADD15C,3.200000*%
G04 APERTURE END LIST*
%LPC*%
D10*
X64318000Y59911500D03*
X71318000Y59911500D03*
D11*
X65318000Y57211500D03*
X70318000Y57211500D03*
G36*
G01*
X50912000Y3051600D02*
X50912000Y6051600D01*
G75*
G02*
X52412000Y7551600I1500000J0D01*
G01*
X55412000Y7551600D01*
G75*
G02*
X56912000Y6051600I0J-1500000D01*
G01*
X56912000Y3051600D01*
G75*
G02*
X55412000Y1551600I-1500000J0D01*
G01*
X52412000Y1551600D01*
G75*
G02*
X50912000Y3051600I0J1500000D01*
G01*
G37*
D12*
X61112000Y4551600D03*
G36*
G01*
X70152000Y3072000D02*
X70152000Y6072000D01*
G75*
G02*
X71652000Y7572000I1500000J0D01*
G01*
X74652000Y7572000D01*
G75*
G02*
X76152000Y6072000I0J-1500000D01*
G01*
X76152000Y3072000D01*
G75*
G02*
X74652000Y1572000I-1500000J0D01*
G01*
X71652000Y1572000D01*
G75*
G02*
X70152000Y3072000I0J1500000D01*
G01*
G37*
X80352000Y4572000D03*
G36*
G01*
X32498400Y3051600D02*
X32498400Y6051600D01*
G75*
G02*
X33998400Y7551600I1500000J0D01*
G01*
X36998400Y7551600D01*
G75*
G02*
X38498400Y6051600I0J-1500000D01*
G01*
X38498400Y3051600D01*
G75*
G02*
X36998400Y1551600I-1500000J0D01*
G01*
X33998400Y1551600D01*
G75*
G02*
X32498400Y3051600I0J1500000D01*
G01*
G37*
X42698400Y4551600D03*
G36*
G01*
X89202000Y3072000D02*
X89202000Y6072000D01*
G75*
G02*
X90702000Y7572000I1500000J0D01*
G01*
X93702000Y7572000D01*
G75*
G02*
X95202000Y6072000I0J-1500000D01*
G01*
X95202000Y3072000D01*
G75*
G02*
X93702000Y1572000I-1500000J0D01*
G01*
X90702000Y1572000D01*
G75*
G02*
X89202000Y3072000I0J1500000D01*
G01*
G37*
X99402000Y4572000D03*
D13*
X63660000Y20047600D03*
D14*
X61120000Y20047600D03*
D13*
X82900000Y20068000D03*
D14*
X80360000Y20068000D03*
D13*
X45246400Y20047600D03*
D14*
X42706400Y20047600D03*
D13*
X101950000Y20068000D03*
D14*
X99410000Y20068000D03*
D15*
X19304000Y57404000D03*
X117856000Y57658000D03*
X117856000Y-3810000D03*
X19304000Y-3810000D03*
G36*
G01*
X34822000Y57864000D02*
X37822000Y57864000D01*
G75*
G02*
X39322000Y56364000I0J-1500000D01*
G01*
X39322000Y53364000D01*
G75*
G02*
X37822000Y51864000I-1500000J0D01*
G01*
X34822000Y51864000D01*
G75*
G02*
X33322000Y53364000I0J1500000D01*
G01*
X33322000Y56364000D01*
G75*
G02*
X34822000Y57864000I1500000J0D01*
G01*
G37*
D12*
X36322000Y47664000D03*
M02*
