G04 #@! TF.GenerationSoftware,KiCad,Pcbnew,5.1.9*
G04 #@! TF.CreationDate,2021-01-16T18:22:49+01:00*
G04 #@! TF.ProjectId,firework-ignition-system,66697265-776f-4726-9b2d-69676e697469,1*
G04 #@! TF.SameCoordinates,Original*
G04 #@! TF.FileFunction,Soldermask,Bot*
G04 #@! TF.FilePolarity,Negative*
%FSLAX46Y46*%
G04 Gerber Fmt 4.6, Leading zero omitted, Abs format (unit mm)*
G04 Created by KiCad (PCBNEW 5.1.9) date 2021-01-16 18:22:49*
%MOMM*%
%LPD*%
G01*
G04 APERTURE LIST*
%ADD10O,1.200000X1.900000*%
%ADD11C,1.450000*%
%ADD12C,6.000000*%
%ADD13C,1.800000*%
%ADD14R,1.800000X1.800000*%
%ADD15C,3.200000*%
%ADD16C,0.152400*%
G04 APERTURE END LIST*
D10*
X64318000Y59911500D03*
X71318000Y59911500D03*
D11*
X65318000Y57211500D03*
X70318000Y57211500D03*
G36*
G01*
X50912000Y3051600D02*
X50912000Y6051600D01*
G75*
G02*
X52412000Y7551600I1500000J0D01*
G01*
X55412000Y7551600D01*
G75*
G02*
X56912000Y6051600I0J-1500000D01*
G01*
X56912000Y3051600D01*
G75*
G02*
X55412000Y1551600I-1500000J0D01*
G01*
X52412000Y1551600D01*
G75*
G02*
X50912000Y3051600I0J1500000D01*
G01*
G37*
D12*
X61112000Y4551600D03*
G36*
G01*
X70152000Y3072000D02*
X70152000Y6072000D01*
G75*
G02*
X71652000Y7572000I1500000J0D01*
G01*
X74652000Y7572000D01*
G75*
G02*
X76152000Y6072000I0J-1500000D01*
G01*
X76152000Y3072000D01*
G75*
G02*
X74652000Y1572000I-1500000J0D01*
G01*
X71652000Y1572000D01*
G75*
G02*
X70152000Y3072000I0J1500000D01*
G01*
G37*
X80352000Y4572000D03*
G36*
G01*
X32498400Y3051600D02*
X32498400Y6051600D01*
G75*
G02*
X33998400Y7551600I1500000J0D01*
G01*
X36998400Y7551600D01*
G75*
G02*
X38498400Y6051600I0J-1500000D01*
G01*
X38498400Y3051600D01*
G75*
G02*
X36998400Y1551600I-1500000J0D01*
G01*
X33998400Y1551600D01*
G75*
G02*
X32498400Y3051600I0J1500000D01*
G01*
G37*
X42698400Y4551600D03*
G36*
G01*
X89202000Y3072000D02*
X89202000Y6072000D01*
G75*
G02*
X90702000Y7572000I1500000J0D01*
G01*
X93702000Y7572000D01*
G75*
G02*
X95202000Y6072000I0J-1500000D01*
G01*
X95202000Y3072000D01*
G75*
G02*
X93702000Y1572000I-1500000J0D01*
G01*
X90702000Y1572000D01*
G75*
G02*
X89202000Y3072000I0J1500000D01*
G01*
G37*
X99402000Y4572000D03*
D13*
X63660000Y20047600D03*
D14*
X61120000Y20047600D03*
D13*
X82900000Y20068000D03*
D14*
X80360000Y20068000D03*
D13*
X45246400Y20047600D03*
D14*
X42706400Y20047600D03*
D13*
X101950000Y20068000D03*
D14*
X99410000Y20068000D03*
D15*
X19304000Y57404000D03*
X117856000Y57658000D03*
X117856000Y-3810000D03*
X19304000Y-3810000D03*
G36*
G01*
X34822000Y57864000D02*
X37822000Y57864000D01*
G75*
G02*
X39322000Y56364000I0J-1500000D01*
G01*
X39322000Y53364000D01*
G75*
G02*
X37822000Y51864000I-1500000J0D01*
G01*
X34822000Y51864000D01*
G75*
G02*
X33322000Y53364000I0J1500000D01*
G01*
X33322000Y56364000D01*
G75*
G02*
X34822000Y57864000I1500000J0D01*
G01*
G37*
D12*
X36322000Y47664000D03*
D16*
G36*
X56913165Y3053226D02*
G01*
X56914000Y3051600D01*
X56914000Y3024547D01*
X56913990Y3024351D01*
X56885459Y2734676D01*
X56885383Y2734291D01*
X56801749Y2458585D01*
X56801599Y2458223D01*
X56665785Y2204133D01*
X56665567Y2203807D01*
X56482788Y1981089D01*
X56482511Y1980812D01*
X56259793Y1798033D01*
X56259467Y1797815D01*
X56005377Y1662001D01*
X56005015Y1661851D01*
X55729309Y1578217D01*
X55728924Y1578141D01*
X55439249Y1549610D01*
X55439053Y1549600D01*
X55412000Y1549600D01*
X55410268Y1550600D01*
X55410268Y1552600D01*
X55411804Y1553590D01*
X55704240Y1582392D01*
X55985256Y1667638D01*
X56244239Y1806067D01*
X56471239Y1992361D01*
X56657533Y2219361D01*
X56795962Y2478344D01*
X56881208Y2759360D01*
X56910010Y3051796D01*
X56911175Y3053422D01*
X56913165Y3053226D01*
G37*
G36*
X38499565Y3053226D02*
G01*
X38500400Y3051600D01*
X38500400Y3024547D01*
X38500390Y3024351D01*
X38471859Y2734676D01*
X38471783Y2734291D01*
X38388149Y2458585D01*
X38387999Y2458223D01*
X38252185Y2204133D01*
X38251967Y2203807D01*
X38069188Y1981089D01*
X38068911Y1980812D01*
X37846193Y1798033D01*
X37845867Y1797815D01*
X37591777Y1662001D01*
X37591415Y1661851D01*
X37315709Y1578217D01*
X37315324Y1578141D01*
X37025649Y1549610D01*
X37025453Y1549600D01*
X36998400Y1549600D01*
X36996668Y1550600D01*
X36996668Y1552600D01*
X36998204Y1553590D01*
X37290640Y1582392D01*
X37571656Y1667638D01*
X37830639Y1806067D01*
X38057639Y1992361D01*
X38243933Y2219361D01*
X38382362Y2478344D01*
X38467608Y2759360D01*
X38496410Y3051796D01*
X38497575Y3053422D01*
X38499565Y3053226D01*
G37*
G36*
X32500390Y3051796D02*
G01*
X32529192Y2759360D01*
X32614438Y2478344D01*
X32752867Y2219361D01*
X32939161Y1992361D01*
X33166161Y1806067D01*
X33425144Y1667638D01*
X33706160Y1582392D01*
X33998596Y1553590D01*
X34000222Y1552425D01*
X34000026Y1550435D01*
X33998400Y1549600D01*
X33971347Y1549600D01*
X33971151Y1549610D01*
X33681476Y1578141D01*
X33681091Y1578217D01*
X33405385Y1661851D01*
X33405023Y1662001D01*
X33150933Y1797815D01*
X33150607Y1798033D01*
X32927889Y1980812D01*
X32927612Y1981089D01*
X32744833Y2203807D01*
X32744615Y2204133D01*
X32608801Y2458223D01*
X32608651Y2458585D01*
X32525017Y2734291D01*
X32524941Y2734676D01*
X32496410Y3024351D01*
X32496400Y3024547D01*
X32496400Y3051600D01*
X32497400Y3053332D01*
X32499400Y3053332D01*
X32500390Y3051796D01*
G37*
G36*
X50913990Y3051796D02*
G01*
X50942792Y2759360D01*
X51028038Y2478344D01*
X51166467Y2219361D01*
X51352761Y1992361D01*
X51579761Y1806067D01*
X51838744Y1667638D01*
X52119760Y1582392D01*
X52412196Y1553590D01*
X52413822Y1552425D01*
X52413626Y1550435D01*
X52412000Y1549600D01*
X52384947Y1549600D01*
X52384751Y1549610D01*
X52095076Y1578141D01*
X52094691Y1578217D01*
X51818985Y1661851D01*
X51818623Y1662001D01*
X51564533Y1797815D01*
X51564207Y1798033D01*
X51341489Y1980812D01*
X51341212Y1981089D01*
X51158433Y2203807D01*
X51158215Y2204133D01*
X51022401Y2458223D01*
X51022251Y2458585D01*
X50938617Y2734291D01*
X50938541Y2734676D01*
X50910010Y3024351D01*
X50910000Y3024547D01*
X50910000Y3051600D01*
X50911000Y3053332D01*
X50913000Y3053332D01*
X50913990Y3051796D01*
G37*
G36*
X95203165Y3073626D02*
G01*
X95204000Y3072000D01*
X95204000Y3044947D01*
X95203990Y3044751D01*
X95175459Y2755076D01*
X95175383Y2754691D01*
X95091749Y2478985D01*
X95091599Y2478623D01*
X94955785Y2224533D01*
X94955567Y2224207D01*
X94772788Y2001489D01*
X94772511Y2001212D01*
X94549793Y1818433D01*
X94549467Y1818215D01*
X94295377Y1682401D01*
X94295015Y1682251D01*
X94019309Y1598617D01*
X94018924Y1598541D01*
X93729249Y1570010D01*
X93729053Y1570000D01*
X93702000Y1570000D01*
X93700268Y1571000D01*
X93700268Y1573000D01*
X93701804Y1573990D01*
X93994240Y1602792D01*
X94275256Y1688038D01*
X94534239Y1826467D01*
X94761239Y2012761D01*
X94947533Y2239761D01*
X95085962Y2498744D01*
X95171208Y2779760D01*
X95200010Y3072196D01*
X95201175Y3073822D01*
X95203165Y3073626D01*
G37*
G36*
X76153165Y3073626D02*
G01*
X76154000Y3072000D01*
X76154000Y3044947D01*
X76153990Y3044751D01*
X76125459Y2755076D01*
X76125383Y2754691D01*
X76041749Y2478985D01*
X76041599Y2478623D01*
X75905785Y2224533D01*
X75905567Y2224207D01*
X75722788Y2001489D01*
X75722511Y2001212D01*
X75499793Y1818433D01*
X75499467Y1818215D01*
X75245377Y1682401D01*
X75245015Y1682251D01*
X74969309Y1598617D01*
X74968924Y1598541D01*
X74679249Y1570010D01*
X74679053Y1570000D01*
X74652000Y1570000D01*
X74650268Y1571000D01*
X74650268Y1573000D01*
X74651804Y1573990D01*
X74944240Y1602792D01*
X75225256Y1688038D01*
X75484239Y1826467D01*
X75711239Y2012761D01*
X75897533Y2239761D01*
X76035962Y2498744D01*
X76121208Y2779760D01*
X76150010Y3072196D01*
X76151175Y3073822D01*
X76153165Y3073626D01*
G37*
G36*
X70153990Y3072196D02*
G01*
X70182792Y2779760D01*
X70268038Y2498744D01*
X70406467Y2239761D01*
X70592761Y2012761D01*
X70819761Y1826467D01*
X71078744Y1688038D01*
X71359760Y1602792D01*
X71652196Y1573990D01*
X71653822Y1572825D01*
X71653626Y1570835D01*
X71652000Y1570000D01*
X71624947Y1570000D01*
X71624751Y1570010D01*
X71335076Y1598541D01*
X71334691Y1598617D01*
X71058985Y1682251D01*
X71058623Y1682401D01*
X70804533Y1818215D01*
X70804207Y1818433D01*
X70581489Y2001212D01*
X70581212Y2001489D01*
X70398433Y2224207D01*
X70398215Y2224533D01*
X70262401Y2478623D01*
X70262251Y2478985D01*
X70178617Y2754691D01*
X70178541Y2755076D01*
X70150010Y3044751D01*
X70150000Y3044947D01*
X70150000Y3072000D01*
X70151000Y3073732D01*
X70153000Y3073732D01*
X70153990Y3072196D01*
G37*
G36*
X89203990Y3072196D02*
G01*
X89232792Y2779760D01*
X89318038Y2498744D01*
X89456467Y2239761D01*
X89642761Y2012761D01*
X89869761Y1826467D01*
X90128744Y1688038D01*
X90409760Y1602792D01*
X90702196Y1573990D01*
X90703822Y1572825D01*
X90703626Y1570835D01*
X90702000Y1570000D01*
X90674947Y1570000D01*
X90674751Y1570010D01*
X90385076Y1598541D01*
X90384691Y1598617D01*
X90108985Y1682251D01*
X90108623Y1682401D01*
X89854533Y1818215D01*
X89854207Y1818433D01*
X89631489Y2001212D01*
X89631212Y2001489D01*
X89448433Y2224207D01*
X89448215Y2224533D01*
X89312401Y2478623D01*
X89312251Y2478985D01*
X89228617Y2754691D01*
X89228541Y2755076D01*
X89200010Y3044751D01*
X89200000Y3044947D01*
X89200000Y3072000D01*
X89201000Y3073732D01*
X89203000Y3073732D01*
X89203990Y3072196D01*
G37*
G36*
X34000132Y7552600D02*
G01*
X34000132Y7550600D01*
X33998596Y7549610D01*
X33706160Y7520808D01*
X33425144Y7435562D01*
X33166161Y7297133D01*
X32939161Y7110839D01*
X32752867Y6883839D01*
X32614438Y6624856D01*
X32529192Y6343840D01*
X32500390Y6051404D01*
X32499225Y6049778D01*
X32497235Y6049974D01*
X32496400Y6051600D01*
X32496400Y6078653D01*
X32496410Y6078849D01*
X32524941Y6368524D01*
X32525017Y6368909D01*
X32608651Y6644615D01*
X32608801Y6644977D01*
X32744615Y6899067D01*
X32744833Y6899393D01*
X32927612Y7122111D01*
X32927889Y7122388D01*
X33150607Y7305167D01*
X33150933Y7305385D01*
X33405023Y7441199D01*
X33405385Y7441349D01*
X33681091Y7524983D01*
X33681476Y7525059D01*
X33971151Y7553590D01*
X33971347Y7553600D01*
X33998400Y7553600D01*
X34000132Y7552600D01*
G37*
G36*
X52413732Y7552600D02*
G01*
X52413732Y7550600D01*
X52412196Y7549610D01*
X52119760Y7520808D01*
X51838744Y7435562D01*
X51579761Y7297133D01*
X51352761Y7110839D01*
X51166467Y6883839D01*
X51028038Y6624856D01*
X50942792Y6343840D01*
X50913990Y6051404D01*
X50912825Y6049778D01*
X50910835Y6049974D01*
X50910000Y6051600D01*
X50910000Y6078653D01*
X50910010Y6078849D01*
X50938541Y6368524D01*
X50938617Y6368909D01*
X51022251Y6644615D01*
X51022401Y6644977D01*
X51158215Y6899067D01*
X51158433Y6899393D01*
X51341212Y7122111D01*
X51341489Y7122388D01*
X51564207Y7305167D01*
X51564533Y7305385D01*
X51818623Y7441199D01*
X51818985Y7441349D01*
X52094691Y7524983D01*
X52095076Y7525059D01*
X52384751Y7553590D01*
X52384947Y7553600D01*
X52412000Y7553600D01*
X52413732Y7552600D01*
G37*
G36*
X37025649Y7553590D02*
G01*
X37315324Y7525059D01*
X37315709Y7524983D01*
X37591415Y7441349D01*
X37591777Y7441199D01*
X37845867Y7305385D01*
X37846193Y7305167D01*
X38068911Y7122388D01*
X38069188Y7122111D01*
X38251967Y6899393D01*
X38252185Y6899067D01*
X38387999Y6644977D01*
X38388149Y6644615D01*
X38471783Y6368909D01*
X38471859Y6368524D01*
X38500390Y6078849D01*
X38500400Y6078653D01*
X38500400Y6051600D01*
X38499400Y6049868D01*
X38497400Y6049868D01*
X38496410Y6051404D01*
X38467608Y6343840D01*
X38382362Y6624856D01*
X38243933Y6883839D01*
X38057639Y7110839D01*
X37830639Y7297133D01*
X37571656Y7435562D01*
X37290640Y7520808D01*
X36998204Y7549610D01*
X36996578Y7550775D01*
X36996774Y7552765D01*
X36998400Y7553600D01*
X37025453Y7553600D01*
X37025649Y7553590D01*
G37*
G36*
X55439249Y7553590D02*
G01*
X55728924Y7525059D01*
X55729309Y7524983D01*
X56005015Y7441349D01*
X56005377Y7441199D01*
X56259467Y7305385D01*
X56259793Y7305167D01*
X56482511Y7122388D01*
X56482788Y7122111D01*
X56665567Y6899393D01*
X56665785Y6899067D01*
X56801599Y6644977D01*
X56801749Y6644615D01*
X56885383Y6368909D01*
X56885459Y6368524D01*
X56913990Y6078849D01*
X56914000Y6078653D01*
X56914000Y6051600D01*
X56913000Y6049868D01*
X56911000Y6049868D01*
X56910010Y6051404D01*
X56881208Y6343840D01*
X56795962Y6624856D01*
X56657533Y6883839D01*
X56471239Y7110839D01*
X56244239Y7297133D01*
X55985256Y7435562D01*
X55704240Y7520808D01*
X55411804Y7549610D01*
X55410178Y7550775D01*
X55410374Y7552765D01*
X55412000Y7553600D01*
X55439053Y7553600D01*
X55439249Y7553590D01*
G37*
G36*
X90703732Y7573000D02*
G01*
X90703732Y7571000D01*
X90702196Y7570010D01*
X90409760Y7541208D01*
X90128744Y7455962D01*
X89869761Y7317533D01*
X89642761Y7131239D01*
X89456467Y6904239D01*
X89318038Y6645256D01*
X89232792Y6364240D01*
X89203990Y6071804D01*
X89202825Y6070178D01*
X89200835Y6070374D01*
X89200000Y6072000D01*
X89200000Y6099053D01*
X89200010Y6099249D01*
X89228541Y6388924D01*
X89228617Y6389309D01*
X89312251Y6665015D01*
X89312401Y6665377D01*
X89448215Y6919467D01*
X89448433Y6919793D01*
X89631212Y7142511D01*
X89631489Y7142788D01*
X89854207Y7325567D01*
X89854533Y7325785D01*
X90108623Y7461599D01*
X90108985Y7461749D01*
X90384691Y7545383D01*
X90385076Y7545459D01*
X90674751Y7573990D01*
X90674947Y7574000D01*
X90702000Y7574000D01*
X90703732Y7573000D01*
G37*
G36*
X71653732Y7573000D02*
G01*
X71653732Y7571000D01*
X71652196Y7570010D01*
X71359760Y7541208D01*
X71078744Y7455962D01*
X70819761Y7317533D01*
X70592761Y7131239D01*
X70406467Y6904239D01*
X70268038Y6645256D01*
X70182792Y6364240D01*
X70153990Y6071804D01*
X70152825Y6070178D01*
X70150835Y6070374D01*
X70150000Y6072000D01*
X70150000Y6099053D01*
X70150010Y6099249D01*
X70178541Y6388924D01*
X70178617Y6389309D01*
X70262251Y6665015D01*
X70262401Y6665377D01*
X70398215Y6919467D01*
X70398433Y6919793D01*
X70581212Y7142511D01*
X70581489Y7142788D01*
X70804207Y7325567D01*
X70804533Y7325785D01*
X71058623Y7461599D01*
X71058985Y7461749D01*
X71334691Y7545383D01*
X71335076Y7545459D01*
X71624751Y7573990D01*
X71624947Y7574000D01*
X71652000Y7574000D01*
X71653732Y7573000D01*
G37*
G36*
X74679249Y7573990D02*
G01*
X74968924Y7545459D01*
X74969309Y7545383D01*
X75245015Y7461749D01*
X75245377Y7461599D01*
X75499467Y7325785D01*
X75499793Y7325567D01*
X75722511Y7142788D01*
X75722788Y7142511D01*
X75905567Y6919793D01*
X75905785Y6919467D01*
X76041599Y6665377D01*
X76041749Y6665015D01*
X76125383Y6389309D01*
X76125459Y6388924D01*
X76153990Y6099249D01*
X76154000Y6099053D01*
X76154000Y6072000D01*
X76153000Y6070268D01*
X76151000Y6070268D01*
X76150010Y6071804D01*
X76121208Y6364240D01*
X76035962Y6645256D01*
X75897533Y6904239D01*
X75711239Y7131239D01*
X75484239Y7317533D01*
X75225256Y7455962D01*
X74944240Y7541208D01*
X74651804Y7570010D01*
X74650178Y7571175D01*
X74650374Y7573165D01*
X74652000Y7574000D01*
X74679053Y7574000D01*
X74679249Y7573990D01*
G37*
G36*
X93729249Y7573990D02*
G01*
X94018924Y7545459D01*
X94019309Y7545383D01*
X94295015Y7461749D01*
X94295377Y7461599D01*
X94549467Y7325785D01*
X94549793Y7325567D01*
X94772511Y7142788D01*
X94772788Y7142511D01*
X94955567Y6919793D01*
X94955785Y6919467D01*
X95091599Y6665377D01*
X95091749Y6665015D01*
X95175383Y6389309D01*
X95175459Y6388924D01*
X95203990Y6099249D01*
X95204000Y6099053D01*
X95204000Y6072000D01*
X95203000Y6070268D01*
X95201000Y6070268D01*
X95200010Y6071804D01*
X95171208Y6364240D01*
X95085962Y6645256D01*
X94947533Y6904239D01*
X94761239Y7131239D01*
X94534239Y7317533D01*
X94275256Y7455962D01*
X93994240Y7541208D01*
X93701804Y7570010D01*
X93700178Y7571175D01*
X93700374Y7573165D01*
X93702000Y7574000D01*
X93729053Y7574000D01*
X93729249Y7573990D01*
G37*
G36*
X33323990Y53364196D02*
G01*
X33352792Y53071760D01*
X33438038Y52790744D01*
X33576467Y52531761D01*
X33762761Y52304761D01*
X33989761Y52118467D01*
X34248744Y51980038D01*
X34529760Y51894792D01*
X34822196Y51865990D01*
X34823822Y51864825D01*
X34823626Y51862835D01*
X34822000Y51862000D01*
X34794947Y51862000D01*
X34794751Y51862010D01*
X34505076Y51890541D01*
X34504691Y51890617D01*
X34228985Y51974251D01*
X34228623Y51974401D01*
X33974533Y52110215D01*
X33974207Y52110433D01*
X33751489Y52293212D01*
X33751212Y52293489D01*
X33568433Y52516207D01*
X33568215Y52516533D01*
X33432401Y52770623D01*
X33432251Y52770985D01*
X33348617Y53046691D01*
X33348541Y53047076D01*
X33320010Y53336751D01*
X33320000Y53336947D01*
X33320000Y53364000D01*
X33321000Y53365732D01*
X33323000Y53365732D01*
X33323990Y53364196D01*
G37*
G36*
X39323165Y53365626D02*
G01*
X39324000Y53364000D01*
X39324000Y53336947D01*
X39323990Y53336751D01*
X39295459Y53047076D01*
X39295383Y53046691D01*
X39211749Y52770985D01*
X39211599Y52770623D01*
X39075785Y52516533D01*
X39075567Y52516207D01*
X38892788Y52293489D01*
X38892511Y52293212D01*
X38669793Y52110433D01*
X38669467Y52110215D01*
X38415377Y51974401D01*
X38415015Y51974251D01*
X38139309Y51890617D01*
X38138924Y51890541D01*
X37849249Y51862010D01*
X37849053Y51862000D01*
X37822000Y51862000D01*
X37820268Y51863000D01*
X37820268Y51865000D01*
X37821804Y51865990D01*
X38114240Y51894792D01*
X38395256Y51980038D01*
X38654239Y52118467D01*
X38881239Y52304761D01*
X39067533Y52531761D01*
X39205962Y52790744D01*
X39291208Y53071760D01*
X39320010Y53364196D01*
X39321175Y53365822D01*
X39323165Y53365626D01*
G37*
G36*
X34823732Y57865000D02*
G01*
X34823732Y57863000D01*
X34822196Y57862010D01*
X34529760Y57833208D01*
X34248744Y57747962D01*
X33989761Y57609533D01*
X33762761Y57423239D01*
X33576467Y57196239D01*
X33438038Y56937256D01*
X33352792Y56656240D01*
X33323990Y56363804D01*
X33322825Y56362178D01*
X33320835Y56362374D01*
X33320000Y56364000D01*
X33320000Y56391053D01*
X33320010Y56391249D01*
X33348541Y56680924D01*
X33348617Y56681309D01*
X33432251Y56957015D01*
X33432401Y56957377D01*
X33568215Y57211467D01*
X33568433Y57211793D01*
X33751212Y57434511D01*
X33751489Y57434788D01*
X33974207Y57617567D01*
X33974533Y57617785D01*
X34228623Y57753599D01*
X34228985Y57753749D01*
X34504691Y57837383D01*
X34505076Y57837459D01*
X34794751Y57865990D01*
X34794947Y57866000D01*
X34822000Y57866000D01*
X34823732Y57865000D01*
G37*
G36*
X37849249Y57865990D02*
G01*
X38138924Y57837459D01*
X38139309Y57837383D01*
X38415015Y57753749D01*
X38415377Y57753599D01*
X38669467Y57617785D01*
X38669793Y57617567D01*
X38892511Y57434788D01*
X38892788Y57434511D01*
X39075567Y57211793D01*
X39075785Y57211467D01*
X39211599Y56957377D01*
X39211749Y56957015D01*
X39295383Y56681309D01*
X39295459Y56680924D01*
X39323990Y56391249D01*
X39324000Y56391053D01*
X39324000Y56364000D01*
X39323000Y56362268D01*
X39321000Y56362268D01*
X39320010Y56363804D01*
X39291208Y56656240D01*
X39205962Y56937256D01*
X39067533Y57196239D01*
X38881239Y57423239D01*
X38654239Y57609533D01*
X38395256Y57747962D01*
X38114240Y57833208D01*
X37821804Y57862010D01*
X37820178Y57863175D01*
X37820374Y57865165D01*
X37822000Y57866000D01*
X37849053Y57866000D01*
X37849249Y57865990D01*
G37*
M02*
